<svg xmlns="http://www.w3.org/2000/svg" width="60" height="60" viewBox="0 0 80 80" fill="none"><path d="M80 40L77.8976 43.7346L79.2389 47.8051L76.4481 51.0576L76.9644 55.3118L73.5893 57.9527L73.2617 62.2254L69.436 64.157L68.2839 68.2844L64.156 69.4369L62.2248 73.2622L57.9521 73.5898L55.3112 76.9645L51.057 76.4481L47.8049 79.2384L43.7344 77.8977L39.9998 80L36.2656 77.8977L32.1951 79.2384L28.9425 76.4481L24.6879 76.964L22.047 73.5893L17.7742 73.2618L15.8426 69.436L11.7152 68.2835L10.5631 64.1561L6.73781 62.2245L6.41024 57.9518L3.03555 55.3109L3.55142 51.0572L0.761094 47.8047L2.10236 43.7346L0 40L2.10236 36.2654L0.761094 32.1949L3.55189 28.9424L3.03555 24.6882L6.4107 22.0473L6.73826 17.7741L10.5641 15.843L11.7161 11.7156L15.8435 10.5631L17.7752 6.73776L22.0479 6.4102L24.6888 3.03553L28.943 3.55186L32.1951 0.761543L36.2656 2.10234L39.9998 0L43.7344 2.10234L47.8049 0.761543L51.0575 3.55186L55.3121 3.036L57.953 6.41066L62.2258 6.73869L64.1569 10.564L68.2848 11.7165L69.4369 15.8439L73.2622 17.7755L73.5898 22.0482L76.9644 24.6891L76.4486 28.9428L79.2389 32.1953L77.8976 36.2658L80 40Z" fill="#FFB830"></path><path d="M74.2047 40L72.4067 43.1933L73.5537 46.6744L71.1672 49.4554L71.6086 53.0934L68.7225 55.3516L68.4426 59.0053L65.1711 60.657L64.1856 64.1866L60.6564 65.1716L59.0047 68.4431L55.351 68.723L53.0927 71.6087L49.4553 71.1673L46.6737 73.5532L43.1936 72.4068L39.9998 74.2042L36.8064 72.4068L33.3258 73.5532L30.5443 71.1673L26.9063 71.6087L24.6481 68.7226L20.9944 68.4422L19.3427 65.1712L15.8135 64.1857L14.828 60.656L11.5569 59.0048L11.277 55.3512L8.39091 53.0929L8.83229 49.455L6.44633 46.6739L7.59328 43.1933L5.79535 40L7.59328 36.8067L6.44633 33.3256L8.83275 30.5445L8.39138 26.9066L11.2775 24.6484L11.5574 20.9947L14.8289 19.343L15.8144 15.8133L19.3436 14.8283L20.9953 11.5573L24.649 11.2769L26.9073 8.39131L30.5447 8.83269L33.3258 6.44674L36.8064 7.59322L39.9998 5.79577L43.1936 7.59322L46.6742 6.44674L49.4557 8.83269L53.0932 8.39131L55.352 11.2774L59.0056 11.5578L60.6573 14.8288L64.1865 15.8143L65.172 19.3439L68.4431 20.9952L68.723 24.6488L71.6091 26.9071L71.1677 30.545L73.5537 33.3261L72.4067 36.8067L74.2047 40Z" fill="#0B202E"></path><path d="M12.1848 44.8783L14.2316 35.279L16.9391 35.1624L19.0378 44.8006L16.965 44.8783L16.6153 42.7926H14.2964L13.8818 44.8783H12.1848ZM14.6461 41.2381H16.2655L15.3716 36.5874L14.6461 41.2381Z" fill="white"></path><path d="M21.7422 45.0467C20.3431 45.0467 19.6435 43.7772 19.6435 41.2381C19.6435 39.9167 19.8162 38.9624 20.1617 38.3751C20.5071 37.7879 21.0469 37.4942 21.781 37.4942C22.0919 37.4942 22.3899 37.5979 22.6749 37.8051C22.9599 38.0038 23.1672 38.2542 23.2967 38.5565V35.3956L25.1233 35.1624V44.8006L23.7501 44.956L23.2967 43.9715C23.2103 44.291 23.0506 44.5501 22.8174 44.7488C22.5842 44.9474 22.2258 45.0467 21.7422 45.0467ZM22.4158 43.7513C22.6749 43.7513 22.8865 43.6088 23.0506 43.3238C23.2147 43.0301 23.2967 42.5379 23.2967 41.847V39.4115C23.0463 39.0229 22.7526 38.8285 22.4158 38.8285C22.1308 38.8285 21.9192 38.9322 21.781 39.1394C21.6515 39.3381 21.5651 39.6015 21.5219 39.9297C21.4874 40.2579 21.4701 40.694 21.4701 41.2381C21.4701 41.7908 21.4874 42.2399 21.5219 42.5854C21.5651 42.9308 21.6558 43.2115 21.794 43.4274C21.9322 43.6433 22.1394 43.7513 22.4158 43.7513Z" fill="white"></path><path d="M28.4472 45.0467C27.0481 45.0467 26.3485 43.7772 26.3485 41.2381C26.3485 39.9167 26.5213 38.9624 26.8667 38.3751C27.2122 37.7879 27.752 37.4942 28.4861 37.4942C28.797 37.4942 29.0949 37.5979 29.3799 37.8051C29.6649 38.0038 29.8722 38.2542 30.0017 38.5565V35.3956L31.8284 35.1624V44.8006L30.4552 44.956L30.0017 43.9715C29.9154 44.291 29.7556 44.5501 29.5224 44.7488C29.2892 44.9474 28.9308 45.0467 28.4472 45.0467ZM29.1208 43.7513C29.3799 43.7513 29.5915 43.6088 29.7556 43.3238C29.9197 43.0301 30.0017 42.5379 30.0017 41.847V39.4115C29.7513 39.0229 29.4577 38.8285 29.1208 38.8285C28.8358 38.8285 28.6242 38.9322 28.4861 39.1394C28.3565 39.3381 28.2701 39.6015 28.227 39.9297C28.1924 40.2579 28.1751 40.694 28.1751 41.2381C28.1751 41.7908 28.1924 42.2399 28.227 42.5854C28.2701 42.9308 28.3608 43.2115 28.499 43.4274C28.6372 43.6433 28.8445 43.7513 29.1208 43.7513Z" fill="white"></path><path d="M33.3904 36.6522V34.7738L35.204 34.6442V36.5744L33.3904 36.6522ZM33.3774 44.956V37.7404L35.1911 37.5849V44.8006L33.3774 44.956Z" fill="white"></path><path d="M39.2679 45.0208C38.6806 45.0208 38.184 44.874 37.7781 44.5804C37.3722 44.2781 37.1692 43.747 37.1692 42.987V38.9581H36.1587L36.2365 37.5849H37.221L37.4024 36.0044L38.9829 35.7842V37.5849H40.4856L40.4079 38.9581H38.9958V42.974C38.9958 43.2331 39.0606 43.4188 39.1901 43.531C39.3197 43.6433 39.5097 43.6995 39.7601 43.6995C39.8983 43.6995 40.1315 43.6735 40.4597 43.6217V44.8783C40.4251 44.887 40.287 44.9129 40.0451 44.956C39.812 44.9992 39.5529 45.0208 39.2679 45.0208Z" fill="white"></path><path d="M41.4617 36.6522V34.7738L43.2754 34.6442V36.5744L41.4617 36.6522ZM41.4488 44.956V37.7404L43.2624 37.5849V44.8006L41.4488 44.956Z" fill="white"></path><path d="M47.2226 45.0467C46.3503 45.0467 45.6767 44.7013 45.2017 44.0104C44.7353 43.3195 44.5021 42.3997 44.5021 41.251C44.5021 40.111 44.7353 39.1999 45.2017 38.5176C45.6681 37.8354 46.3417 37.4942 47.2226 37.4942C48.0949 37.4942 48.7685 37.8354 49.2435 38.5176C49.7272 39.1999 49.969 40.111 49.969 41.251C49.969 42.391 49.7272 43.3108 49.2435 44.0104C48.7685 44.7013 48.0949 45.0467 47.2226 45.0467ZM47.2226 43.6995C47.6113 43.6995 47.8617 43.462 47.974 42.987C48.0863 42.512 48.1424 41.929 48.1424 41.2381C48.1424 40.5472 48.0863 39.9642 47.974 39.4892C47.8617 39.0142 47.6113 38.7767 47.2226 38.7767C46.834 38.7767 46.5878 39.0013 46.4842 39.4504C46.3806 39.8994 46.3287 40.4479 46.3287 41.0956C46.3287 41.8901 46.3806 42.5249 46.4842 42.9999C46.5878 43.4663 46.834 43.6995 47.2226 43.6995Z" fill="white"></path><path d="M51.2027 37.7404L53.0164 37.5849V38.5176C53.3877 38.1894 53.7505 37.939 54.1046 37.7663C54.4673 37.5849 54.7998 37.4942 55.1021 37.4942C55.5598 37.4942 55.9312 37.6626 56.2162 37.9994C56.5098 38.3276 56.6566 38.7724 56.6566 39.3338V44.8006L54.843 44.956V40.0204C54.843 39.3726 54.6228 39.0488 54.1823 39.0488C54.0355 39.0488 53.8714 39.0919 53.69 39.1783C53.5173 39.2647 53.2927 39.3899 53.0164 39.554V44.8006L51.2027 44.956V37.7404Z" fill="white"></path><path d="M59.3779 45.0467C59.067 45.0467 58.7863 44.9517 58.5359 44.7617C58.2854 44.5631 58.0911 44.2997 57.9529 43.9715C57.8147 43.6347 57.7456 43.259 57.7456 42.8445C57.7456 41.9031 58.0652 41.2424 58.7043 40.8624C59.352 40.4738 60.1034 40.2535 60.9584 40.2017C60.9584 39.7354 60.9282 39.3899 60.8677 39.1654C60.8072 38.9408 60.6604 38.8285 60.4272 38.8285C60.2286 38.8285 60.0775 38.9063 59.9738 39.0617C59.8702 39.2172 59.8054 39.4158 59.7795 39.6576L58.0047 39.3467C58.0911 38.6817 58.3631 38.2067 58.8209 37.9217C59.2786 37.6367 59.8141 37.4942 60.4272 37.4942C61.2132 37.4942 61.8004 37.7015 62.1891 38.116C62.5863 38.5306 62.785 39.0704 62.785 39.7354V43.5051C62.785 43.911 62.8498 44.3429 62.9793 44.8006L61.2045 44.956L60.9972 44.0622C60.8418 44.3385 60.6129 44.5717 60.3106 44.7617C60.0084 44.9517 59.6975 45.0467 59.3779 45.0467ZM60.22 43.7513C60.3668 43.7513 60.4877 43.7167 60.5827 43.6476C60.6863 43.5785 60.8116 43.4663 60.9584 43.3108V41.2899C60.5266 41.2899 60.1811 41.4065 59.922 41.6397C59.6629 41.8729 59.5334 42.2356 59.5334 42.7279C59.5334 43.056 59.5895 43.3108 59.7018 43.4922C59.8227 43.6649 59.9954 43.7513 60.22 43.7513Z" fill="white"></path><path d="M64.2968 44.956V35.3956L66.1105 35.1624V44.8006L64.2968 44.956Z" fill="white"></path></svg>