<svg xmlns="http://www.w3.org/2000/svg" width="603" height="603" viewBox="0 0 603 603" fill="none"><path d="M499.789 472.658H539.734V472.959H499.789V472.658Z" fill="#EBEBEB"></path><path d="M329.773 469.385H396.605V469.686H329.773V469.385Z" fill="#EBEBEB"></path><path d="M470.108 479.82H493.254V480.122H470.108V479.82Z" fill="#EBEBEB"></path><path d="M86.0445 472.507H138.135V472.809H86.0445V472.507Z" fill="#EBEBEB"></path><path d="M67.6699 472.507H75.3076V472.809H67.6699V472.507Z" fill="#EBEBEB"></path><path d="M212.194 476.739H268.681V477.041H212.194V476.739Z" fill="#EBEBEB"></path><path d="M243.804 89.7191H476.632V256.861H243.804V89.7191Z" fill="#FAFAFA"></path><path d="M257.054 256.861L316.273 89.7191H360.716L301.496 256.861H257.054Z" fill="white"></path><path d="M376.558 256.861L435.778 89.7191H451.988L392.768 256.861H376.558Z" fill="white"></path><path d="M487.733 83.9713H232.702C232.133 83.9713 231.668 84.4368 231.668 85.0061C231.668 85.5753 232.133 86.0408 232.702 86.0408H487.733C488.302 86.0408 488.768 85.5753 488.768 85.0061C488.768 84.4368 488.302 83.9713 487.733 83.9713Z" fill="#E0E0E0"></path><path d="M358.838 89.3597H361.597V257.22H358.838V89.3597Z" fill="#F0F0F0"></path><path d="M361.597 89.3597H362.977V257.22H361.597V89.3597Z" fill="#E0E0E0"></path><path d="M478.24 171.91V174.669L242.195 174.669V171.91L478.24 171.91Z" fill="#F0F0F0"></path><path d="M478.24 255.711V90.8685V88.1091H475.482H244.954H242.195V90.8685V255.711V258.47H244.954H475.482H478.24V255.711ZM244.954 255.711V90.8685H475.482V255.711H244.954Z" fill="#F0F0F0"></path><path d="M478.24 88.1091H479.62V258.47H478.24V88.1091Z" fill="#E0E0E0"></path><path opacity="0.5" d="M444.013 81.4424V277.727H493.845L484.706 81.4424H444.013Z" fill="#EBEBEB"></path><path opacity="0.5" d="M277.801 81.4424V277.727H227.969L237.108 81.4424H277.801Z" fill="#EBEBEB"></path><path d="M509.314 301.246H528.32V455.409H509.314V301.246Z" fill="#F0F0F0"></path><path d="M315.277 455.409H524.67V461.173H315.277V455.409Z" fill="#F0F0F0"></path><path d="M509.313 455.408H311.627V301.245H509.313V455.408Z" fill="#F5F5F5"></path><path d="M511.286 296.215H530.711V301.246H511.286V296.215Z" fill="#F0F0F0"></path><path d="M511.285 301.246H309.236V296.215H511.285V301.246Z" fill="#FAFAFA"></path><path d="M318.461 388.002H502.48V311.805H318.461V388.002ZM501.204 386.724H319.738V313.081H501.204V386.724Z" fill="#E0E0E0"></path><path d="M318.461 444.848H502.48V395.63H318.461V444.848ZM501.204 443.572H319.738V396.907H501.204V443.572Z" fill="#E0E0E0"></path><path d="M344.94 316.535H476.002C476.93 316.535 477.688 315.777 477.688 314.849V314.128C477.688 313.201 476.93 312.442 476.002 312.442H344.94C344.013 312.442 343.254 313.201 343.254 314.128V314.849C343.254 315.777 344.013 316.535 344.94 316.535Z" fill="#E0E0E0"></path><path d="M344.94 400.361H476.002C476.93 400.361 477.688 399.602 477.688 398.675V397.955C477.688 397.027 476.93 396.269 476.002 396.269H344.94C344.013 396.269 343.254 397.027 343.254 397.955V398.675C343.254 399.602 344.013 400.361 344.94 400.361Z" fill="#E0E0E0"></path><path d="M183.482 453.775H72.9194L72.9194 116.438H183.482L183.482 453.775Z" fill="#F0F0F0"></path><path d="M183.482 116.437H186.99V453.774H183.482V116.437Z" fill="#E0E0E0"></path><path d="M165.544 440.907H90.8575L90.8575 129.306H165.544L165.544 440.907Z" fill="#FAFAFA"></path><path d="M301.5 515.639C172.359 515.639 67.6699 509.525 67.6699 501.983C67.6699 494.441 172.359 488.328 301.5 488.328C430.641 488.328 535.33 494.441 535.33 501.983C535.33 509.525 430.641 515.639 301.5 515.639Z" fill="#F5F5F5" fill-opacity="0.25"></path><path d="M430.113 491.485L420.671 487.903L426.451 465.083L435.894 468.665L430.113 491.485Z" fill="#FF9F75"></path><path d="M501.06 491.668H490.961L489.449 468.281H499.548L501.06 491.668Z" fill="#FF9F75"></path><path d="M489.951 490.498H502.264C502.677 490.498 503.02 490.785 503.09 491.188L504.639 500.164C504.799 501.095 504.024 501.977 503.071 501.96C499.113 501.893 496.234 501.66 491.245 501.66C488.176 501.66 478.903 501.978 474.664 501.978C470.517 501.978 470.08 497.787 471.833 497.407C479.699 495.706 485.679 493.358 488.282 491.118C488.751 490.715 489.348 490.498 489.951 490.498Z" fill="#304A57"></path><path d="M421.151 486.834L431.462 490.745C431.848 490.891 432.081 491.287 432.022 491.696L430.704 500.796C430.567 501.739 429.593 502.313 428.708 501.961C425.011 500.487 421.874 498.617 417.169 496.927C411.666 494.952 406.204 492.839 401.75 490.002C398.254 487.775 399.726 483.559 401.375 484.22C408.88 487.232 410.72 488.222 418.597 486.709C419.454 486.544 420.337 486.526 421.151 486.834Z" fill="#304A57"></path><path d="M447.791 183.905C444.612 189.52 441.265 195.309 437.89 200.91C434.518 206.536 431.051 212.096 427.375 217.308C426.484 218.628 425.497 219.891 424.608 221.113C424.241 221.659 424.084 221.816 423.825 222.022C423.562 222.215 422.945 222.39 421.993 222.309C421.051 222.243 419.856 221.968 418.619 221.508C416.121 220.597 413.447 219.101 410.831 217.428C409.531 216.573 408.21 215.693 406.918 214.756C405.644 213.831 404.324 212.796 403.146 211.888L397.483 216.93C398.568 218.51 399.629 219.853 400.797 221.239C401.949 222.611 403.148 223.96 404.45 225.232C405.741 226.52 407.111 227.763 408.596 228.936C410.077 230.116 411.666 231.247 413.458 232.243C415.25 233.235 417.225 234.16 419.588 234.738C421.924 235.298 424.772 235.515 427.734 234.714C430.708 233.955 433.389 232.055 435.167 230.022C436.378 228.618 437.56 227.308 438.664 225.921C443.142 220.435 447.093 214.757 450.843 208.979C454.572 203.16 458.017 197.335 461.278 191.145L447.791 183.905Z" fill="#D2815E"></path><path d="M465.704 184.37C468.427 193.633 449.258 218.888 449.258 218.888L429.929 206.45C429.929 206.45 435.61 193.565 443.323 183.739C451.242 173.651 462.716 174.203 465.704 184.37Z" fill="#3DB2FF"></path><path opacity="0.2" d="M465.704 184.37C468.427 193.633 449.258 218.888 449.258 218.888L429.929 206.45C429.929 206.45 435.61 193.565 443.323 183.739C451.242 173.651 462.716 174.203 465.704 184.37Z" fill="black"></path><path opacity="0.2" d="M453.921 195.244C449.945 196.942 444.095 206.517 441.051 213.613L449.254 218.884C449.254 218.884 456.64 209.159 461.584 199.559C458.993 196.717 456.024 194.352 453.921 195.244Z" fill="black"></path><path d="M404.336 215.037L400.795 205.12L390.744 209.916C390.744 209.916 392.83 218.761 400.185 218.747L404.336 215.037Z" fill="#FF9F75"></path><path d="M391.85 198.588L387.598 203.289L390.743 209.918L400.794 205.12L391.85 198.588Z" fill="#FF9F75"></path><path opacity="0.2" d="M426.452 465.09L423.47 476.852L432.917 480.435L435.898 468.673L426.452 465.09Z" fill="black"></path><path opacity="0.2" d="M499.551 468.287H489.447L490.232 480.343H500.336L499.551 468.287Z" fill="black"></path><path d="M510.721 180.273C499.842 218.635 501.622 259.338 500.943 267.608C493.028 267.324 463.215 266.2 446.963 265.585C437.794 208.403 454.26 176.576 454.26 176.576C454.26 176.576 457.724 175.904 462.435 175.42C463.912 175.269 465.505 175.135 467.165 175.048C468.081 174.993 469.012 174.964 469.957 174.945C476.05 174.845 486.002 175.813 492.858 176.651C494.294 176.83 495.756 177.046 497.169 177.276C498.481 177.5 499.768 177.738 500.98 177.98C506.478 179.077 510.721 180.273 510.721 180.273Z" fill="#3DB2FF"></path><path opacity="0.2" d="M510.721 180.273C499.842 218.635 501.622 259.338 500.943 267.608C493.028 267.324 463.215 266.2 446.963 265.585C437.794 208.403 454.26 176.576 454.26 176.576C454.26 176.576 457.724 175.904 462.435 175.42C463.912 175.269 465.505 175.135 467.165 175.048C468.081 174.993 469.012 174.964 469.957 174.945C476.05 174.845 486.002 175.813 492.858 176.651C494.294 176.83 495.756 177.046 497.169 177.276C498.481 177.5 499.768 177.738 500.98 177.98C506.478 179.077 510.721 180.273 510.721 180.273Z" fill="black"></path><path opacity="0.2" d="M499.229 196.73C498.26 200.441 499.367 217.377 503.242 221.553C503.77 216.131 504.475 210.469 505.406 204.681L499.229 196.73Z" fill="black"></path><path d="M492.505 150.696C490.513 157.956 488.066 171.348 492.855 176.648C488.554 180.33 482.978 184.54 474.205 184.196C465.434 183.852 467.409 177.949 469.956 174.945C478.318 173.594 478.56 167.482 477.554 161.651L492.505 150.696Z" fill="#FF9F75"></path><path d="M473.982 182.948L472.389 184.026L478.202 185.718L476.704 183.027L473.982 182.948Z" fill="#3DB2FF"></path><path d="M471.788 182.382L472.389 184.026L466.552 185.718L466.946 182.596L471.788 182.382Z" fill="#3DB2FF"></path><path d="M496.345 176.092L494.048 174.939C493.301 174.564 492.41 174.635 491.739 175.133C489.327 176.925 482.91 181.153 473.982 182.948C478.595 185.15 477.454 191.056 477.454 191.056C477.454 191.056 492.107 186.223 496.812 177.475C497.081 176.974 496.853 176.347 496.345 176.092Z" fill="white"></path><path d="M467.395 174.571L470.763 174.064C471.154 174.005 471.421 174.442 471.193 174.765C470.016 176.433 468.063 180.122 471.787 182.383C467.174 184.586 465.739 189.974 465.739 189.974C465.739 189.974 459.734 183.493 466.735 174.945C466.899 174.745 467.139 174.609 467.395 174.571Z" fill="white"></path><path opacity="0.2" d="M486.41 155.167L477.561 161.646C477.804 163.027 477.969 164.42 477.966 165.763C481.138 165.544 485.706 162.419 486.283 159.157C486.572 157.53 486.62 155.95 486.41 155.167Z" fill="black"></path><path d="M466.882 135.809C467.286 139.312 470.65 142.334 472.828 143.089L475.538 127.823C469.446 123.529 466.314 130.884 466.882 135.809Z" fill="#263238"></path><path d="M495.556 140.018C493.8 149.885 493.275 155.75 487.668 160.273C479.234 167.076 467.491 161.111 466.263 150.918C465.157 141.742 468.214 127.146 478.397 124.312C488.43 121.52 497.312 130.15 495.556 140.018Z" fill="#FF9F75"></path><path d="M493.681 146.671C489.11 149.1 487.097 143.641 487.058 141.429C486.996 137.902 488.523 134.037 490.342 132.621C481.518 132.57 464.062 132.185 468.465 123.78C472.868 115.374 481.686 116.336 488.334 120.932C491.847 123.36 503.207 121.246 500.391 127.799C506.315 130.945 501.177 142.688 493.681 146.671Z" fill="#254150"></path><path d="M499.423 127.257C499.423 127.257 501.368 127.438 503.778 125.776C503.083 128.897 499.923 128.97 499.923 128.97L499.423 127.257Z" fill="#325060"></path><path d="M499.267 148.134C498.076 150.559 495.875 152.208 493.762 152.892C490.583 153.919 489.854 151.004 490.626 147.935C491.321 145.172 492.817 141.411 496.062 141.719C499.257 142.023 500.63 145.36 499.267 148.134Z" fill="#FF9F75"></path><path d="M435.204 372.352C439.308 341.804 446.964 265.589 446.964 265.589L482.449 266.92C482.449 266.92 465.713 343.085 459.655 373.966C453.597 404.847 436.75 479.386 436.75 479.386L420.759 473.33C420.759 473.33 430.933 404.115 435.204 372.352Z" fill="#374B55"></path><path opacity="0.2" d="M469.2 287.455C471.415 288.008 474.912 289.368 477.089 291.494C473.742 306.893 469.363 327.162 465.602 345.028C463.035 329.551 462.959 300.351 469.2 287.455Z" fill="black"></path><path d="M466.111 266.308C466.111 266.308 473.64 348.986 477.089 378.375C480.866 410.558 485.581 478.008 485.581 478.008H504.078C504.078 478.008 504.845 418.353 502.44 386.85C499.701 350.965 500.94 267.617 500.94 267.617L466.111 266.308Z" fill="#374B55"></path><path d="M483.124 478.408H504.904L505.362 471.9L481.044 471.477L483.124 478.408Z" fill="#3DB2FF"></path><path d="M418.61 472.94L437.663 480.166L439.998 474.01L418.822 465.609L418.61 472.94Z" fill="#3DB2FF"></path><path d="M480.162 141.059C480.069 141.868 479.565 142.474 479.035 142.413C478.506 142.353 478.154 141.647 478.247 140.838C478.339 140.029 478.843 139.422 479.373 139.484C479.902 139.544 480.256 140.249 480.162 141.059Z" fill="#263238"></path><path d="M471.015 140.004C470.922 140.814 470.417 141.42 469.889 141.359C469.36 141.299 469.007 140.593 469.1 139.784C469.193 138.975 469.698 138.368 470.227 138.429C470.755 138.491 471.108 139.195 471.015 140.004Z" fill="#263238"></path><path d="M473.877 140.743C473.877 140.743 471.499 145.199 469.214 147.218C470.491 148.719 472.996 148.389 472.996 148.389L473.877 140.743Z" fill="#D2815E"></path><path d="M476.158 150.947C479.284 150.886 480.958 148.914 481.035 148.822C481.119 148.72 481.105 148.569 481.003 148.485C480.902 148.401 480.751 148.415 480.667 148.515C480.648 148.538 478.693 150.827 475.152 150.419C475.02 150.405 474.902 150.499 474.887 150.629C474.871 150.761 474.966 150.879 475.096 150.895C475.467 150.938 475.82 150.954 476.158 150.947Z" fill="#263238"></path><path d="M483.323 138.429C483.402 138.428 483.483 138.406 483.557 138.363C483.784 138.229 483.859 137.936 483.725 137.708C482.381 135.429 480.176 135.305 480.082 135.301C479.818 135.289 479.595 135.494 479.583 135.758C479.571 136.021 479.775 136.244 480.037 136.257C480.11 136.261 481.828 136.376 482.902 138.195C482.992 138.349 483.156 138.433 483.323 138.429Z" fill="#263238"></path><path d="M467.437 136.405C467.592 136.401 467.742 136.324 467.831 136.183C468.966 134.401 470.687 134.345 470.76 134.343C471.023 134.337 471.234 134.12 471.229 133.857C471.225 133.595 471.011 133.384 470.746 133.387C470.651 133.391 468.445 133.437 467.023 135.669C466.881 135.892 466.948 136.187 467.169 136.33C467.254 136.383 467.347 136.406 467.437 136.405Z" fill="#263238"></path><path d="M486.523 492.263C487.457 492.263 488.475 492.068 489.184 491.9C489.279 491.877 489.354 491.801 489.373 491.705C489.394 491.61 489.355 491.515 489.275 491.464C488.918 491.234 485.76 489.233 484.615 489.807C484.438 489.896 484.216 490.086 484.172 490.484C484.111 491.019 484.257 491.444 484.603 491.748C485.042 492.132 485.755 492.263 486.523 492.263ZM488.507 491.564C486.775 491.908 485.46 491.845 484.93 491.382C484.697 491.178 484.606 490.895 484.648 490.514C484.669 490.328 484.747 490.265 484.813 490.233C485.409 489.935 487.222 490.798 488.507 491.564Z" fill="#3DB2FF"></path><path d="M489.128 491.907C489.174 491.907 489.22 491.894 489.261 491.868C489.337 491.82 489.383 491.737 489.38 491.649C489.377 491.526 489.28 488.612 488.154 487.652C487.861 487.402 487.523 487.299 487.15 487.345C486.575 487.414 486.408 487.768 486.358 487.972C486.088 489.098 487.999 491.31 489.016 491.878C489.05 491.897 489.088 491.907 489.128 491.907ZM487.293 487.814C487.489 487.814 487.667 487.882 487.832 488.023C488.554 488.639 488.792 490.337 488.868 491.188C487.868 490.399 486.664 488.728 486.824 488.062C486.838 488.002 486.872 487.859 487.184 487.821C487.22 487.816 487.257 487.814 487.293 487.814Z" fill="#3DB2FF"></path><path d="M419.728 487.787C419.817 487.79 419.9 487.743 419.945 487.663C419.994 487.574 419.981 487.464 419.914 487.388C419.569 487.003 416.503 483.64 415.114 483.843C414.846 483.883 414.64 484.04 414.519 484.298C414.316 484.731 414.319 485.151 414.525 485.545C415.213 486.855 418.06 487.51 419.696 487.783C419.706 487.786 419.717 487.787 419.728 487.787ZM415.276 484.313C416.082 484.337 417.843 485.902 419.069 487.183C416.853 486.739 415.333 486.059 414.947 485.323C414.811 485.065 414.812 484.796 414.951 484.502C415.004 484.389 415.074 484.333 415.182 484.317C415.211 484.313 415.243 484.311 415.276 484.313Z" fill="#3DB2FF"></path><path d="M419.728 487.787C419.751 487.788 419.774 487.786 419.797 487.779C419.879 487.757 419.944 487.693 419.965 487.611C419.996 487.499 420.706 484.859 419.879 483.418C419.627 482.978 419.257 482.691 418.784 482.564C418.144 482.393 417.849 482.637 417.714 482.873C417.136 483.875 418.62 486.773 419.565 487.717C419.61 487.761 419.668 487.786 419.728 487.787ZM418.414 482.986C418.48 482.988 418.56 482.999 418.661 483.026C419.011 483.12 419.274 483.326 419.464 483.655C420.008 484.603 419.766 486.252 419.606 487.039C418.708 485.9 417.781 483.712 418.129 483.111C418.149 483.075 418.205 482.98 418.414 482.986Z" fill="#3DB2FF"></path><path d="M499.617 194.549C502.646 200.792 505.734 207.233 508.727 213.575C510.212 216.765 511.701 219.947 513.107 223.141L515.2 227.93L516.199 230.325L516.45 230.925L516.625 231.37C516.748 231.654 516.828 231.944 516.935 232.231C517.653 234.533 517.847 236.954 517.331 239.566C516.859 242.177 515.712 244.916 514.15 247.589C512.584 250.263 510.613 252.879 508.407 255.362C507.312 256.613 506.162 257.842 504.955 259.019C504.352 259.607 503.737 260.186 503.111 260.748C502.511 261.31 501.83 261.912 501.296 262.375L505.319 268.802C507.189 267.851 508.75 266.918 510.376 265.842C511.978 264.787 513.55 263.671 515.072 262.467C518.099 260.042 520.962 257.296 523.498 254.078C526.021 250.864 528.238 247.133 529.591 242.788C530.926 238.47 531.267 233.482 530.174 228.826C530.029 228.254 529.9 227.669 529.722 227.107L529.257 225.611L528.402 222.953C527.808 221.201 527.22 219.439 526.569 217.718C525.302 214.252 523.977 210.829 522.551 207.457C519.733 200.674 516.683 194.132 513.236 187.562L499.617 194.549Z" fill="#D2815E"></path><path d="M510.718 180.274C519.932 183.16 528.993 214.401 528.993 214.401L507.674 223.732C507.674 223.732 500.777 208.634 496.812 196.802C492.493 183.915 499.557 176.779 510.718 180.274Z" fill="#3DB2FF"></path><path opacity="0.2" d="M510.718 180.274C519.932 183.16 528.993 214.401 528.993 214.401L507.674 223.732C507.674 223.732 500.777 208.634 496.812 196.802C492.493 183.915 499.557 176.779 510.718 180.274Z" fill="black"></path><path d="M503.55 260.393L494.733 265.635L503.308 274.172C503.308 274.172 510.757 268.443 508.535 263.954L503.55 260.393Z" fill="#FF9F75"></path><path d="M488.846 273.992L497.69 280.188L503.308 274.172L494.733 265.635L488.846 273.992Z" fill="#FF9F75"></path><path d="M62.2566 258.123L62.6775 263.937L61.4734 264.024L61.0526 258.21L62.2566 258.123Z" fill="#3DB2FF"></path><path d="M60.6247 236.154L61.8463 253.006L60.6422 253.094L59.4206 236.242L60.6247 236.154Z" fill="#3DB2FF"></path><path d="M93.6772 425.67H389.071C398.097 425.67 404.953 418.285 404.305 409.259L388.677 191.217C388.031 182.192 380.116 174.806 371.09 174.806H75.6958C66.6701 174.806 59.814 182.19 60.4616 191.217L76.0901 409.259C76.7378 418.285 84.6516 425.67 93.6772 425.67Z" fill="#3DB2FF"></path><path d="M162.39 501.983H258.272L275.362 383.502H179.481L162.39 501.983Z" fill="#3DB2FF"></path><path d="M177.615 494.923H281.334L283.394 501.983H179.675L177.615 494.923Z" fill="#3DB2FF"></path><path d="M174.419 440.54L267.872 435.434L275.362 383.502H182.646L174.419 440.54Z" fill="#263238"></path><path d="M97.0119 425.67H392.406C401.432 425.67 408.288 418.285 407.64 409.259L392.012 191.217C391.365 182.192 383.45 174.806 374.424 174.806H79.0304C70.0047 174.806 63.1486 182.19 63.7962 191.217L79.4248 409.259C80.0724 418.285 87.9862 425.67 97.0119 425.67Z" fill="#263238"></path><path d="M64.5176 193.36L73.4966 318.439L72.3466 318.521L63.3676 193.443L64.5176 193.36Z" fill="white"></path><path d="M74.2732 329.315L77.3778 372.624L76.2279 372.707L73.1232 329.398L74.2732 329.315Z" fill="white"></path><path d="M97.6366 421.59H391.196C398.222 421.59 403.558 415.842 403.055 408.816L387.489 191.661C386.985 184.635 380.825 178.887 373.8 178.887H80.2401C73.2139 178.887 67.8786 184.635 68.3815 191.661L83.9473 408.816C84.4514 415.841 90.6117 421.59 97.6366 421.59Z" fill="white"></path><path opacity="0.2" d="M97.6366 421.59H391.196C398.222 421.59 403.558 415.842 403.055 408.816L387.489 191.661C386.985 184.635 380.825 178.887 373.8 178.887H80.2401C73.2139 178.887 67.8786 184.635 68.3815 191.661L83.9473 408.816C84.4514 415.841 90.6117 421.59 97.6366 421.59Z" fill="#3DB2FF"></path><path opacity="0.5" d="M315.896 411.965H384.455C387.848 411.965 390.427 409.187 390.183 405.794L375.052 194.685C374.808 191.291 371.833 188.514 368.438 188.514H299.88C296.487 188.514 293.908 191.291 294.151 194.685L309.282 405.794C309.526 409.187 312.502 411.965 315.896 411.965Z" fill="white"></path><path opacity="0.4" d="M318.55 218.273H354.033C357.091 218.273 359.413 215.771 359.194 212.713L358.804 207.273C358.585 204.216 355.904 201.714 352.847 201.714H317.364C314.307 201.714 311.984 204.216 312.203 207.273L312.593 212.713C312.812 215.771 315.493 218.273 318.55 218.273Z" fill="#3DB2FF"></path><path d="M341.111 303.668H395.281C400.615 303.668 404.667 299.304 404.284 293.97L400.4 239.8C400.018 234.466 395.341 230.101 390.007 230.101H335.837C330.503 230.101 326.451 234.466 326.834 239.8L330.718 293.97C331.1 299.304 335.777 303.668 341.111 303.668Z" fill="#3DB2FF"></path><path d="M333.344 259.255C335.378 259.255 337.16 260.918 337.306 262.951L337.869 270.817C338.015 272.85 336.47 274.513 334.438 274.513H328.939C328.432 274.513 327.992 274.103 327.956 273.597L326.994 260.173C326.957 259.666 327.339 259.256 327.845 259.256H333.344V259.255Z" fill="white"></path><path d="M354.246 243.886H388.391C389.206 243.886 389.825 243.219 389.767 242.404C389.709 241.588 388.994 240.921 388.179 240.921H354.033C353.218 240.921 352.599 241.588 352.657 242.404C352.716 243.22 353.432 243.886 354.246 243.886Z" fill="white"></path><path d="M354.787 251.429H388.933C389.748 251.429 390.367 250.762 390.309 249.947C390.251 249.132 389.536 248.465 388.72 248.465H354.575C353.76 248.465 353.141 249.132 353.199 249.947C353.257 250.764 353.972 251.429 354.787 251.429Z" fill="white"></path><path d="M367.126 258.974H389.473C390.288 258.974 390.907 258.307 390.849 257.492C390.791 256.677 390.076 256.01 389.261 256.01H366.913C366.098 256.01 365.48 256.677 365.537 257.492C365.597 258.307 366.31 258.974 367.126 258.974Z" fill="white"></path><path opacity="0.5" d="M354.158 294.915H387.192C390.679 294.915 393.327 292.063 393.078 288.575L391.834 271.22C391.585 267.733 388.527 264.88 385.04 264.88H352.005C348.518 264.88 345.87 267.733 346.12 271.22L347.363 288.575C347.613 292.063 350.67 294.915 354.158 294.915Z" fill="white"></path><path opacity="0.4" d="M323.315 323.957H364.418C365.931 323.957 367.079 322.72 366.97 321.208C366.862 319.696 365.536 318.46 364.024 318.46H322.921C321.409 318.46 320.261 319.697 320.369 321.208C320.478 322.72 321.803 323.957 323.315 323.957Z" fill="#3DB2FF"></path><path opacity="0.8" d="M331.599 334.746H357.682C359.194 334.746 360.342 333.508 360.233 331.997C360.125 330.485 358.799 329.249 357.287 329.249H331.205C329.693 329.249 328.545 330.486 328.653 331.997C328.762 333.51 330.087 334.746 331.599 334.746Z" fill="white"></path><path opacity="0.4" d="M325.45 353.729H366.553C368.065 353.729 369.213 352.492 369.105 350.981C368.996 349.469 367.671 348.232 366.159 348.232H325.056C323.543 348.232 322.395 349.47 322.504 350.981C322.612 352.493 323.938 353.729 325.45 353.729Z" fill="#3DB2FF"></path><path opacity="0.8" d="M333.733 364.518H359.815C361.327 364.518 362.475 363.281 362.367 361.77C362.258 360.258 360.933 359.021 359.421 359.021H333.338C331.826 359.021 330.678 360.259 330.787 361.77C330.896 363.282 332.222 364.518 333.733 364.518Z" fill="white"></path><path opacity="0.4" d="M327.583 383.502H368.686C370.199 383.502 371.347 382.265 371.238 380.753C371.13 379.241 369.804 378.005 368.292 378.005H327.189C325.677 378.005 324.529 379.242 324.637 380.753C324.746 382.266 326.071 383.502 327.583 383.502Z" fill="#3DB2FF"></path><path opacity="0.8" d="M335.867 394.291H361.95C363.462 394.291 364.61 393.053 364.501 391.542C364.393 390.03 363.068 388.794 361.555 388.794H335.473C333.961 388.794 332.813 390.031 332.921 391.542C333.03 393.055 334.355 394.291 335.867 394.291Z" fill="white"></path><path opacity="0.5" d="M94.4515 350.061C92.6691 347.342 88.5855 348.492 88.8111 351.639L92.7656 406.815C92.9694 409.658 95.1148 411.967 97.5522 411.967H296.344C298.782 411.967 300.597 409.658 300.393 406.815L298.044 374.034C297.726 369.612 293.228 366.429 289.091 367.718C277.887 371.21 268.287 369.159 259.365 364.735C240.281 355.261 224.315 334.93 202.375 334.93C201.535 334.93 200.706 334.952 199.901 335.005C167.266 336.974 157.324 377.509 132.041 377.509C124.569 377.509 117.748 374.284 111.809 369.686C104.534 364.059 98.5941 356.379 94.4515 350.061Z" fill="#3DB2FF"></path><path opacity="0.5" d="M90.327 372.793L92.7655 406.814C92.9694 409.656 95.1148 411.966 97.5522 411.966H296.344C298.782 411.966 300.597 409.656 300.393 406.814L295.547 339.208C295.216 334.577 289.147 332.629 286.69 336.376C280.348 346.052 270.588 358.55 259.365 364.734C255.063 367.098 250.557 368.534 245.937 368.534C229.874 368.534 216.214 349.481 199.901 335.003C189.897 326.125 178.898 318.96 165.741 318.96C138.276 318.96 134.227 363.584 111.809 369.684C107.487 370.865 102.487 370.61 96.5005 368.321C93.2925 367.098 90.0858 369.44 90.327 372.793Z" fill="#3DB2FF"></path><g opacity="0.8"><path d="M89.3526 359.605C89.4623 359.605 89.5576 359.557 89.642 359.484C89.6782 359.448 89.7144 359.4 89.7264 359.352C89.7506 359.304 89.7626 359.243 89.7626 359.195C89.7626 359.074 89.7144 358.978 89.6408 358.906C89.4961 358.749 89.2187 358.737 89.0619 358.906C88.9775 358.979 88.9401 359.086 88.9401 359.195C88.9401 359.243 88.9522 359.304 88.9655 359.352C88.9896 359.4 89.0258 359.448 89.0619 359.484C89.1355 359.557 89.244 359.605 89.3526 359.605Z" fill="white"></path><path d="M282.638 387.86C282.866 387.86 283.048 387.681 283.048 387.45C283.048 387.233 282.867 387.052 282.638 387.052V387.04C282.408 387.04 282.228 387.233 282.228 387.45C282.228 387.68 282.408 387.874 282.638 387.874C282.638 387.874 282.638 387.874 282.638 387.86ZM286.775 387.633C286.775 387.633 286.775 387.633 286.763 387.633C286.991 387.62 287.161 387.415 287.137 387.186C287.112 386.957 286.909 386.8 286.678 386.825C286.45 386.849 286.294 387.054 286.317 387.271C286.342 387.488 286.522 387.645 286.727 387.645C286.739 387.645 286.752 387.645 286.775 387.633ZM278.972 387.271C278.996 387.042 278.839 386.837 278.61 386.812C278.381 386.787 278.176 386.944 278.152 387.174C278.127 387.402 278.283 387.607 278.514 387.633C278.526 387.633 278.549 387.633 278.562 387.633C278.767 387.633 278.948 387.476 278.972 387.271ZM290.851 387.004C291.069 386.956 291.213 386.739 291.178 386.511C291.13 386.293 290.911 386.148 290.683 386.184C290.466 386.232 290.322 386.449 290.357 386.679C290.405 386.872 290.575 387.004 290.768 387.004C290.791 387.004 290.827 387.004 290.851 387.004ZM274.944 386.595C275.004 386.366 274.87 386.149 274.642 386.089C274.424 386.041 274.208 386.173 274.148 386.39C274.088 386.607 274.232 386.837 274.449 386.897C274.449 386.897 274.449 386.897 274.449 386.885C274.486 386.897 274.522 386.897 274.546 386.897C274.739 386.897 274.908 386.776 274.944 386.595ZM143.044 386.764C143.272 386.764 143.454 386.583 143.454 386.353C143.454 386.124 143.261 385.943 143.044 385.943C142.813 385.943 142.634 386.124 142.634 386.353C142.635 386.583 142.815 386.764 143.044 386.764ZM139.365 386.185C139.39 385.956 139.221 385.751 139.002 385.739C138.774 385.703 138.569 385.872 138.544 386.101C138.52 386.33 138.689 386.535 138.918 386.559C138.93 386.559 138.942 386.559 138.953 386.559C139.162 386.558 139.341 386.401 139.365 386.185ZM147.168 386.511C147.385 386.486 147.554 386.282 147.518 386.051C147.493 385.822 147.289 385.667 147.06 385.69C146.831 385.726 146.674 385.931 146.698 386.148C146.733 386.366 146.903 386.522 147.108 386.522C147.132 386.523 147.144 386.523 147.168 386.511ZM294.855 386.016C295.072 385.955 295.205 385.727 295.144 385.51C295.071 385.292 294.855 385.16 294.625 385.221C294.408 385.293 294.288 385.51 294.347 385.739C294.395 385.92 294.564 386.029 294.745 386.029C294.784 386.029 294.819 386.029 294.855 386.016ZM135.313 385.619C135.362 385.389 135.217 385.172 134.988 385.136C134.769 385.088 134.553 385.233 134.505 385.462C134.457 385.679 134.602 385.895 134.831 385.943C134.856 385.943 134.879 385.955 134.904 385.955C135.097 385.955 135.277 385.811 135.313 385.619ZM151.222 385.763C151.451 385.715 151.583 385.497 151.523 385.269C151.475 385.05 151.257 384.919 151.029 384.967C150.81 385.016 150.679 385.245 150.727 385.462C150.775 385.653 150.944 385.775 151.125 385.775C151.16 385.775 151.196 385.775 151.222 385.763ZM271.036 385.426C271.121 385.208 271.011 384.967 270.795 384.895C270.59 384.812 270.349 384.919 270.266 385.124C270.192 385.341 270.29 385.582 270.506 385.653C270.554 385.679 270.602 385.69 270.651 385.69C270.819 385.691 270.976 385.582 271.036 385.426ZM131.323 384.714C131.383 384.485 131.261 384.256 131.033 384.194C130.815 384.134 130.587 384.268 130.527 384.484C130.466 384.702 130.599 384.93 130.815 384.99C130.851 385.003 130.888 385.016 130.925 385.016C131.104 385.016 131.274 384.894 131.323 384.714ZM155.176 384.569C155.394 384.496 155.503 384.256 155.429 384.051C155.346 383.832 155.116 383.724 154.899 383.797C154.68 383.881 154.572 384.111 154.645 384.327C154.706 384.496 154.873 384.592 155.043 384.592C155.093 384.592 155.141 384.592 155.176 384.569ZM267.286 383.797C267.394 383.604 267.31 383.351 267.106 383.241C266.901 383.146 266.66 383.229 266.551 383.434C266.455 383.627 266.526 383.881 266.731 383.977C266.791 384.013 266.853 384.025 266.924 384.025C267.069 384.027 267.213 383.941 267.286 383.797ZM127.403 383.508C127.486 383.29 127.367 383.062 127.162 382.988L127.15 382.976C126.944 382.904 126.704 383.024 126.63 383.229C126.558 383.448 126.666 383.688 126.883 383.76C126.932 383.772 126.968 383.784 127.016 383.784C127.185 383.784 127.342 383.677 127.403 383.508ZM158.987 383.001C159.192 382.917 159.289 382.664 159.192 382.459C159.096 382.254 158.854 382.169 158.649 382.254C158.432 382.35 158.348 382.591 158.444 382.809C158.517 382.953 158.663 383.05 158.818 383.05C158.878 383.05 158.939 383.036 158.987 383.001ZM123.579 382.061C123.663 381.856 123.567 381.615 123.351 381.53C123.146 381.434 122.905 381.53 122.82 381.748C122.724 381.953 122.82 382.195 123.039 382.291C123.087 382.315 123.147 382.315 123.195 382.315C123.362 382.314 123.507 382.218 123.579 382.061ZM263.716 381.82C263.838 381.627 263.776 381.361 263.585 381.241C263.392 381.119 263.138 381.179 263.017 381.372C262.896 381.565 262.956 381.818 263.149 381.94C263.21 381.988 263.294 382.013 263.366 382.013C263.499 382.013 263.633 381.94 263.716 381.82ZM162.665 381.156C162.87 381.048 162.943 380.794 162.835 380.589C162.727 380.397 162.472 380.323 162.267 380.433C162.076 380.541 162.002 380.782 162.111 380.987C162.184 381.119 162.329 381.205 162.472 381.205C162.534 381.205 162.605 381.179 162.665 381.156ZM119.828 380.409C119.925 380.204 119.84 379.962 119.635 379.866C119.43 379.769 119.177 379.854 119.08 380.059C118.984 380.264 119.08 380.505 119.286 380.602C119.286 380.602 119.286 380.602 119.273 380.614C119.334 380.638 119.394 380.65 119.453 380.65C119.612 380.65 119.756 380.565 119.828 380.409ZM260.316 379.552C260.448 379.359 260.4 379.106 260.22 378.975C260.039 378.842 259.774 378.878 259.641 379.058C259.51 379.239 259.557 379.504 259.737 379.637C259.811 379.685 259.894 379.72 259.979 379.72C260.111 379.72 260.231 379.661 260.316 379.552ZM166.223 379.094C166.223 379.094 166.223 379.094 166.223 379.082C166.416 378.973 166.476 378.719 166.356 378.527C166.247 378.322 165.994 378.261 165.801 378.383C165.596 378.503 165.534 378.756 165.656 378.949C165.741 379.082 165.873 379.154 166.006 379.154C166.078 379.154 166.163 379.13 166.223 379.094ZM116.162 378.575C116.271 378.383 116.198 378.129 115.993 378.021C115.8 377.911 115.547 377.995 115.437 378.19C115.329 378.395 115.402 378.636 115.607 378.756C115.667 378.782 115.739 378.805 115.8 378.805C115.946 378.805 116.09 378.719 116.162 378.575ZM257.035 377.08C257.18 376.899 257.157 376.646 256.975 376.501C256.795 376.356 256.54 376.393 256.396 376.563C256.251 376.742 256.286 377.008 256.456 377.152C256.539 377.213 256.625 377.237 256.721 377.237C256.842 377.237 256.962 377.189 257.035 377.08ZM169.696 376.899C169.696 376.899 169.696 376.899 169.696 376.887C169.889 376.766 169.938 376.513 169.817 376.32C169.684 376.127 169.431 376.079 169.238 376.2C169.058 376.32 168.997 376.586 169.117 376.768C169.201 376.899 169.334 376.959 169.467 376.959C169.552 376.958 169.624 376.935 169.696 376.899ZM112.581 376.598C112.702 376.393 112.63 376.151 112.437 376.031C112.244 375.922 111.99 375.983 111.869 376.176C111.76 376.369 111.82 376.622 112.013 376.742C112.086 376.779 112.158 376.803 112.232 376.803C112.363 376.803 112.508 376.73 112.581 376.598ZM173.109 374.62C173.29 374.487 173.35 374.234 173.218 374.041C173.086 373.861 172.833 373.813 172.639 373.932C172.458 374.065 172.41 374.318 172.53 374.511C172.614 374.632 172.747 374.692 172.88 374.692C172.953 374.692 173.037 374.668 173.109 374.62ZM109.083 374.475C109.203 374.282 109.143 374.029 108.95 373.896C108.758 373.776 108.504 373.836 108.383 374.029C108.263 374.222 108.323 374.475 108.516 374.596C108.576 374.644 108.647 374.668 108.733 374.668C108.867 374.668 108.998 374.594 109.083 374.475ZM253.863 374.498C254.008 374.329 253.985 374.065 253.815 373.92C253.634 373.776 253.369 373.8 253.224 373.969C253.08 374.149 253.103 374.403 253.285 374.546C253.358 374.62 253.454 374.643 253.551 374.643C253.658 374.643 253.78 374.594 253.863 374.498ZM105.647 372.231C105.778 372.039 105.73 371.784 105.55 371.652C105.357 371.519 105.104 371.567 104.971 371.76C104.851 371.941 104.887 372.207 105.08 372.327C105.152 372.375 105.237 372.401 105.309 372.401C105.442 372.401 105.573 372.34 105.647 372.231ZM176.499 372.327C176.691 372.196 176.739 371.942 176.608 371.76C176.486 371.567 176.234 371.519 176.04 371.64C175.848 371.771 175.8 372.024 175.931 372.217C176.004 372.339 176.136 372.398 176.269 372.398C176.341 372.401 176.426 372.377 176.499 372.327ZM250.717 371.87C250.873 371.701 250.848 371.437 250.668 371.291C250.498 371.147 250.234 371.169 250.089 371.339C249.945 371.519 249.969 371.772 250.138 371.917C250.222 371.991 250.307 372.014 250.403 372.014C250.522 372.015 250.643 371.967 250.717 371.87ZM179.899 370.061C180.092 369.93 180.152 369.675 180.021 369.494C179.899 369.301 179.635 369.241 179.453 369.372C179.261 369.494 179.213 369.748 179.332 369.941C179.405 370.061 179.537 370.12 179.67 370.12C179.754 370.12 179.827 370.109 179.899 370.061ZM102.293 369.868C102.438 369.687 102.389 369.435 102.209 369.301C102.029 369.169 101.762 369.205 101.631 369.386C101.498 369.567 101.546 369.832 101.727 369.963C101.8 370.012 101.884 370.037 101.967 370.037C102.088 370.037 102.221 369.989 102.293 369.868ZM247.568 369.253C247.712 369.084 247.688 368.819 247.507 368.675C247.327 368.531 247.073 368.566 246.929 368.736C246.784 368.915 246.808 369.182 246.989 369.313C247.062 369.387 247.159 369.41 247.255 369.41C247.363 369.41 247.483 369.362 247.568 369.253ZM183.337 367.854C183.53 367.734 183.591 367.48 183.469 367.287C183.348 367.094 183.095 367.034 182.902 367.155C182.709 367.275 182.649 367.529 182.769 367.723C182.854 367.854 182.988 367.928 183.119 367.928C183.191 367.926 183.276 367.902 183.337 367.854ZM99.0139 367.42C99.1574 367.239 99.1224 366.974 98.9403 366.841C98.7606 366.696 98.5073 366.733 98.3614 366.915C98.2287 367.094 98.2649 367.348 98.4338 367.492C98.4338 367.492 98.4338 367.492 98.4458 367.492C98.5182 367.553 98.6026 367.577 98.687 367.577C98.8197 367.577 98.9403 367.516 99.0139 367.42ZM244.36 366.72C244.492 366.54 244.456 366.274 244.275 366.142C244.096 366.01 243.842 366.045 243.698 366.226C243.565 366.406 243.601 366.659 243.782 366.805C243.854 366.853 243.939 366.889 244.022 366.889C244.155 366.889 244.275 366.829 244.36 366.72ZM186.847 365.768C187.039 365.659 187.112 365.406 186.99 365.2C186.882 365.008 186.629 364.934 186.436 365.056C186.231 365.165 186.159 365.418 186.279 365.611C186.352 365.742 186.497 365.828 186.641 365.828C186.701 365.828 186.773 365.803 186.847 365.768ZM95.8168 364.863C95.9615 364.693 95.9373 364.429 95.7564 364.284C95.5755 364.14 95.3223 364.164 95.1776 364.345C95.0329 364.515 95.057 364.779 95.2258 364.924C95.3102 364.984 95.4067 365.02 95.4923 365.02C95.6117 365.02 95.7323 364.972 95.8168 364.863ZM241.031 364.333C241.163 364.14 241.116 363.886 240.923 363.754C240.73 363.632 240.476 363.681 240.344 363.874C240.223 364.055 240.271 364.321 240.466 364.441C240.538 364.489 240.609 364.514 240.695 364.514C240.826 364.514 240.959 364.441 241.031 364.333ZM190.427 363.826C190.62 363.73 190.705 363.476 190.596 363.271C190.5 363.066 190.247 362.995 190.042 363.09C189.849 363.2 189.764 363.453 189.862 363.658C189.934 363.79 190.09 363.876 190.236 363.876C190.295 363.874 190.368 363.862 190.427 363.826ZM92.6824 362.222C92.8259 362.053 92.8138 361.789 92.6462 361.643H92.6341C92.4641 361.499 92.212 361.511 92.0552 361.678C91.9105 361.848 91.9346 362.112 92.1035 362.257C92.177 362.329 92.2723 362.366 92.3688 362.366C92.4882 362.367 92.5967 362.319 92.6824 362.222ZM237.57 362.15C237.691 361.957 237.618 361.704 237.413 361.582C237.22 361.473 236.967 361.547 236.858 361.74C236.75 361.945 236.81 362.185 237.015 362.307C237.015 362.307 237.015 362.307 237.003 362.307C237.076 362.343 237.148 362.355 237.208 362.355C237.353 362.355 237.499 362.281 237.57 362.15ZM194.094 362.076C194.299 361.98 194.395 361.74 194.299 361.533C194.214 361.328 193.961 361.232 193.756 361.328C193.551 361.413 193.454 361.655 193.551 361.871C193.611 362.016 193.768 362.112 193.925 362.112C193.986 362.114 194.035 362.102 194.094 362.076ZM197.856 360.546C198.073 360.472 198.182 360.232 198.096 360.015C198.024 359.81 197.783 359.702 197.567 359.774C197.362 359.858 197.253 360.089 197.326 360.305C197.386 360.473 197.543 360.57 197.712 360.57C197.76 360.569 197.809 360.569 197.856 360.546ZM233.952 360.256C234.036 360.051 233.952 359.798 233.747 359.714C233.542 359.617 233.289 359.702 233.192 359.919C233.108 360.124 233.192 360.365 233.409 360.461C233.458 360.487 233.518 360.498 233.579 360.498C233.735 360.498 233.881 360.413 233.952 360.256ZM201.716 359.279C201.934 359.206 202.053 358.99 201.993 358.76C201.933 358.543 201.691 358.423 201.474 358.484C201.256 358.544 201.137 358.773 201.197 359.002C201.257 359.171 201.414 359.292 201.595 359.292C201.631 359.292 201.667 359.292 201.716 359.279ZM230.166 358.713C230.239 358.496 230.118 358.266 229.9 358.194C229.683 358.122 229.454 358.242 229.381 358.459C229.309 358.678 229.429 358.906 229.647 358.979C229.683 358.991 229.731 359.003 229.779 359.003C229.948 359.002 230.105 358.894 230.166 358.713ZM205.648 358.278C205.865 358.23 206.01 358.012 205.962 357.796C205.914 357.568 205.697 357.422 205.467 357.483C205.25 357.519 205.106 357.736 205.154 357.964C205.19 358.157 205.371 358.291 205.564 358.291C205.587 358.291 205.611 358.291 205.648 358.278ZM226.247 357.591C226.295 357.362 226.15 357.145 225.921 357.097C225.704 357.048 225.487 357.193 225.44 357.41C225.392 357.639 225.523 357.856 225.754 357.905C225.778 357.905 225.814 357.917 225.837 357.917C226.029 357.915 226.197 357.784 226.247 357.591ZM209.639 357.579C209.856 357.543 210.025 357.338 209.989 357.107C209.965 356.878 209.748 356.723 209.53 356.758H209.518C209.3 356.783 209.143 356.999 209.169 357.229C209.204 357.422 209.374 357.579 209.579 357.579C209.603 357.579 209.615 357.579 209.639 357.579ZM222.218 356.892C222.243 356.664 222.074 356.469 221.856 356.445C221.628 356.409 221.423 356.578 221.398 356.807C221.373 357.036 221.542 357.23 221.771 357.267C221.783 357.267 221.796 357.267 221.806 357.267C222.013 357.265 222.193 357.107 222.218 356.892ZM213.68 357.156C213.68 357.156 213.68 357.156 213.667 357.156C213.897 357.144 214.077 356.951 214.053 356.723C214.041 356.494 213.848 356.325 213.619 356.337C213.39 356.349 213.221 356.554 213.234 356.783C213.246 357 213.426 357.169 213.644 357.169C213.655 357.169 213.667 357.156 213.68 357.156ZM218.141 356.626C218.155 356.397 217.962 356.216 217.731 356.216C217.514 356.203 217.321 356.396 217.321 356.626C217.321 356.854 217.502 357.036 217.731 357.036C217.96 357.036 218.141 356.854 218.141 356.626Z" fill="white"></path><path d="M298.787 384.726C298.835 384.726 298.895 384.714 298.943 384.69C298.992 384.666 299.04 384.642 299.076 384.593C299.112 384.558 299.148 384.521 299.16 384.462C299.185 384.414 299.195 384.365 299.195 384.305C299.195 384.195 299.147 384.1 299.075 384.016C299.039 383.98 298.99 383.943 298.942 383.931C298.846 383.883 298.725 383.883 298.629 383.931C298.568 383.943 298.532 383.98 298.496 384.016C298.413 384.1 298.375 384.195 298.375 384.305C298.375 384.365 298.375 384.414 298.399 384.462C298.424 384.522 298.446 384.558 298.495 384.593C298.531 384.642 298.579 384.667 298.627 384.69C298.678 384.714 298.726 384.726 298.787 384.726Z" fill="white"></path></g><path d="M232.656 261.228L235.472 258.194C240.47 262.859 247.123 265.741 254.242 265.741C266.168 265.741 275.622 257.639 277.774 246.638L281.998 247.747L285.857 248.762C284.722 254.529 282.068 259.782 278.153 264C265.912 277.185 244.215 277.185 230.084 264L232.656 261.228Z" fill="white"></path><path d="M226.638 215.931L230.323 219.37L232.868 221.745C228.537 226.401 226.108 232.847 226.618 239.965C227.128 247.083 230.473 253.53 235.472 258.194L233.266 260.57L230.082 264C223.251 257.625 219.049 248.98 218.403 239.965C217.759 230.959 220.72 222.304 226.638 215.931Z" fill="#3DB2FF"></path><path d="M226.638 215.931C238.878 202.754 260.577 202.754 274.706 215.931C283.89 224.509 288.152 237.049 285.857 248.762L281.084 247.507L277.776 246.638C278.187 244.512 278.328 242.267 278.163 239.965C277.142 225.737 264.776 214.197 250.548 214.197C243.43 214.197 237.199 217.079 232.868 221.744L229.607 218.701L226.638 215.931Z" fill="#FFB830"></path><path d="M192 261.229L188.749 258.195C193.078 253.53 195.5 247.084 194.99 239.966C194.135 228.04 185.314 218.006 174.102 215.065L174.915 210.921L175.658 207.135C181.536 208.684 187.006 211.715 191.526 215.932C205.657 229.118 207.213 250.815 194.972 264.001L192 261.229Z" fill="white"></path><path d="M146.9 263.999L150.093 260.56L152.297 258.185C157.288 262.85 163.941 265.741 171.059 265.741C178.177 265.741 184.417 262.859 188.747 258.194L191.293 260.57L194.968 263.999C189.05 270.374 180.662 273.955 171.648 273.955C162.644 273.956 153.732 270.374 146.9 263.999Z" fill="#3DB2FF"></path><path d="M146.9 263.999C132.779 250.813 131.224 229.116 143.455 215.931C151.419 207.362 163.718 203.999 175.656 207.134L174.739 211.818L174.102 215.065C171.935 214.502 169.67 214.199 167.366 214.199C153.138 214.199 142.425 225.738 143.445 239.966C143.955 247.085 147.3 253.523 152.299 258.187L149.474 261.229L146.9 263.999Z" fill="#FFB830"></path><path opacity="0.3" d="M89.9411 209.006C89.2513 209.006 88.6229 209.272 88.1719 209.757C87.7184 210.244 87.4954 210.896 87.546 211.59L89.0366 232.393C89.1427 233.876 90.485 235.129 91.966 235.129H112.768C113.458 235.129 114.086 234.861 114.537 234.378C114.991 233.89 115.213 233.239 115.163 232.545L113.673 211.742C113.567 210.259 112.224 209.006 110.743 209.006H89.9411ZM89.9411 207.942H110.743C112.791 207.942 114.588 209.618 114.735 211.666L116.226 232.469C116.373 234.518 114.817 236.193 112.768 236.193H91.966C89.917 236.193 88.1213 234.516 87.9741 232.469L86.4835 211.666C86.3364 209.618 87.8921 207.942 89.9411 207.942Z" fill="#3DB2FF"></path><path opacity="0.3" d="M92.5062 244.801C91.8164 244.801 91.1881 245.069 90.7371 245.552C90.2836 246.04 90.0617 246.69 90.1111 247.384L91.6017 268.187C91.7079 269.67 93.0502 270.923 94.5311 270.923H115.333C116.023 270.923 116.652 270.657 117.103 270.172C117.556 269.684 117.778 269.034 117.729 268.34L116.238 247.538C116.132 246.054 114.79 244.801 113.309 244.801H92.5062ZM92.5062 243.736H113.309C115.356 243.736 117.153 245.413 117.299 247.46L118.791 268.263C118.938 270.312 117.382 271.987 115.333 271.987H94.5311C92.4833 271.987 90.6864 270.31 90.5393 268.263L89.0487 247.46C88.9015 245.413 90.4585 243.736 92.5062 243.736Z" fill="#3DB2FF"></path><path d="M122.961 359.905C122.378 359.905 121.848 360.128 121.471 360.534C121.092 360.94 120.906 361.489 120.949 362.077C121.04 363.358 122.156 364.401 123.437 364.401C124.02 364.401 124.55 364.178 124.927 363.774C125.306 363.367 125.492 362.819 125.449 362.231C125.356 360.947 124.241 359.905 122.961 359.905ZM122.961 358.84C124.791 358.84 126.379 360.323 126.511 362.152C126.642 363.982 125.265 365.464 123.437 365.464C121.608 365.464 120.019 363.982 119.887 362.152C119.756 360.324 121.132 358.84 122.961 358.84Z" fill="#3DB2FF"></path><path d="M122.696 358.859L123.227 358.821L123.15 357.76L122.62 357.798L122.696 358.859Z" fill="#3DB2FF"></path><path d="M122.464 355.619L122.995 355.582L122.838 353.404L122.308 353.441L122.464 355.619ZM122.152 351.264L122.682 351.227L122.525 349.048L121.994 349.085L122.152 351.264ZM121.84 346.907L122.37 346.87L122.214 344.692L121.684 344.729L121.84 346.907ZM121.529 342.552L122.059 342.515L121.902 340.336L121.372 340.373L121.529 342.552ZM121.216 338.196L121.746 338.159L121.589 335.981L121.06 336.018L121.216 338.196ZM120.903 333.84L121.432 333.803L121.277 331.624L120.747 331.661L120.903 333.84ZM120.59 329.484L121.12 329.447L120.964 327.269L120.435 327.306L120.59 329.484ZM120.278 325.129L120.809 325.092L120.653 322.913L120.124 322.95L120.278 325.129ZM119.967 320.772L120.496 320.735L120.34 318.557L119.809 318.594L119.967 320.772ZM119.655 316.417L120.185 316.38L120.028 314.2L119.499 314.238L119.655 316.417ZM119.342 312.061L119.873 312.024L119.716 309.846L119.185 309.883L119.342 312.061Z" fill="#3DB2FF"></path><path d="M119.493 306.593L119.568 307.654L119.038 307.692L118.963 306.631L119.493 306.593Z" fill="#3DB2FF"></path><path d="M96.7405 307.203H287.708C288.785 307.203 289.774 306.779 290.492 306.008C291.212 305.235 291.564 304.216 291.485 303.134L290.544 289.988C290.387 287.79 288.47 286 286.272 286H95.3029C94.226 286 93.2371 286.424 92.5207 287.193C91.8007 287.966 91.4474 288.987 91.5258 290.07L92.4676 303.216C92.6256 305.413 94.5432 307.203 96.7405 307.203ZM286.271 287.155C287.877 287.155 289.277 288.462 289.393 290.07L290.335 303.216C290.389 303.975 290.144 304.687 289.646 305.222C289.151 305.755 288.462 306.049 287.708 306.049H96.7405C95.1341 306.049 93.7339 304.742 93.617 303.134L92.6751 289.988C92.6208 289.229 92.8656 288.515 93.3649 287.981C93.8606 287.449 94.548 287.155 95.3018 287.155H286.271Z" fill="#3DB2FF"></path><path opacity="0.8" fill-rule="evenodd" clip-rule="evenodd" d="M100.841 294.476H281.865C282.849 294.476 283.596 293.672 283.526 292.688C283.456 291.704 282.592 290.899 281.608 290.899H100.583C99.5987 290.899 98.8522 291.704 98.9221 292.688C98.9933 293.671 99.8568 294.476 100.841 294.476Z" fill="white"></path><path opacity="0.8" fill-rule="evenodd" clip-rule="evenodd" d="M131.009 302.02H282.407C283.391 302.02 284.137 301.214 284.067 300.231C283.997 299.247 283.134 298.443 282.15 298.443H130.753C129.769 298.443 129.023 299.248 129.093 300.231C129.163 301.214 130.025 302.02 131.009 302.02Z" fill="white"></path></svg>