<svg xmlns="http://www.w3.org/2000/svg" width="80" height="81" viewBox="0 0 80 81" fill="none"><path d="M39.6133 7.19008L39.9933 7.16675L40.3867 7.19008L40.5833 7.21675L40.7867 7.26008L41.1567 7.37341C41.4121 7.46784 41.655 7.59322 41.88 7.74675L42.2267 8.02008L43.0767 8.74675C49.801 14.332 58.2995 17.3311 67.04 17.2034L68.18 17.1701C68.9253 17.1361 69.6605 17.3531 70.2678 17.7864C70.8752 18.2197 71.3196 18.8443 71.53 19.5601C73.168 25.132 73.6692 30.9763 73.0039 36.7458C72.3386 42.5153 70.5203 48.0921 67.6571 53.145C64.7939 58.1979 60.9443 62.6236 56.3368 66.1593C51.7294 69.695 46.4583 72.2685 40.8367 73.7267C40.288 73.869 39.712 73.869 39.1633 73.7267C33.5414 72.2688 28.2699 69.6956 23.6621 66.1601C19.0543 62.6246 15.2043 58.1989 12.3407 53.146C9.47722 48.0931 7.65866 42.5161 6.99314 36.7464C6.32762 30.9768 6.82872 25.1322 8.46666 19.5601C8.67703 18.8443 9.12146 18.2197 9.72882 17.7864C10.3362 17.3531 11.0713 17.1361 11.8167 17.1701C20.9415 17.5872 29.8935 14.5834 36.92 8.74675L37.7967 7.99675L38.1167 7.74675C38.3416 7.59322 38.5845 7.46784 38.84 7.37341L39.2133 7.26008C39.344 7.22877 39.4798 7.2054 39.6133 7.19008Z" fill="#3DB2FF"></path></svg>