<svg xmlns="http://www.w3.org/2000/svg" width="80" height="81" viewBox="0 0 80 81" fill="none"><path d="M40 58.5C37.9888 58.5004 36.0512 57.7433 34.5731 56.3793C33.095 55.0154 32.1849 53.1448 32.024 51.14C26.6887 49.2515 22.1922 45.5389 19.3281 40.6574C16.464 35.776 15.4165 30.0397 16.3705 24.4611C17.3245 18.8824 20.2187 13.8202 24.5422 10.1679C28.8656 6.51567 34.3404 4.50824 40 4.5C46.0196 4.49913 51.8197 6.76035 56.2503 10.8353C60.6809 14.9103 63.4184 20.5014 63.92 26.5C63.9367 26.7602 63.8991 27.021 63.8096 27.2659C63.7201 27.5108 63.5806 27.7344 63.4001 27.9225C63.2195 28.1106 63.0018 28.259 62.7608 28.3585C62.5197 28.4579 62.2607 28.5061 62 28.5C61.4642 28.4866 60.9526 28.2744 60.5645 27.9048C60.1764 27.5352 59.9395 27.0345 59.9 26.5C59.5437 22.9633 58.2514 19.5855 56.1559 16.7143C54.0605 13.8431 51.2377 11.5822 47.9781 10.1643C44.7186 8.74654 41.14 8.22305 37.6109 8.64778C34.0819 9.0725 30.7297 10.4301 27.8996 12.5808C25.0695 14.7315 22.8638 17.5976 21.5094 20.884C20.155 24.1704 19.701 27.7584 20.194 31.2786C20.6871 34.7988 22.1094 38.124 24.3145 40.9119C26.5197 43.6998 29.428 45.8496 32.74 47.14C33.3427 45.8378 34.2844 44.7217 35.4667 43.9085C36.6489 43.0954 38.0281 42.6152 39.4597 42.5183C40.8913 42.4213 42.3227 42.7112 43.6037 43.3576C44.8848 44.0039 45.9685 44.9829 46.7412 46.1919C47.5139 47.401 47.9471 48.7956 47.9956 50.2297C48.0441 51.6638 47.706 53.0845 47.0167 54.343C46.3274 55.6015 45.3124 56.6514 44.0779 57.3828C42.8434 58.1141 41.4349 58.5 40 58.5ZM20.036 48.5H20.4C22.7614 50.8165 25.5147 52.6962 28.532 54.052C29.4188 56.9778 31.3888 59.4548 34.0399 60.9773C36.691 62.4999 39.8232 62.9532 42.7972 62.2446C45.7712 61.5361 48.3626 59.7192 50.0424 57.1649C51.7222 54.6105 52.3637 51.5113 51.836 48.5H60C62.1217 48.5 64.1566 49.3429 65.6569 50.8431C67.1571 52.3434 68 54.3783 68 56.5C68 63.264 64.668 68.364 59.46 71.688C54.332 74.956 47.42 76.5 40 76.5C32.58 76.5 25.668 74.956 20.54 71.688C15.332 68.368 12 63.26 12 56.5C12 52.048 15.612 48.5 20.036 48.5ZM56 28.5C56.0009 31.2066 55.3151 33.8691 54.007 36.2385C52.6988 38.6079 50.8109 40.6068 48.52 42.048C47.4043 40.9235 46.077 40.0311 44.6147 39.4222C43.1524 38.8132 41.584 38.4998 40 38.5C38.416 38.4998 36.8476 38.8132 35.3853 39.4222C33.923 40.0311 32.5957 40.9235 31.48 42.048C28.4417 40.1373 26.134 37.2605 24.928 33.88C24.3127 32.1531 23.9988 30.3333 24 28.5C24 24.2565 25.6857 20.1869 28.6863 17.1863C31.6869 14.1857 35.7565 12.5 40 12.5C44.2435 12.5 48.3131 14.1857 51.3137 17.1863C54.3143 20.1869 56 24.2565 56 28.5Z" fill="#3DB2FF"></path></svg>