<svg xmlns="http://www.w3.org/2000/svg" width="80" height="81" viewBox="0 0 80 81" fill="none"><path d="M20 73.8333C18.1667 73.8333 16.5978 73.181 15.2933 71.8766C13.9889 70.5721 13.3356 69.0021 13.3333 67.1666V33.8333C13.3333 31.9999 13.9867 30.431 15.2933 29.1266C16.6 27.8221 18.1689 27.1688 20 27.1666H23.3333V20.4999C23.3333 15.8888 24.9589 11.9588 28.21 8.70992C31.4611 5.46103 35.3911 3.83548 40 3.83325C44.6089 3.83103 48.54 5.45659 51.7933 8.70992C55.0467 11.9633 56.6711 15.8933 56.6667 20.4999V27.1666H60C61.8333 27.1666 63.4033 27.8199 64.71 29.1266C66.0167 30.4333 66.6689 32.0021 66.6667 33.8333V67.1666C66.6667 68.9999 66.0145 70.5699 64.71 71.8766C63.4056 73.1833 61.8356 73.8355 60 73.8333H20ZM40 57.1666C41.8333 57.1666 43.4033 56.5144 44.71 55.2099C46.0167 53.9055 46.6689 52.3355 46.6667 50.4999C46.6645 48.6644 46.0122 47.0955 44.71 45.7933C43.4078 44.491 41.8378 43.8377 40 43.8333C38.1622 43.8288 36.5933 44.4821 35.2933 45.7933C33.9933 47.1044 33.34 48.6733 33.3333 50.4999C33.3267 52.3266 33.98 53.8966 35.2933 55.2099C36.6067 56.5233 38.1756 57.1755 40 57.1666ZM30 27.1666H50V20.4999C50 17.7221 49.0278 15.361 47.0833 13.4166C45.1389 11.4721 42.7778 10.4999 40 10.4999C37.2222 10.4999 34.8611 11.4721 32.9167 13.4166C30.9722 15.361 30 17.7221 30 20.4999V27.1666Z" fill="#3DB2FF"></path></svg>