<svg xmlns="http://www.w3.org/2000/svg" width="80" height="81" viewBox="0 0 80 81" fill="none"><g clip-path="url(#clip0_89_6403)"><path fill-rule="evenodd" clip-rule="evenodd" d="M49.7943 0.728516C50.9309 0.728516 52.021 1.18004 52.8248 1.98377C53.6285 2.7875 54.08 3.87759 54.08 5.01423V11.8028H59.9943C62.2676 11.8028 64.4478 12.7059 66.0552 14.3133C67.6627 15.9208 68.5657 18.1009 68.5657 20.3742V26.2942H75.5314C76.6681 26.2942 77.7582 26.7458 78.5619 27.5495C79.3656 28.3532 79.8172 29.4433 79.8172 30.5799C79.8172 31.7166 79.3656 32.8067 78.5619 33.6104C77.7582 34.4141 76.6681 34.8657 75.5314 34.8657H68.56V45.8942H75.5314C76.6681 45.8942 77.7582 46.3458 78.5619 47.1495C79.3656 47.9532 79.8172 49.0433 79.8172 50.1799C79.8172 51.3166 79.3656 52.4067 78.5619 53.2104C77.7582 54.0141 76.6681 54.4657 75.5314 54.4657H68.56V60.3685C68.56 62.6418 67.657 64.822 66.0495 66.4294C64.442 68.0369 62.2619 68.9399 59.9886 68.9399H54.0857V75.9857C54.0857 77.1223 53.6342 78.2124 52.8305 79.0161C52.0267 79.8198 50.9366 80.2714 49.8 80.2714C48.6634 80.2714 47.5733 79.8198 46.7695 79.0161C45.9658 78.2124 45.5143 77.1223 45.5143 75.9857V68.9399H34.4857V75.9857C34.4857 77.1223 34.0342 78.2124 33.2305 79.0161C32.4267 79.8198 31.3366 80.2714 30.2 80.2714C29.0634 80.2714 27.9733 79.8198 27.1695 79.0161C26.3658 78.2124 25.9143 77.1223 25.9143 75.9857V68.9399H20C17.7267 68.9399 15.5465 68.0369 13.9391 66.4294C12.3316 64.822 11.4286 62.6418 11.4286 60.3685V54.4599H4.46858C3.33193 54.4599 2.24185 54.0084 1.43812 53.2047C0.634391 52.401 0.182861 51.3109 0.182861 50.1742C0.182861 49.0376 0.634391 47.9475 1.43812 47.1438C2.24185 46.34 3.33193 45.8885 4.46858 45.8885H11.4286V34.8599H4.46858C3.33193 34.8599 2.24185 34.4084 1.43812 33.6047C0.634391 32.801 0.182861 31.7109 0.182861 30.5742C0.182861 29.4376 0.634391 28.3475 1.43812 27.5438C2.24185 26.74 3.33193 26.2885 4.46858 26.2885H11.4286V20.3799C11.4286 18.1067 12.3316 15.9265 13.9391 14.319C15.5465 12.7116 17.7267 11.8085 20 11.8085H25.9143V5.01423C25.9143 3.87759 26.3658 2.7875 27.1695 1.98377C27.9733 1.18004 29.0634 0.728516 30.2 0.728516C31.3366 0.728516 32.4267 1.18004 33.2305 1.98377C34.0342 2.7875 34.4857 3.87759 34.4857 5.01423V11.8028H45.5143V5.01423C45.5143 3.87759 45.9658 2.7875 46.7695 1.98377C47.5733 1.18004 48.6634 0.728516 49.8 0.728516H49.7943ZM35.6743 26.6028C36.68 22.0085 43.2171 21.9799 44.2629 26.5685L44.3086 26.7685L44.4 27.1685C44.9371 29.4526 46.1332 31.5285 47.8399 33.1387C49.5466 34.7489 51.6886 35.8223 54 36.2257C58.8 37.0599 58.8 43.9399 54 44.7742C51.6751 45.1803 49.5219 46.2641 47.8109 47.8898C46.0999 49.5154 44.9073 51.6103 44.3829 53.9114L44.2629 54.4314C43.2171 59.0199 36.68 58.9857 35.6743 54.3971L35.5714 53.9457C35.0661 51.6372 33.8848 49.5316 32.1781 47.8971C30.4715 46.2627 28.3167 45.1735 25.9886 44.7685C21.2 43.9342 21.2 37.0657 25.9886 36.2314C28.3086 35.8275 30.4566 34.7441 32.1604 33.1186C33.8643 31.493 35.0475 29.3984 35.56 27.0999L35.6343 26.7742L35.6743 26.6028Z" fill="#3DB2FF"></path></g><defs><clipPath id="clip0_89_6403"><rect width="80" height="80" fill="white" transform="translate(0 0.5)"></rect></clipPath></defs></svg>