<svg xmlns="http://www.w3.org/2000/svg" width="80" height="81" viewBox="0 0 80 81" fill="none"><path d="M66.6667 46.3334C66.6667 45.6704 66.4033 45.0345 65.9344 44.5656C65.4656 44.0968 64.8297 43.8334 64.1667 43.8334H54.1667C53.5036 43.8334 52.8677 44.0968 52.3989 44.5656C51.9301 45.0345 51.6667 45.6704 51.6667 46.3334V68.8334H46.6667V14.6667C46.6667 12.2401 46.66 10.6667 46.5067 9.51341C46.36 8.43008 46.1233 8.09008 45.9333 7.90008C45.7433 7.71008 45.4033 7.47342 44.32 7.32675C43.1633 7.17342 41.5933 7.16675 39.1667 7.16675C36.74 7.16675 35.1667 7.17342 34.0133 7.32675C32.93 7.47342 32.59 7.71008 32.4 7.90008C32.21 8.09008 31.9733 8.43008 31.8267 9.51341C31.6733 10.6701 31.6667 12.2401 31.6667 14.6667V68.8334H26.6667V29.6667C26.6667 29.0037 26.4033 28.3678 25.9344 27.899C25.4656 27.4301 24.8297 27.1667 24.1667 27.1667H14.1667C13.5036 27.1667 12.8677 27.4301 12.3989 27.899C11.9301 28.3678 11.6667 29.0037 11.6667 29.6667V68.8334H5.83333C5.17029 68.8334 4.5344 69.0968 4.06556 69.5656C3.59672 70.0345 3.33333 70.6704 3.33333 71.3334C3.33333 71.9965 3.59672 72.6323 4.06556 73.1012C4.5344 73.57 5.17029 73.8334 5.83333 73.8334H72.5C73.163 73.8334 73.7989 73.57 74.2678 73.1012C74.7366 72.6323 75 71.9965 75 71.3334C75 70.6704 74.7366 70.0345 74.2678 69.5656C73.7989 69.0968 73.163 68.8334 72.5 68.8334H66.6667V46.3334Z" fill="#3DB2FF"></path></svg>