<svg xmlns="http://www.w3.org/2000/svg" width="80" height="81" viewBox="0 0 80 81" fill="none"><path d="M42 48.5C43.5913 48.5 45.1174 49.1321 46.2426 50.2574C47.3679 51.3826 48 52.9087 48 54.5V56.5C48 64.384 40.56 72.5 28 72.5C15.44 72.5 8 64.384 8 56.5V54.5C8 52.9087 8.63214 51.3826 9.75736 50.2574C10.8826 49.1321 12.4087 48.5 14 48.5H42ZM28 22.5C30.9174 22.5 33.7153 23.6589 35.7782 25.7218C37.8411 27.7847 39 30.5826 39 33.5C39 36.4174 37.8411 39.2153 35.7782 41.2782C33.7153 43.3411 30.9174 44.5 28 44.5C25.0826 44.5 22.2847 43.3411 20.2218 41.2782C18.1589 39.2153 17 36.4174 17 33.5C17 30.5826 18.1589 27.7847 20.2218 25.7218C22.2847 23.6589 25.0826 22.5 28 22.5ZM64 8.5C66.0176 8.50037 67.9606 9.26309 69.4397 10.6353C70.9187 12.0076 71.8247 13.8881 71.976 15.9L72 16.5V24.5C72.0006 26.5183 71.2384 28.4623 69.866 29.9422C68.4937 31.4221 66.6126 32.3286 64.6 32.48L64 32.5H57.996L53.204 38.9C51.084 41.724 46.788 40.58 46.096 37.396L46.028 36.952L46 36.5V32.24L45.688 32.16C44.2495 31.7257 42.9625 30.895 41.9742 29.7631C40.9859 28.6312 40.3364 27.2439 40.1 25.76L40.02 25.096L40 24.5V16.5C39.9994 14.4817 40.7616 12.5377 42.134 11.0578C43.5063 9.57788 45.3874 8.67137 47.4 8.52L48 8.5H64Z" fill="#3DB2FF"></path></svg>