<svg xmlns="http://www.w3.org/2000/svg" width="629" height="590" viewBox="0 0 629 590" fill="none"><path d="M579.727 286.774L592.399 307.202L586.105 311.1C584.269 312.238 583.308 314.323 583.491 316.475C583.59 317.639 583.628 318.81 583.604 319.982C583.56 322.162 584.663 324.204 586.585 325.235L593.071 328.713L581.705 349.907L575.22 346.43C573.356 345.43 571.078 345.532 569.345 346.747C568.296 347.483 567.21 348.155 566.09 348.763C564.226 349.775 563.114 351.771 563.18 353.891L563.414 361.247L539.385 361.994L539.163 354.611C539.099 352.481 537.832 350.583 535.902 349.68C535.339 349.416 534.783 349.136 534.231 348.841C533.68 348.546 533.139 348.236 532.61 347.914C530.798 346.811 528.528 346.803 526.724 347.92L520.422 351.824L507.75 331.395L514.061 327.478C515.892 326.342 516.85 324.258 516.664 322.11C516.563 320.949 516.524 319.78 516.546 318.609C516.587 316.43 515.485 314.393 513.564 313.363L507.077 309.885L518.443 288.692L524.93 292.17C526.85 293.2 529.158 292.991 530.949 291.752C531.912 291.085 532.906 290.473 533.928 289.914C535.82 288.881 537.028 286.932 536.961 284.776L536.733 277.351L560.76 276.603L560.99 283.98C561.057 286.136 562.378 288.012 564.327 288.934C564.862 289.186 565.394 289.455 565.923 289.739C566.446 290.018 566.96 290.311 567.464 290.617C569.318 291.736 571.62 291.798 573.46 290.657L579.727 286.774ZM561.568 303.301C550.98 295.777 536.322 300.201 531.665 312.325C528.494 320.579 531.376 330.169 538.582 335.295C549.166 342.824 563.862 338.388 568.513 326.262C571.679 318.007 568.775 308.423 561.568 303.301Z" fill="#EBEBEB"></path><path d="M52.6864 87.3056C53.7906 86.6688 54.3992 85.4554 54.3338 84.1817C54.3158 83.8363 54.3068 83.4883 54.3068 83.1403C54.3068 82.7872 54.3158 82.438 54.3338 82.0913C54.398 80.8227 53.7932 79.6132 52.6915 78.9789L48.9281 76.8077L56.0004 64.5493L59.7625 66.718C60.8667 67.3548 62.2239 67.2919 63.2909 66.5947C63.8777 66.2108 64.4864 65.8577 65.1155 65.538C66.2467 64.9615 66.9734 63.8187 66.9734 62.5488V58.2153H81.1295V62.5488C81.1295 63.8187 81.8563 64.9615 82.9875 65.538C83.6154 65.8577 84.2253 66.2108 84.8121 66.5947C85.8791 67.2919 87.2362 67.3548 88.3405 66.718L92.1026 64.5493L99.1749 76.8077L95.3961 78.9905C94.2969 79.6247 93.6935 80.8317 93.7577 82.099C93.7756 82.4444 93.7846 82.7924 93.7846 83.1403C93.7846 83.4896 93.7756 83.8363 93.7577 84.1817C93.6922 85.4554 94.3008 86.6675 95.4051 87.3031L99.1736 89.473L92.1013 101.73L88.3495 99.5627C87.2465 98.9246 85.8893 98.9862 84.8223 99.6821C84.233 100.067 83.6205 100.42 82.9888 100.741C81.8563 101.317 81.1282 102.461 81.1282 103.732V108.064H66.9722V103.732C66.9722 102.461 66.2441 101.317 65.1116 100.741C64.4799 100.42 63.8687 100.067 63.2794 99.6821C62.2124 98.9862 60.8552 98.9246 59.7522 99.5627L56.0016 101.73L48.9294 89.473L52.6864 87.3056ZM74.047 94.7374C80.449 94.7374 85.6454 89.5411 85.6454 83.1391C85.6454 76.737 80.449 71.5522 74.047 71.5522C67.645 71.5522 62.4602 76.737 62.4602 83.1391C62.4589 89.5411 67.645 94.7374 74.047 94.7374Z" fill="#EBEBEB"></path><path d="M371.184 409.418C372.198 408.848 372.834 407.706 372.848 406.547C372.851 405.968 372.803 405.392 372.835 404.816C372.849 404.243 372.907 403.651 372.738 403.087C372.589 402.525 372.295 402 371.884 401.585C371.477 401.156 370.934 400.914 370.446 400.616L367.453 398.873L367.472 398.945L374.601 386.72L374.439 386.764L378.372 389.074C379.082 389.436 379.92 389.539 380.701 389.365C381.506 389.202 382.148 388.695 382.795 388.363L383.78 387.807C384.136 387.618 384.466 387.375 384.742 387.08C385.3 386.493 385.655 385.71 385.715 384.893L385.768 380.326L385.471 380.623L399.627 380.761L399.192 380.326L399.156 384.909C399.205 385.778 399.567 386.625 400.156 387.265C400.448 387.588 400.798 387.855 401.178 388.066L402.142 388.636L403.108 389.21C403.478 389.441 403.886 389.618 404.316 389.713C405.173 389.915 406.102 389.813 406.898 389.421L410.884 387.153L410.106 386.944L417.132 399.228L417.36 398.375L413.383 400.663C412.62 401.163 412.056 401.946 411.801 402.805C411.667 403.234 411.614 403.683 411.626 404.129L411.658 405.251L411.635 406.373C411.627 406.816 411.683 407.264 411.817 407.691C412.077 408.544 412.64 409.316 413.397 409.811L417.38 412.093L417.163 411.288L410.147 423.578L410.863 423.385L406.869 421.139C406.086 420.76 405.174 420.668 404.338 420.871C403.918 420.967 403.521 421.143 403.159 421.369L402.192 421.943L401.224 422.514C400.852 422.72 400.509 422.981 400.224 423.296C399.648 423.922 399.294 424.749 399.247 425.597L399.283 430.173L399.628 429.828L385.472 429.968L385.678 430.173L385.625 425.613C385.566 424.818 385.222 424.054 384.676 423.483C384.127 422.891 383.377 422.608 382.749 422.219C382.09 421.88 381.46 421.388 380.682 421.223C379.92 421.048 379.102 421.143 378.404 421.491L374.463 423.779L374.561 423.805L367.441 411.575L367.435 411.598L371.184 409.418ZM371.184 409.418L367.418 411.571L367.404 411.579L367.413 411.593L374.438 423.877L374.472 423.938L374.535 423.902L378.482 421.65C379.146 421.325 379.92 421.242 380.638 421.413C381.363 421.567 381.957 422.055 382.632 422.421C383.28 422.837 383.99 423.124 384.472 423.673C384.964 424.209 385.263 424.914 385.303 425.635L385.265 430.175L385.264 430.379L385.472 430.381L399.628 430.521L399.97 430.525L399.974 430.176L400.025 425.651C400.076 424.984 400.367 424.343 400.828 423.861C401.055 423.617 401.33 423.42 401.624 423.264L402.628 422.699L403.629 422.132C403.913 421.962 404.221 421.833 404.543 421.767C405.185 421.625 405.867 421.711 406.445 422.005L410.339 424.298L410.79 424.564L411.057 424.107L418.186 411.882L418.481 411.374L417.969 411.075L414.069 408.803C413.557 408.461 413.176 407.933 412.999 407.335C412.906 407.037 412.87 406.721 412.878 406.408L412.91 405.255L412.886 404.102C412.88 403.789 412.919 403.475 413.014 403.18C413.196 402.587 413.58 402.071 414.089 401.739L417.986 399.46L418.526 399.144L418.214 398.608L411.094 386.378L410.807 385.884L410.315 386.17L406.409 388.434C405.845 388.718 405.182 388.798 404.559 388.657C404.247 388.59 403.948 388.464 403.672 388.301L402.67 387.731L401.665 387.163C401.38 387.012 401.114 386.819 400.893 386.583C400.445 386.116 400.165 385.494 400.115 384.847L400.064 380.327L400.058 379.888L399.628 379.892L385.472 380.031L385.173 380.033L385.176 380.327L385.213 384.861C385.174 385.561 384.885 386.245 384.407 386.768C383.944 387.298 383.247 387.583 382.588 388.004C381.904 388.378 381.321 388.854 380.62 389.005C379.923 389.174 379.167 389.097 378.518 388.782L374.56 386.559L374.456 386.501L374.398 386.602L367.382 398.893L367.355 398.939L367.401 398.966L370.408 400.685C370.903 400.982 371.441 401.218 371.84 401.633C372.246 402.036 372.537 402.549 372.689 403.102C372.859 403.656 372.807 404.238 372.798 404.816C372.77 405.394 372.821 405.973 372.824 406.548C372.816 407.697 372.194 408.839 371.184 409.418Z" fill="#EBEBEB"></path><path d="M392.545 416.849C395.584 416.87 398.605 415.645 400.804 413.516C403.023 411.408 404.395 408.385 404.461 405.259C404.552 402.14 403.352 398.963 401.137 396.673C398.936 394.369 395.758 393.022 392.551 393.023C389.345 393.018 386.163 394.359 383.96 396.662C381.741 398.952 380.544 402.131 380.633 405.251C380.701 408.378 382.067 411.403 384.283 413.514C386.483 415.645 389.505 416.87 392.545 416.849ZM392.545 416.849C389.504 416.849 386.496 415.574 384.413 413.386C382.319 411.21 381.191 408.204 381.28 405.251C381.348 402.29 382.645 399.438 384.744 397.446C386.827 395.436 389.677 394.286 392.551 394.305C395.425 394.288 398.276 395.439 400.359 397.451C402.461 399.442 403.756 402.297 403.823 405.257C403.909 408.211 402.777 411.216 400.679 413.389C398.593 415.576 395.585 416.849 392.545 416.849Z" fill="#EBEBEB"></path><path d="M602.5 562.09L532.126 561.778L461.751 561.664L321 561.45L180.249 561.663L109.875 561.776L39.4998 562.09L109.875 562.404L180.249 562.517L321 562.731L461.751 562.515L532.126 562.402L602.5 562.09Z" fill="#263238"></path><path d="M51.0082 115.569H263.89V330.737H51.0082V115.569Z" fill="#EBEBEB"></path><path d="M166.007 102.59C158.905 94.2598 146.779 92.2504 134.988 94.6258C123.197 97.0012 109.135 102.942 107.832 122.613C106.774 138.584 111.725 154.162 111.644 171.979C111.563 189.796 91.4734 233.214 123.754 254.396C152.751 273.425 211.527 255.953 213.335 216.782C214.768 185.729 177.937 157.023 174.054 144.726C170.171 132.431 173.791 111.722 166.007 102.59Z" fill="#263238"></path><path d="M171.307 120.117C171.532 129.004 172.808 137.989 176.499 146.382C177.408 148.474 178.699 150.503 180.155 152.275C181.59 154.07 183.105 155.757 184.611 157.439C187.664 160.766 190.688 164.07 193.537 167.502C199.259 174.329 204.242 181.731 207.736 189.824C211.231 197.908 213.104 206.66 213.371 215.555C213.771 211.114 213.574 206.624 212.973 202.177C212.303 197.74 211.128 193.369 209.55 189.136C206.404 180.64 201.305 172.939 195.531 165.954C192.617 162.471 189.513 159.156 186.442 155.869C183.359 152.561 180.236 149.429 178.322 145.544C176.309 141.679 174.941 137.447 173.866 133.169C172.702 128.897 171.935 124.522 171.307 120.117Z" fill="#263238"></path><path d="M108.664 136.032C108.888 145.097 109.457 154.144 109.213 163.144C109.045 167.639 108.8 172.124 108.085 176.537C107.419 180.896 106.115 185.266 105.022 189.685C103.942 194.111 102.955 198.582 102.233 203.107C101.585 207.642 101.196 212.236 101.358 216.834C101.591 221.434 102.387 226.009 103.905 230.37C105.63 234.672 108.198 238.598 111.468 241.848C108.637 238.227 106.377 234.284 105.097 229.988C103.869 225.691 103.318 221.251 103.325 216.793C103.463 207.86 105.284 199.015 107.508 190.25C108.542 185.846 109.85 181.474 110.477 176.848C111.065 172.283 111.291 167.703 111.173 163.145C111.006 154.022 109.939 145.009 108.664 136.032Z" fill="#263238"></path><path d="M155.319 212.251C184.901 244.769 208.941 260.381 232.695 260.381C255.289 260.382 303.543 205.544 307.084 198.308C310.135 192.076 270.522 157.937 264.433 162.178C254.223 169.291 221.214 210.472 217.727 210.671C214.094 210.863 201.374 202.363 170.392 187.852C151.612 179.055 134.829 189.729 155.319 212.251Z" fill="#FF9F75"></path><path d="M302.537 203.723C306.92 198.995 325.091 175.559 328.69 167.905C332.288 160.251 341.046 137.476 335.464 134.127C329.883 130.777 326.786 137.239 326.786 137.239C326.786 137.239 328.961 127.036 323.035 124.176C317.109 121.315 312.622 131.528 312.622 131.528C312.622 131.528 314.091 120.887 307.976 118.457C301.862 116.026 299.069 127.05 299.069 127.05C299.069 127.05 300.867 117.384 294.986 117.501C287.913 117.643 286.612 135.837 282.006 143.988C280.96 145.839 258.135 179.996 258.135 179.996L302.537 203.723Z" fill="#FF9F75"></path><path d="M299.329 126.108C298.34 139.486 295.595 145.168 287.742 155.785C287.588 155.992 287.863 156.268 288.042 156.065C296.678 146.368 301.151 139.738 299.98 126.122C299.922 125.457 299.375 125.471 299.329 126.108Z" fill="#263238"></path><path d="M312.681 130.462C310.44 144.266 307.517 150.456 300.111 162.181C300.005 162.346 300.275 162.541 300.396 162.382C308.624 151.487 312.934 144.771 313.36 130.683C313.379 130.047 312.784 129.831 312.681 130.462Z" fill="#263238"></path><path d="M326.39 137.822C323.257 151.032 320.343 157.955 311.691 168.414C311.487 168.661 311.827 168.982 312.056 168.755C321.914 158.948 325.615 150.333 326.781 137.959C326.86 137.117 326.587 136.991 326.39 137.822Z" fill="#263238"></path><path d="M247.964 183.196C247.964 183.196 248.259 166.391 250.018 159.036C251.777 151.683 268.418 126.687 274.02 129.975C281.254 134.22 274.49 150.541 270.132 158.103C270.132 158.103 286.874 167.906 284.554 180.67C282.233 193.435 247.964 183.196 247.964 183.196Z" fill="#FF9F75"></path><path d="M275.625 131.794C279.428 140.422 273.068 149.979 269.39 157.629C269.11 158.211 269.479 158.641 269.966 158.767C276.708 163.344 284.887 171.765 284.99 180.366C284.993 180.618 285.351 180.649 285.382 180.394C286.526 171.155 279.165 162.224 271.458 157.684C275.354 149.897 281.312 140.033 275.706 131.751C275.675 131.706 275.6 131.738 275.625 131.794Z" fill="#263238"></path><path d="M206.282 201.212L182.557 245.488C182.557 245.488 150.378 214.244 145.247 201.212C140.117 188.18 145.644 178.724 168.538 185.698C191.43 192.672 206.282 201.212 206.282 201.212Z" fill="#FFB830"></path><path d="M177.071 236.238C178.249 233.838 179.273 231.357 180.489 228.971C181.699 226.596 182.935 224.23 184.204 221.887C186.767 217.156 189.326 212.429 192.013 207.768C193.526 205.145 195.113 202.55 196.767 200.014C196.84 199.901 197.053 199.982 196.994 200.116C192.642 209.858 187.363 219.194 182.098 228.465C180.573 231.151 178.832 233.701 177.243 236.343C177.175 236.456 177.016 236.352 177.071 236.238Z" fill="#263238"></path><path d="M145.246 201.216C150.382 214.248 182.559 245.488 182.559 245.488L198.545 215.661L145.811 186.501C142.781 189.711 142.819 195.065 145.246 201.216Z" fill="#263238"></path><path d="M200.878 275.752C200.878 275.752 213.931 306.979 209.314 330.737H65.5469C70.2194 266.155 102.411 210.661 121.421 192.705C136.763 178.215 152.903 179.511 164.129 186.926C166.783 188.679 195.965 229.016 199.125 235.398C211.59 260.578 200.878 275.752 200.878 275.752Z" fill="#FFB830"></path><path d="M163.123 185.024C163.123 185.024 172.143 210.867 166.898 212.218C153.925 215.556 136.526 194.379 135.488 192.231C135.227 191.68 134.08 177.201 133.219 165.941C132.664 158.7 132.235 152.789 132.235 152.789L164.236 163.757L163.207 183.603L163.123 185.024Z" fill="#FF9F75"></path><path d="M164.235 163.756L163.205 183.602C156.694 182.691 142.383 179.153 133.219 165.94C132.664 158.699 132.235 152.788 132.235 152.788L136.248 154.025L164.235 163.756Z" fill="#263238"></path><path d="M188.071 135.99C188.446 146.065 187.447 154.22 184.992 159.633C178.983 172.885 166.445 175.55 161.124 175.742C157.298 175.881 146.182 174.863 138.161 168.755C131.922 164.004 128.159 155.435 126.025 140.373C121.148 105.948 136.894 94.3625 152.42 92.977C167.947 91.5929 186.777 101.245 188.071 135.99Z" fill="#FF9F75"></path><path d="M179.171 128.304C178.357 128.2 177.622 127.967 176.827 127.78C175.93 127.569 175.194 127.494 174.539 126.79C174.187 126.412 174.225 125.656 174.559 125.28C175.338 124.404 176.5 124.39 177.59 124.599C178.774 124.827 179.626 125.306 180.399 126.226C181.148 127.121 180.245 128.441 179.171 128.304Z" fill="#263238"></path><path d="M156.482 129.169C157.296 129.059 158.028 128.821 158.823 128.63C159.719 128.413 160.454 128.333 161.105 127.624C161.454 127.244 161.412 126.488 161.074 126.114C160.289 125.244 159.126 125.236 158.037 125.453C156.856 125.688 156.005 126.172 155.239 127.099C154.499 127.998 155.409 129.313 156.482 129.169Z" fill="#263238"></path><path d="M162.151 137.846C162.128 137.758 161.971 137.967 161.979 138.065C162.168 140.426 161.988 143.161 159.886 144.049C159.821 144.076 159.834 144.196 159.912 144.18C162.506 143.686 162.71 140.052 162.151 137.846Z" fill="#263238"></path><path d="M159.921 135.477C156.103 135.372 156.174 143.014 159.71 143.112C163.191 143.208 163.12 135.566 159.921 135.477Z" fill="#263238"></path><path d="M158.424 135.896C157.76 136.334 157.113 137.103 156.309 137.19C155.378 137.29 154.668 136.497 154.053 135.733C153.989 135.653 153.923 135.721 153.923 135.823C153.914 137.288 154.492 138.784 156.064 138.988C157.498 139.174 158.515 137.868 158.867 136.393C158.932 136.119 158.691 135.719 158.424 135.896Z" fill="#263238"></path><path d="M174.805 136.851C174.823 136.76 174.99 136.963 174.987 137.061C174.915 139.427 175.233 142.152 177.374 142.935C177.441 142.959 177.435 143.077 177.355 143.067C174.741 142.703 174.357 139.082 174.805 136.851Z" fill="#263238"></path><path d="M176.915 134.376C180.722 134.082 181.031 141.718 177.504 141.99C174.033 142.258 173.724 134.622 176.915 134.376Z" fill="#263238"></path><path d="M178.527 134.814C179.148 135.194 179.774 135.905 180.497 135.923C181.334 135.944 181.918 135.094 182.42 134.28C182.473 134.196 182.535 134.258 182.542 134.358C182.641 135.815 182.22 137.356 180.83 137.692C179.561 138.001 178.571 136.786 178.164 135.345C178.088 135.079 178.278 134.661 178.527 134.814Z" fill="#263238"></path><path d="M162.39 156.236C162.937 156.81 163.474 157.593 164.33 157.697C165.151 157.796 166.129 157.46 166.894 157.194C166.97 157.167 167.043 157.249 166.992 157.318C166.345 158.204 165.031 158.726 163.942 158.494C162.878 158.268 162.382 157.323 162.158 156.335C162.127 156.196 162.31 156.152 162.39 156.236Z" fill="#263238"></path><path d="M172.106 147.474C172.106 147.474 172.668 150.998 172.704 152.666C172.707 152.823 172.305 152.905 171.74 152.95C171.713 152.959 171.698 152.971 171.675 152.954C168.741 153.475 165.754 152.52 163.914 150.155C163.796 149.994 164.004 149.818 164.158 149.919C166.39 151.486 168.828 151.852 171.44 151.841C171.548 151.376 170.275 145.837 170.538 145.811C171.449 145.714 173.257 146.296 174.343 146.589C173.385 139.213 171.251 132.05 170.407 124.692C170.382 124.429 170.758 124.343 170.84 124.575C173.607 131.923 174.896 140.389 176.083 147.98C176.238 148.924 172.779 147.744 172.106 147.474Z" fill="#263238"></path><path d="M170.615 152.078C170.615 152.078 169.297 154.18 167.335 155.053C166.612 155.378 165.82 155.545 164.964 155.386C163.207 155.066 163.041 153.489 163.252 152.112C163.422 150.979 163.863 149.98 163.863 149.98C163.863 149.98 166.562 152.141 170.615 152.078Z" fill="#263238"></path><path d="M167.335 155.053C166.612 155.378 165.82 155.545 164.964 155.386C163.207 155.066 163.041 153.489 163.252 152.112C165.113 152.159 167.039 153.271 167.335 155.053Z" fill="#FF98B9"></path><path d="M126.658 137.287C130.442 137.406 141.185 127.944 143.142 109.797C143.142 109.797 140.258 125.972 138.813 128.251C137.369 130.53 144.822 122.924 146.606 108.309C146.606 108.309 154.189 114.908 160.933 117.48C167.678 120.05 171.919 120.371 172.458 119.915C172.998 119.459 163.105 115.322 160.641 111.895C160.641 111.895 178.272 122.133 186.7 123.554C187.675 123.719 186.03 108.549 173.691 98.7871C161.353 89.0236 144.382 91.4683 138.302 96.3565C138.302 96.3565 131.654 96.6916 123.638 105.748C115.619 114.802 122.582 137.158 126.658 137.287Z" fill="#263238"></path><path d="M131.647 142.836C131.647 142.836 124.603 131.622 119.551 134.082C114.499 136.542 119.422 152.535 125.091 154.97C130.759 157.404 133.116 152.202 133.116 152.202L131.647 142.836Z" fill="#FF9F75"></path><path d="M121.076 138.632C120.984 138.619 120.959 138.749 121.038 138.785C125.005 140.625 126.952 144.485 128.252 148.451C127.121 146.893 125.524 145.992 123.445 147.325C123.336 147.394 123.428 147.565 123.544 147.547C125.22 147.274 126.402 147.62 127.458 149.003C128.205 149.983 128.688 151.199 129.202 152.312C129.375 152.684 130.037 152.521 129.92 152.099C129.911 152.068 129.901 152.035 129.892 152.004C130.249 146.847 126.593 139.426 121.076 138.632Z" fill="#263238"></path><path d="M110.229 199.749C96.0021 216.172 56.1198 275.626 65.3672 291.689C74.2396 307.101 94.3547 311.43 105.945 290.741C114.245 275.928 128.29 231.764 131.767 210.589C134.588 193.419 123.382 184.566 110.229 199.749Z" fill="#FF9F75"></path><path d="M123.522 252.389L76.3749 235.057C76.3749 235.057 102.837 198.843 115.027 191.948C127.217 185.053 137.351 189.21 133.631 212.853C129.911 236.495 123.522 252.389 123.522 252.389Z" fill="#FFB830"></path><path d="M84.771 228.339C87.3107 229.171 89.9108 229.84 92.4429 230.712C94.9621 231.578 97.4774 232.473 99.9735 233.404C105.014 235.283 110.053 237.16 115.043 239.172C117.851 240.305 120.641 241.515 123.383 242.801C123.505 242.858 123.455 243.081 123.314 243.039C113.063 240.086 103.082 236.157 93.1696 232.235C90.2973 231.098 87.529 229.728 84.6914 228.523C84.5694 228.471 84.6503 228.299 84.771 228.339Z" fill="#263238"></path><path d="M120.865 251.28C121.795 251.448 122.705 251.803 123.599 252.122C124.893 249.337 127.92 237.089 128.627 233.949C130.04 227.675 131.218 221.35 132.68 215.088C132.722 214.91 133.028 214.953 133.003 215.139C132.559 218.611 132.022 222.076 131.414 225.528C132.057 223.881 132.663 222.219 133.206 220.545C133.236 220.453 133.377 220.495 133.35 220.589C132.763 222.692 132.034 224.724 131.194 226.725C130.693 233.129 124.854 253.549 124.685 253.472C123.74 253.038 121.65 252.041 120.783 251.462C120.683 251.394 120.756 251.26 120.865 251.28Z" fill="#263238"></path><path d="M144.184 130.415L157.598 187.695C158.179 189.378 157.316 190.724 155.671 190.697L130.055 195.914C128.412 195.887 126.604 194.495 126.023 192.812L112.609 135.531C112.028 133.844 112.892 132.501 114.534 132.529L140.15 127.312C141.796 127.339 143.601 128.727 144.184 130.415Z" fill="#A6A6A6"></path><path d="M141.986 130.737L155.4 188.017C155.982 189.701 155.118 191.048 153.473 191.019L127.857 196.236C126.213 196.209 124.407 194.817 123.825 193.134L110.411 135.854C109.83 134.166 110.694 132.823 112.337 132.852L137.953 127.635C139.598 127.663 141.404 129.051 141.986 130.737Z" fill="#DBDBDB"></path><path d="M133.872 133.209C133.88 134.59 135.006 135.703 136.387 135.697C137.768 135.689 138.881 134.565 138.875 133.183C138.867 131.801 137.742 130.688 136.361 130.695C134.979 130.701 133.866 131.827 133.872 133.209Z" fill="#263238"></path><path d="M99.0978 295.924C90.7647 311.383 68.703 302.552 65.3672 291.689C57.5373 266.196 62.3947 223.822 67.0646 200.167C68.5682 192.554 120.288 200.097 119.983 208.39C119.616 218.339 115.435 265.616 99.0978 295.924Z" fill="#FF9F75"></path><path d="M67.636 211.47C67.636 211.47 63.2537 195.103 67.184 177.297C69.9023 164.985 78.8029 138.86 114.578 127.174C123.062 124.402 137.12 126.472 124.905 136.031C116.229 142.822 108.675 144.507 104.348 149.376C104.348 149.376 121.916 154.129 124.359 162.738C125.452 166.585 128.188 177.156 129.145 185.69C129.145 185.69 127.342 186.397 124.929 186.97C124.929 186.97 126.647 197.5 119.983 208.388L67.636 211.47Z" fill="#FF9F75"></path><path d="M71.6549 165.962C76.972 162.038 88.3803 153.909 100.025 150.507C112.96 146.727 138.895 142.93 141.588 152.507C143.561 159.529 133.788 161.85 133.788 161.85C133.788 161.85 144.839 162.54 145.235 169.274C145.595 175.41 137.926 176.752 137.926 176.752C137.926 176.752 144.558 178.323 143.766 184.3C142.814 191.491 129.073 187.017 121.817 193.467C120.188 194.914 71.6549 165.962 71.6549 165.962Z" fill="#FF9F75"></path><path d="M101.74 164.839C107.345 161.968 121.749 158.714 133.589 161.651C133.857 161.717 133.951 161.956 133.693 161.947C119.971 161.482 107.158 163.696 101.775 164.961C101.704 164.978 101.677 164.871 101.74 164.839Z" fill="#263238"></path><path d="M105.936 177.785C111.027 175.805 126.023 173.115 137.918 176.503C138.184 176.578 138.262 176.824 138.004 176.804C123.688 175.728 111.411 176.967 105.963 177.91C105.891 177.921 105.87 177.811 105.936 177.785Z" fill="#263238"></path><path d="M103.826 285.187C104.206 283.936 104.586 282.688 104.998 281.448C105.838 278.92 106.576 276.355 107.323 273.799C108.834 268.632 110.288 263.45 111.555 258.218C114.085 247.774 116.025 237.187 117.324 226.519C117.684 223.571 117.982 220.617 118.31 217.666C118.643 214.693 118.737 211.642 119.291 208.703C119.321 208.543 120.794 206.289 121.388 205.17C122.004 204.011 122.527 202.808 122.991 201.579C123.951 199.042 124.599 196.465 124.935 193.768C124.947 193.667 125.09 193.668 125.095 193.772C125.245 196.515 124.899 200.111 123.966 202.705C123.104 205.109 121.893 207.389 119.983 209.146C120.027 209.54 119.905 214.262 119.748 216.949C119.594 219.609 119.349 222.26 119.051 224.909C118.454 230.226 117.704 235.528 116.771 240.796C114.888 251.432 112.41 262.003 109.13 272.297C109.076 272.465 109.015 272.629 108.962 272.796C108.973 273.181 108.987 273.567 108.987 273.953C108.987 274.902 108.874 275.857 108.756 276.797C108.52 278.683 107.997 280.486 107.386 282.281C107.342 282.409 107.147 282.352 107.184 282.219C107.703 280.383 107.897 278.461 108.11 276.57C108.183 275.919 108.266 275.268 108.347 274.617C107.636 276.702 106.899 278.777 106.16 280.854C105.653 282.282 105.115 283.688 104.527 285.085C103.957 286.439 103.476 287.854 102.784 289.148C102.728 289.252 102.577 289.172 102.603 289.066C102.918 287.751 103.431 286.482 103.826 285.187Z" fill="#263238"></path><path d="M263.89 330.737V296.214L303.113 330.737H263.89Z" fill="#EBEBEB"></path><path d="M465.483 403.901C454.193 453.068 430.815 512.004 420.84 521.568C408.223 533.666 324.725 555.851 320.56 556.302C310.245 557.343 289.586 483.105 300.566 481.518C317.285 479.103 378.07 475.796 381.713 472.055C385.491 468.144 411.146 435.792 437.527 399.238C455.735 373.979 472.489 373.395 465.483 403.901Z" fill="#FF9F75"></path><path d="M328.839 552.3C327.61 552.922 310.164 561.697 299.376 564.824C291.328 567.157 267.98 573.251 264.532 564.645C262.172 558.779 275.481 553.579 284.809 549.692C289.723 547.644 295.78 542.5 294.331 539.34C291.799 533.818 279.148 539.365 270.829 544.199C254.74 553.548 233.31 570.373 223.481 562.212C219.771 559.127 224.084 553.508 230.395 548C220.155 554.42 209.233 559.687 204.975 556.423C202.53 554.563 202.417 552.012 203.778 549.097C200.617 550.125 197.823 549.924 195.875 547.865C192.546 544.381 194.169 539.24 197.81 533.969C196.643 533.847 195.593 533.253 194.788 531.983C187.739 521.237 223.015 490.383 235.217 487.495C271.113 478.961 308.936 480.55 308.936 480.55C323.031 491.817 328.867 552.275 328.839 552.3Z" fill="#FF9F75"></path><path d="M276.056 519.257C267.604 520.581 259.282 523.742 252.115 528.473C243.015 534.478 236.979 541.509 229.344 548.588C229.144 548.774 229.426 549.091 229.628 548.905C233.267 545.539 248.341 532.888 252.235 530.013C259.373 524.744 267.345 521.045 276.088 519.402C276.182 519.384 276.15 519.242 276.056 519.257Z" fill="#263238"></path><path d="M269.368 504.026C259.934 506.605 250.267 509.214 241.511 513.676C231.929 518.559 224.43 526.52 217.058 534.181C212.63 538.782 208.298 543.475 204.085 548.273C203.909 548.475 204.178 548.792 204.369 548.59C211.851 540.676 219.567 532.977 227.518 525.535C234.999 518.533 243.341 513.175 252.924 509.525C258.322 507.468 263.867 505.828 269.405 504.193C269.506 504.163 269.473 503.997 269.368 504.026Z" fill="#263238"></path><path d="M259.29 490.706C250.124 492.589 242.128 494.197 234.012 499.11C223.267 505.612 212.894 516.569 209.255 520.453C205.235 524.744 201.362 529.163 197.556 533.644C197.401 533.827 197.714 534.102 197.875 533.921C206.572 524.124 215.944 514.82 225.836 506.229C230.564 502.124 235.701 498.548 241.47 496.062C247.174 493.604 253.286 492.214 259.302 490.768C259.342 490.759 259.329 490.699 259.29 490.706Z" fill="#263238"></path><path d="M314.712 477.512L340.392 558.858C340.392 558.858 409.914 539.013 422.618 525.309C435.322 511.605 458.769 440.858 465.668 406.567C472.566 372.277 455.226 373.124 439.29 394.745C423.354 416.367 383.681 468.765 381.464 469.903C379.245 471.043 314.712 477.512 314.712 477.512Z" fill="#FFB830"></path><path opacity="0.1" d="M314.712 477.512L340.392 558.858C340.392 558.858 409.914 539.013 422.618 525.309C435.322 511.605 458.769 440.858 465.668 406.567C472.566 372.277 455.226 373.124 439.29 394.745C423.354 416.367 383.681 468.765 381.464 469.903C379.245 471.043 314.712 477.512 314.712 477.512Z" fill="black"></path><path d="M347.061 522.72C343.951 513.13 340.765 503.56 338.009 493.852C336.444 488.337 334.848 482.828 333.335 477.297C333.278 477.088 333.627 476.961 333.704 477.168C337.207 486.671 340.698 496.209 343.765 505.872C346.817 515.485 349.949 525.072 352.877 534.727C354.541 540.216 356.035 545.735 357.364 551.321C357.391 551.432 357.214 551.497 357.17 551.389C353.347 541.996 350.193 532.378 347.061 522.72Z" fill="#263238"></path><path d="M375.455 547.677C376.482 547.318 377.509 546.958 378.536 546.598C384.327 544.531 390.233 542.31 395.793 540.037C396.512 539.755 397.218 539.459 397.912 539.164C399.029 538.702 400.146 538.227 401.224 537.752C401.777 537.521 402.303 537.277 402.842 537.046C403.035 536.956 403.227 536.879 403.42 536.789C403.985 536.532 404.537 536.275 405.089 536.018C407.298 535.004 409.391 533.99 411.342 532.962C411.792 532.731 412.254 532.487 412.691 532.243C416.247 530.317 419.2 528.417 421.268 526.607C421.512 526.388 421.756 526.17 421.974 525.952C422.218 525.733 422.423 525.515 422.616 525.31C435.327 511.609 458.773 440.861 465.668 406.565C465.745 406.167 465.822 405.769 465.9 405.384C465.912 405.294 465.925 405.217 465.938 405.127C466.4 402.521 466.811 399.298 467.145 395.806V395.767C468.108 378.703 460.032 375.916 450.055 383.415C425.081 436.829 386.985 525.027 375.455 547.677Z" fill="#263238"></path><path d="M411.517 561.334L563.066 562.138C562.944 558.88 541.368 463.473 524.217 428.265C502.228 383.121 490.886 379.497 484.112 377.062C475.447 373.948 460.021 375.496 456.355 377.224C452.202 379.16 438.978 402.254 434.24 419.186C424.727 453.19 409.387 559.262 411.517 561.334Z" fill="#EBEBEB"></path><path d="M491.844 380.63C491.844 380.63 472.62 451.953 471.625 456.691C470.179 463.579 460.572 561.772 460.572 561.772L566.18 562.139C566.18 562.139 543.085 471.231 525.973 431.356C507.256 387.742 491.844 380.63 491.844 380.63Z" fill="#FFB830"></path><g opacity="0.1"><path d="M491.844 380.63C491.844 380.63 472.62 451.953 471.625 456.691C470.179 463.579 460.572 561.772 460.572 561.772L566.18 562.139C566.18 562.139 543.085 471.231 525.973 431.356C507.256 387.742 491.844 380.63 491.844 380.63Z" fill="black"></path></g><path d="M454.938 378.331C454.369 380.607 436.605 438.554 435.374 452.989C434.006 469.016 421.858 562.09 421.858 562.09H406.486C406.486 562.09 428.787 428.302 434.917 414.17C447.409 385.374 454.938 378.331 454.938 378.331Z" fill="#FFB830"></path><path opacity="0.1" d="M454.938 378.331C454.369 380.607 436.605 438.554 435.374 452.989C434.006 469.016 421.858 562.09 421.858 562.09H406.486C406.486 562.09 428.787 428.302 434.917 414.17C447.409 385.374 454.938 378.331 454.938 378.331Z" fill="black"></path><path d="M511.784 397.303C537.165 424.487 598.851 527.617 579.277 546.427C559.563 565.37 451.069 539.917 420.555 525.379C411.478 521.055 445.97 464.464 456.639 463.143C465.521 462.042 510.931 482.815 512.244 480.202C513.728 477.25 506.515 455.457 495.591 416.006C482.996 370.518 500.574 385.296 511.784 397.303Z" fill="#FF9F75"></path><path d="M411.545 444.878C389.483 441.805 383.348 444.403 366.107 431.922C354.792 423.733 344.708 427.442 351.162 440.456C361.721 461.741 389.35 471.683 399.922 472.371L411.545 444.878Z" fill="#FF9F75"></path><path d="M470.143 466.115C470.143 466.115 445.355 452.351 422.169 446.75C406.136 442.877 370.313 438.341 336.038 473.686C327.909 482.069 322.27 499.78 340.521 490.91C353.484 484.61 359.801 476.698 368.01 474.406C368.01 474.406 363.512 497.786 372.228 505.602C376.123 509.096 386.978 518.38 396.461 524.405C396.461 524.405 398.328 522.692 400.385 520.186C400.385 520.186 409.216 526.719 425.842 525.135L470.143 466.115Z" fill="#FF9F75"></path><path d="M406.277 445.498C398.611 449.496 382.506 458.239 371.819 469.975C359.949 483.01 340.596 511.318 350.31 519.981C357.432 526.333 365.77 516.176 365.77 516.176C365.77 516.176 360.238 529.563 367.926 533.893C374.932 537.841 380.913 529.595 380.913 529.595C380.913 529.595 378.953 538.292 386.433 540.794C395.431 543.803 398.062 525.081 409.809 520.255C412.446 519.17 406.277 445.498 406.277 445.498Z" fill="#FF9F75"></path><path d="M387.685 480.218C381.091 485.159 368.997 500.223 365.652 515.828C365.577 516.181 365.803 516.429 365.941 516.12C373.273 499.722 383.232 485.931 387.809 480.331C387.868 480.256 387.758 480.163 387.685 480.218Z" fill="#263238"></path><path d="M400.494 492.583C395.243 497.432 383.472 513.515 380.624 529.443C380.56 529.799 380.805 530.031 380.928 529.718C387.884 512.27 396.387 498.551 400.622 492.689C400.68 492.609 400.562 492.52 400.494 492.583Z" fill="#263238"></path><path d="M368.006 474.259C360.817 476.375 356.14 479.904 350.074 484.117C347.072 486.201 344.03 488.242 340.812 489.982C337.882 491.566 333.564 493.96 330.445 491.479C328.709 490.099 328.735 487.586 329.12 485.606C329.554 483.381 331.752 479.272 333.072 477.426C333.139 477.332 332.977 477.213 332.908 477.305C331.691 478.947 329.295 482.665 328.587 484.589C327.946 486.332 327.447 488.356 327.937 490.2C328.994 494.165 333.669 494.685 336.979 493.595C338.959 492.943 340.835 491.89 342.638 490.856C344.382 489.856 346.075 488.774 347.741 487.649C351.159 485.34 354.439 482.837 357.83 480.488C361.555 477.909 364.128 476.646 368.115 474.498C368.249 474.428 368.148 474.218 368.006 474.259Z" fill="#263238"></path><path d="M352.951 499.554C354.81 495.454 364.886 478.381 368.154 474.43C368.237 474.329 368.101 474.198 368.006 474.289C362.403 479.601 353.397 493.71 351.297 498.23C349.224 502.698 346.834 508.408 346.834 513.387C346.833 520.898 351.816 522.322 353.657 522.689C355.855 523.127 358.075 522.666 360.05 521.643C362.247 520.504 364.373 518.143 365.845 516.198C365.922 516.095 365.786 515.955 365.697 516.056C363.095 519.015 358.77 521.936 354.688 521.399C352.918 521.167 351.124 520.36 350.043 518.893C348.772 517.167 348.67 514.898 348.842 512.842C349.23 508.189 351.04 503.766 352.951 499.554Z" fill="#263238"></path><path d="M470.143 466.115L435.374 539.262C435.374 539.262 571.38 569.81 583.116 546.135C594.852 522.461 542.03 429.8 518.229 402.816C490.645 371.545 487.121 382.18 493.2 409.899C499.563 438.919 511.849 480.888 511.849 480.888L470.143 466.115Z" fill="#FFB830"></path><path opacity="0.1" d="M470.143 466.115L435.374 539.262C435.374 539.262 571.38 569.81 583.116 546.135C594.852 522.461 542.03 429.8 518.229 402.816C490.645 371.545 487.121 382.18 493.2 409.899C499.563 438.919 511.849 480.888 511.849 480.888L470.143 466.115Z" fill="black"></path><path d="M553.188 500.362C546.91 495.958 540.199 492.159 533.356 488.711C526.575 485.296 519.46 482.627 512.261 480.247C508.148 478.887 503.984 477.732 499.82 476.545C499.693 476.509 499.643 476.704 499.769 476.743C507.032 479.018 514.129 481.941 521.077 485.036C527.997 488.119 534.85 491.321 541.653 494.657C545.501 496.545 549.258 498.612 553.039 500.628C553.214 500.724 553.347 500.474 553.188 500.362Z" fill="#263238"></path><path d="M470.509 465.903C471.193 466.082 508.386 478.362 509.607 478.931C509.451 478.37 502.78 458.592 501.781 455.697C501.681 455.408 501.596 455.118 501.498 454.829C500.82 453.537 500.135 452.25 499.508 450.932C498.704 449.242 497.913 447.546 497.121 445.851C497.097 445.8 497.172 445.756 497.199 445.807C498.069 447.461 498.939 449.112 499.8 450.771C500.198 451.539 500.569 452.317 500.937 453.098C500.282 451.053 499.653 449.001 499.025 446.941C498.024 443.655 497.129 440.35 496.244 437.033C496.216 436.925 496.375 436.889 496.41 436.991C498.383 442.76 500.538 448.463 502.528 454.224C504.514 459.976 512.171 481.214 512.112 481.197C512.044 481.252 471.146 466.742 470.356 466.412C470.047 466.281 470.171 465.815 470.509 465.903Z" fill="#263238"></path><path d="M467.999 513.618C471.826 505.454 475.59 497.257 479.722 489.234C482.069 484.675 484.392 480.102 486.782 475.567C486.872 475.395 487.178 475.526 487.102 475.707C483.585 484.053 480.038 492.415 476.139 500.6C472.26 508.743 468.449 516.918 464.464 525.012C462.198 529.614 459.802 534.131 457.258 538.592C457.208 538.68 457.053 538.615 457.09 538.519C460.329 530.047 464.145 521.838 467.999 513.618Z" fill="#263238"></path><path d="M433.62 540.407C434.982 538.155 436.701 534.909 438.156 532.716C438.54 532.137 438.987 532.258 438.679 532.865C437.642 534.909 436.783 537.209 435.759 539.306C437.668 539.686 439.585 540.025 441.492 540.424C443.696 540.886 445.9 541.359 448.106 541.813C452.426 542.704 456.755 543.551 461.093 544.352C469.879 545.975 478.697 547.412 487.543 548.662C505.273 551.167 523.141 553.03 541.042 553.684C546.048 553.868 551.063 553.954 556.072 553.884C561.161 553.814 566.659 553.707 570.866 553.174C571 553.158 571.028 553.385 570.893 553.413C566.529 554.311 562.468 554.864 558.025 555.082C553.491 555.306 548.947 555.403 544.407 555.352C535.366 555.249 526.333 554.665 517.331 553.838C499.482 552.198 481.695 549.782 464.045 546.666C459.099 545.793 454.164 544.86 449.24 543.872C446.755 543.372 444.269 542.873 441.795 542.326C439.321 541.78 433.387 540.79 433.62 540.407Z" fill="#263238"></path><path d="M454.908 404.949C463.904 407.43 479.991 394.138 486.558 383.126C487.003 382.369 486.121 374.205 485.52 364.234C485.179 358.181 484.941 351.433 485.168 345.261C485.221 343.994 446.107 353.239 446.107 353.239C446.107 353.239 449.435 366.319 448.972 377.077C448.924 377.976 448.804 378.81 448.613 379.6C448.595 379.716 448.556 379.856 448.541 380.018C447.579 384.801 446.216 402.547 454.908 404.949Z" fill="#FF9F75"></path><path d="M482.783 345.334C480.602 355.704 473.181 380.678 452.505 380.384C451.065 380.366 449.748 380.245 448.551 380.023C448.547 379.85 448.595 379.724 448.617 379.601C448.798 378.802 448.929 377.981 448.984 377.087C449.444 366.307 446.107 353.23 446.107 353.23C446.107 353.23 474.324 346.559 482.783 345.334Z" fill="#263238"></path><path d="M441.443 326.715C441.872 336.192 435.48 344.18 427.165 344.556C418.851 344.932 411.762 337.555 411.333 328.079C410.904 318.601 417.296 310.614 425.611 310.237C433.927 309.861 441.014 317.239 441.443 326.715Z" fill="#455A64"></path><path d="M446.349 327.093C446.827 337.636 439.715 346.522 430.465 346.941C421.215 347.359 413.33 339.152 412.852 328.609C412.375 318.066 419.487 309.18 428.735 308.761C437.987 308.342 445.872 316.55 446.349 327.093Z" fill="#C7C7C7"></path><path d="M480.076 296.072C486.803 308.761 487.227 349.099 479.317 359.643C467.85 374.929 445.317 380.542 431.38 365.899C417.871 351.706 418.25 299.126 427.436 289.157C440.964 274.473 470.138 277.327 480.076 296.072Z" fill="#FF9F75"></path><path d="M446.54 327.258C446.565 327.155 446.75 327.392 446.745 327.503C446.598 330.218 446.887 333.352 449.324 334.309C449.399 334.338 449.388 334.474 449.297 334.46C446.307 333.971 445.965 329.807 446.54 327.258Z" fill="#263238"></path><path d="M449.03 324.476C453.406 324.242 453.552 333.012 449.498 333.229C445.507 333.442 445.362 324.672 449.03 324.476Z" fill="#263238"></path><path d="M431.335 327.593C431.312 327.489 431.125 327.726 431.13 327.836C431.261 330.552 430.954 333.683 428.512 334.626C428.436 334.655 428.446 334.792 428.536 334.777C431.529 334.305 431.894 330.143 431.335 327.593Z" fill="#263238"></path><path d="M428.862 324.796C424.488 324.538 424.29 333.306 428.344 333.546C432.333 333.782 432.528 325.013 428.862 324.796Z" fill="#263238"></path><path d="M452.958 317.472C451.728 317.406 450.604 317.14 449.394 316.95C448.029 316.735 446.919 316.705 445.86 315.725C445.292 315.2 445.263 314.064 445.721 313.464C446.788 312.069 448.526 311.916 450.181 312.107C451.976 312.315 453.305 312.935 454.563 314.228C455.783 315.481 454.58 317.558 452.958 317.472Z" fill="#263238"></path><path d="M424.732 318.46C425.944 318.242 427.026 317.839 428.202 317.499C429.531 317.115 430.627 316.946 431.555 315.842C432.053 315.25 431.94 314.12 431.41 313.581C430.177 312.329 428.435 312.396 426.817 312.793C425.062 313.223 423.82 314.004 422.734 315.444C421.681 316.839 423.133 318.748 424.732 318.46Z" fill="#263238"></path><path d="M451.495 352.427C450.855 353.074 450.22 353.96 449.237 354.06C448.293 354.155 447.177 353.748 446.304 353.426C446.218 353.394 446.133 353.486 446.19 353.567C446.913 354.598 448.407 355.226 449.663 354.985C450.889 354.75 451.48 353.677 451.76 352.547C451.798 352.387 451.59 352.333 451.495 352.427Z" fill="#263238"></path><path d="M448.505 344.341C447.023 346.724 444.81 348.05 442.4 348.56C441.324 348.795 440.189 348.851 439.074 348.768C438.856 348.767 438.636 348.746 438.437 348.705C438.238 348.684 438.06 348.664 437.84 348.623C437.522 348.582 437.343 348.324 437.284 348.024L437.285 348.005C437.285 347.906 437.285 347.825 437.306 347.727C437.306 347.727 437.306 347.727 437.306 347.706L437.307 347.467C437.215 345.377 437.366 342.191 437.366 342.191C436.609 342.587 432.74 344.405 432.784 343.31C433.174 334.255 433.607 324.183 435.908 315.255C435.968 314.956 436.425 315.018 436.405 315.317C436.374 324.034 434.811 332.688 434.64 341.447C435.877 340.953 437.89 340.044 438.984 340.048C439.282 340.129 438.585 346.197 438.7 347.133C438.7 347.133 438.7 347.173 438.72 347.234C442.242 347.624 444.873 346.518 448.246 344.102C448.447 343.943 448.666 344.122 448.505 344.341Z" fill="#263238"></path><path d="M440.29 347.685C440.29 347.685 442.186 350.157 444.742 351.019C445.682 351.34 446.692 351.455 447.744 351.156C449.903 350.55 449.925 348.557 449.498 346.861C449.151 345.465 448.482 344.27 448.482 344.27C448.482 344.27 445.364 347.287 440.29 347.685Z" fill="#263238"></path><path d="M444.742 351.019C445.682 351.34 446.692 351.455 447.744 351.156C449.903 350.55 449.925 348.557 449.498 346.861C447.177 347.137 444.901 348.755 444.742 351.019Z" fill="#FF98B9"></path><path opacity="0.2" d="M485.125 324.562C482.471 324.138 476.144 315.186 473.454 311.627C470.626 307.938 469.215 289.002 468.968 284.685C473.585 287.365 477.491 291.161 480.082 296.066C483.097 301.744 484.823 312.944 485.125 324.562Z" fill="#263238"></path><path d="M436.158 300.414C439.354 303.875 444.114 305.552 448.77 304.646C453.305 303.762 457.729 300.468 459.225 295.998C459.27 295.864 459.477 295.934 459.432 296.067C457.832 300.848 454.126 304.861 448.994 305.733C444.178 306.551 438.908 304.49 435.905 300.641C435.774 300.47 436.008 300.252 436.158 300.414Z" fill="#263238"></path><path d="M449.214 266.276C457.128 266.198 464.528 270.345 467.59 275.641C469.451 278.859 469.819 282.174 469.397 285.572C469.379 285.709 469.097 285.69 469.104 285.551C469.388 280.182 466.549 274.166 460.694 270.611C455.068 267.195 447.717 266.315 441.457 268.917C438.189 270.274 435.576 272.46 434.283 275.06C434.138 275.351 433.54 275.183 433.658 274.886C435.646 269.881 442.05 266.347 449.214 266.276Z" fill="#263238"></path><path d="M403.823 284.878C404.948 280.944 407.562 277.519 410.957 275.265C415.714 272.108 421.216 272.376 426.676 272.756C426.823 272.767 426.809 272.996 426.662 272.986C422.012 272.678 417.278 272.637 413.085 274.953C409.667 276.841 406.852 279.899 405.419 283.548C402.445 291.124 405.772 300.295 413.001 304.083C417.093 306.229 422.085 306.579 426.432 305.022C426.603 304.96 426.737 305.211 426.564 305.279C418.626 308.362 409.061 305.003 405.166 297.327C403.244 293.539 402.648 288.985 403.823 284.878Z" fill="#263238"></path><path d="M482.944 303.842C482.944 303.842 489.944 289.428 483.371 281.466C479.646 276.954 467.865 277.991 467.865 277.991C467.865 277.991 463.815 271.343 453.957 269.46C443.994 267.559 432.459 273.754 432.459 273.754C432.459 273.754 422.883 268.725 414.276 274.066C402.277 281.515 404.488 300.124 417.041 305.676C425.855 309.574 437.336 301.481 437.336 301.481C438.472 301.592 450.306 308.152 458.683 297.502C458.683 297.502 466.029 303.566 472.255 298.901C472.255 298.901 475.723 305.199 482.944 303.842Z" fill="#263238"></path><path d="M477.897 329.435C477.897 329.435 484.553 315.26 490.836 317.421C497.12 319.582 493.64 339.062 487.337 342.734C481.035 346.406 477.521 340.639 477.521 340.639L477.897 329.435Z" fill="#FF9F75"></path><path d="M489.7 322.981C489.806 322.953 489.854 323.101 489.766 323.156C485.374 325.886 483.644 330.695 482.689 335.537C483.792 333.547 485.538 332.258 488.169 333.525C488.306 333.592 488.222 333.805 488.084 333.8C486.077 333.72 484.741 334.297 483.701 336.073C482.965 337.33 482.572 338.827 482.129 340.207C481.98 340.668 481.179 340.574 481.256 340.06C481.262 340.022 481.27 339.981 481.277 339.944C480.115 333.941 483.339 324.706 489.7 322.981Z" fill="#263238"></path><path d="M463.365 357.878L476.02 352.423L486.189 339.756L484.235 338.187L474.455 350.369L462.374 355.576L463.365 357.878Z" fill="#C7C7C7"></path><path d="M464.717 355.858C463.48 352.177 453.151 353.534 455.024 359.114C456.902 364.707 465.958 359.555 464.717 355.858Z" fill="#37474F"></path><path d="M491.023 317.036C491.023 317.036 492.405 296.324 486.337 284.902C479.582 272.185 451.593 260.079 432.459 273.755C432.459 273.755 463.632 268.182 478.149 285.816C484.264 293.245 484.109 317.59 484.109 317.59L491.023 317.036Z" fill="#C7C7C7"></path><path d="M488.201 346.801C478.942 346.709 471.521 338.079 471.625 327.525C471.73 316.971 479.32 308.49 488.58 308.581C497.839 308.673 505.26 317.303 505.156 327.857C505.051 338.411 497.46 346.893 488.201 346.801Z" fill="#C7C7C7"></path><path d="M476.516 326.955C476.422 336.441 483.092 344.199 491.415 344.282C499.738 344.364 506.561 336.741 506.655 327.254C506.749 317.768 500.079 310.012 491.757 309.928C483.434 309.846 476.611 317.469 476.516 326.955Z" fill="#455A64"></path><path d="M448.69 379.395L457.751 402.245L486.221 373.51L494.212 382.807C494.212 382.807 466.285 428.535 466.119 426.464L456.805 406.762L443.174 420.38L444.427 386.045L448.69 379.395Z" fill="#EBEBEB"></path><path d="M442.835 403.372C443.232 397.71 443.473 391.997 444.132 386.359C444.155 386.159 444.469 386.072 444.517 386.308C445.628 391.782 443.994 413.426 443.996 418.617C444.015 418.598 444.038 418.578 444.055 418.558C444.624 417.969 456.685 406.579 456.804 406.761C458.828 409.891 465.663 424.239 466.129 425.543C470.545 418.28 489.282 389.649 494.502 382.785C494.652 382.588 494.958 382.753 494.841 382.983C490.934 390.657 466.724 428.44 466.383 428.338C466.15 428.517 457.655 410.845 456.646 407.509C454.601 409.994 442.421 422.855 442.383 422.012C442.13 416.329 442.438 409.041 442.835 403.372Z" fill="#263238"></path><path d="M137.591 319.299H177.308C185.325 319.299 191.824 312.799 191.824 304.782C191.824 296.765 185.325 290.265 177.308 290.265H137.591C129.574 290.265 123.074 296.765 123.074 304.782C123.074 312.799 129.574 319.299 137.591 319.299Z" fill="#455A64"></path><path d="M168.624 304.533C168.618 304.042 168.435 303.617 168.186 303.215C168.076 303.037 167.952 302.866 167.836 302.691L167.073 301.927C166.778 301.715 166.489 301.492 166.186 301.292C164.965 300.482 163.606 300.017 162.181 299.734C158.864 299.077 155.546 299.095 152.231 299.747C150.825 300.023 149.485 300.485 148.279 301.282C147.966 301.49 147.667 301.718 147.361 301.939L146.624 302.675C146.44 302.966 146.228 303.246 146.082 303.554C145.945 303.844 145.877 304.167 145.769 304.503C145.886 304.513 145.94 304.521 145.993 304.521C148.088 304.525 150.182 304.525 152.277 304.531C152.406 304.533 152.469 304.49 152.53 304.381C152.937 303.657 153.55 303.249 154.388 303.196C156.282 303.077 158.176 303.074 160.07 303.199C160.907 303.254 161.518 303.666 161.924 304.391C161.973 304.477 162.014 304.54 162.137 304.542C164.263 304.538 166.391 304.542 168.517 304.543C168.549 304.54 168.582 304.536 168.624 304.533Z" fill="white"></path><path d="M168.63 308.207C168.632 307.469 168.632 306.729 168.632 305.991C168.632 305.935 168.626 305.878 168.625 305.837C166.477 305.834 164.34 305.833 162.186 305.829C162.192 305.973 162.206 306.136 162.206 306.301C162.208 306.93 162.205 307.56 162.205 308.189C162.206 308.736 162.477 309.007 163.024 309.009C164.624 309.011 166.223 309.012 167.823 309.012C168.358 309.014 168.629 308.743 168.63 308.207Z" fill="white"></path><path d="M152.237 308.241C152.228 307.433 152.198 306.626 152.177 305.822C150.114 305.819 147.977 305.815 145.829 305.813C145.826 305.85 145.82 305.9 145.82 305.95C145.819 306.701 145.816 307.452 145.816 308.204C145.817 308.713 146.092 308.991 146.601 308.992C148.219 308.994 149.838 308.997 151.456 308.994C151.946 308.996 152.243 308.72 152.237 308.241Z" fill="white"></path><path d="M300.537 563.671H309.348V569.423H300.537V563.671Z" fill="#455A64"></path><path d="M289.111 563.291H297.921V569.043H289.111V563.291Z" fill="#455A64"></path><path d="M277.686 562.911H286.496V568.663H277.686V562.911Z" fill="#455A64"></path><path d="M266.259 562.531H275.07V568.283H266.259V562.531Z" fill="#455A64"></path><path d="M254.833 562.151H263.644V567.903H254.833V562.151Z" fill="#455A64"></path><path d="M243.408 561.771H252.219V567.523H243.408V561.771Z" fill="#455A64"></path><path d="M231.982 561.391H240.792V567.143H231.982V561.391Z" fill="#455A64"></path><path d="M220.555 561.01H229.366V566.763H220.555V561.01Z" fill="#455A64"></path><path d="M209.13 560.63H217.941V566.383H209.13V560.63Z" fill="#455A64"></path><path d="M206.972 572.732H311.505V565.733L206.972 562.818V572.732Z" fill="#37474F"></path><path d="M104.946 545.13H277.513L250.069 416.658H77.5022L104.946 545.13Z" fill="#455A64"></path><path d="M98.5624 545.13H271.131L243.687 416.658H71.1195L98.5624 545.13Z" fill="#37474F"></path><path d="M156.211 473.449C157.145 479.342 162.678 484.119 168.571 484.119C174.464 484.119 178.484 479.343 177.55 473.449C176.617 467.557 171.084 462.779 165.19 462.779C159.297 462.779 155.278 467.557 156.211 473.449Z" fill="#263238"></path><path d="M147.369 578.682H232.242V572.091L147.369 569.347V578.682Z" fill="#455A64"></path><path d="M124.292 578.673H169.862L197.306 506.684H151.737L124.292 578.673Z" fill="#455A64"></path><path d="M116.793 578.673H162.362L189.806 506.684H144.237L116.793 578.673Z" fill="#263238"></path><path d="M314.731 580.433C314.731 580.433 394.764 580.433 402.235 580.433C409.705 580.433 398.898 559.17 371.645 551.012C344.391 542.855 306.135 572.457 314.731 580.433Z" fill="#37474F"></path><path d="M349.069 580.433C349.018 578.023 348.58 575.618 347.877 573.298C347.179 570.972 346.174 568.734 344.929 566.632C343.69 564.525 342.097 562.622 340.286 560.99C338.519 559.29 336.322 558.123 334.134 557.165C335.076 557.934 336.142 558.472 336.999 559.313L338.351 560.454L339.591 561.711C341.191 563.423 342.661 565.26 343.832 567.296C345.048 569.299 346.065 571.427 346.934 573.624C347.775 575.83 348.526 578.091 349.069 580.433Z" fill="#263238"></path><path d="M338.701 560.201C336.099 561 333.596 562.082 331.151 563.284C328.705 564.485 326.349 565.879 324.111 567.46C321.891 569.057 319.765 570.842 318.013 572.989C317.149 574.067 316.363 575.218 315.755 576.462C315.186 577.72 314.756 579.066 314.731 580.433C315.046 579.11 315.58 577.873 316.308 576.762C317 575.633 317.839 574.599 318.754 573.641C320.601 571.737 322.669 570.042 324.855 568.505C327.021 566.936 329.315 565.539 331.619 564.148C332.773 563.455 333.948 562.794 335.134 562.149C336.305 561.469 337.506 560.851 338.701 560.201Z" fill="#263238"></path><path d="M308.464 288.759C310.697 310.11 329.828 325.617 351.179 323.384C359.809 322.482 367.48 318.82 373.419 313.349L392.869 316.203L383.138 299.389C385.499 293.644 386.494 287.251 385.805 280.67C383.572 259.318 364.442 243.811 343.09 246.044C321.738 248.277 306.231 267.407 308.464 288.759Z" fill="white"></path><path d="M308.464 288.759C309.277 295.857 311.872 302.813 316.311 308.467C317.33 309.947 318.644 311.185 319.834 312.523C321.185 313.7 322.446 314.991 323.937 315.996C326.781 318.187 329.975 319.903 333.315 321.218C336.638 322.618 340.215 323.285 343.782 323.714C345.581 323.811 347.381 323.975 349.184 323.817C350.989 323.776 352.787 323.583 354.564 323.257C361.678 321.969 368.416 318.639 373.797 313.761L373.337 313.902L392.768 316.885L394.178 317.102L393.464 315.859L383.79 299.011L383.835 299.677C388.547 288.579 387.486 275.365 381.44 265.025C378.427 259.848 374.224 255.386 369.264 252.059C364.307 248.722 358.558 246.631 352.672 245.833C346.781 245.051 340.718 245.588 335.092 247.458C329.473 249.35 324.32 252.532 320.099 256.651C311.516 264.812 307.202 277.052 308.464 288.759ZM308.464 288.759C307.283 277.042 311.682 264.876 320.268 256.827C324.531 252.802 329.691 249.751 335.26 247.981C340.838 246.235 346.805 245.819 352.552 246.685C358.294 247.565 363.854 249.704 368.608 253.027C373.35 256.358 377.351 260.714 380.24 265.715C383.185 270.706 384.712 276.425 385.174 282.165C385.538 287.925 384.598 293.753 382.438 299.101L382.298 299.449L382.483 299.768L392.272 316.548L392.968 315.522L373.5 312.796L373.232 312.759L373.041 312.939C367.894 317.769 361.382 321.142 354.424 322.528C352.685 322.878 350.924 323.099 349.149 323.169C347.379 323.356 345.605 323.224 343.83 323.161C340.309 322.799 336.76 322.203 333.446 320.874C330.119 319.629 326.903 317.994 324.069 315.82C322.578 314.83 321.317 313.554 319.963 312.392C318.77 311.068 317.452 309.845 316.426 308.377C311.966 302.775 309.326 295.851 308.464 288.759Z" fill="#263238"></path><path d="M325.461 285.895C325.461 288.494 327.568 290.601 330.166 290.601C332.765 290.601 334.872 288.494 334.872 285.895C334.872 283.297 332.765 281.189 330.166 281.189C327.568 281.189 325.461 283.297 325.461 285.895Z" fill="#263238"></path><path d="M342.326 285.895C342.326 288.494 344.433 290.601 347.032 290.601C349.631 290.601 351.738 288.494 351.738 285.895C351.738 283.297 349.631 281.189 347.032 281.189C344.433 281.189 342.326 283.297 342.326 285.895Z" fill="#263238"></path><path d="M359.193 285.895C359.193 288.494 361.3 290.601 363.898 290.601C366.497 290.601 368.604 288.494 368.604 285.895C368.604 283.297 366.497 281.189 363.898 281.189C361.3 281.189 359.193 283.297 359.193 285.895Z" fill="#263238"></path><path d="M291.996 87.1411C289.763 108.493 270.633 124 249.281 121.767C240.651 120.864 232.981 117.202 227.041 111.731L207.591 114.585L217.322 97.7713C214.961 92.0267 213.966 85.6337 214.655 79.0519C216.888 57.7002 236.018 42.1934 257.37 44.4263C278.723 46.6604 294.23 65.7894 291.996 87.1411Z" fill="white"></path><path d="M280.36 55.0347C276.138 50.9157 270.986 47.7339 265.367 45.8413C259.74 43.9718 253.679 43.4351 247.786 44.217C241.9 45.0131 236.152 47.106 231.194 50.4431C226.234 53.77 222.032 58.2306 219.018 63.409C212.973 73.749 211.911 86.9627 216.624 98.0603L216.669 97.3952L206.995 114.243L206.281 115.485L207.691 115.268L227.122 112.286L226.662 112.144C232.043 117.022 238.782 120.353 245.895 121.641C247.673 121.967 249.47 122.16 251.275 122.201C253.076 122.359 254.878 122.194 256.677 122.098C260.244 121.669 263.82 121.002 267.144 119.602C270.484 118.288 273.678 116.57 276.522 114.381C278.014 113.375 279.274 112.084 280.625 110.907C281.815 109.567 283.128 108.331 284.148 106.851C288.587 101.197 291.182 94.2417 291.994 87.1424C293.259 75.4362 288.944 63.1945 280.36 55.0347ZM284.034 106.759C283.008 108.228 281.69 109.451 280.497 110.774C279.143 111.936 277.883 113.211 276.391 114.203C273.557 116.377 270.341 118.011 267.014 119.257C263.7 120.585 260.151 121.18 256.631 121.543C254.855 121.608 253.082 121.739 251.311 121.551C249.538 121.48 247.775 121.26 246.036 120.91C239.078 119.524 232.566 116.152 227.42 111.321L227.228 111.142L226.96 111.179L207.492 113.905L208.188 114.931L217.977 98.1502L218.162 97.8317L218.022 97.4838C215.862 92.1359 214.921 86.3065 215.286 80.5478C215.748 74.807 217.275 69.0881 220.22 64.0972C223.11 59.0947 227.11 54.7394 231.852 51.41C236.605 48.0857 242.166 45.9479 247.908 45.067C253.654 44.2016 259.621 44.6176 265.2 46.3639C270.769 48.1332 275.929 51.1827 280.192 55.2094C288.778 63.2588 293.178 75.4246 291.997 87.1411C291.135 94.2352 288.496 101.159 284.034 106.759Z" fill="#263238"></path><path d="M255.461 87.8461V92.6996C255.461 94.7899 253.892 96.3577 251.801 96.3577C249.86 96.3577 248.142 94.7899 248.142 92.6996V84.934C248.142 84.8595 248.218 84.8595 248.218 84.785C248.142 84.7105 248.142 84.7105 248.142 84.6361C248.142 82.6947 249.86 80.978 251.801 80.978C256.505 80.978 260.313 77.2454 260.313 72.6153C260.313 67.912 256.505 64.2526 251.801 64.2526C248.739 64.2526 246.052 65.8948 244.634 68.3588C243.589 70.1513 241.348 70.7483 239.557 69.7032C237.841 68.658 237.243 66.4932 238.287 64.7007C240.975 60.0719 246.053 56.9351 251.801 56.9351C260.462 56.9351 267.555 63.9534 267.555 72.614C267.555 80.006 262.405 86.2038 255.461 87.8461ZM255.461 104.198V105.542C255.461 107.633 253.892 109.2 251.801 109.2C249.86 109.2 248.142 107.633 248.142 105.542V104.198C248.142 102.182 249.86 100.54 251.801 100.54C253.893 100.538 255.461 102.182 255.461 104.198Z" fill="#FFB830"></path></svg>