<svg xmlns="http://www.w3.org/2000/svg" width="60" height="60" viewBox="0 0 80 80" fill="none"><path d="M80 40L77.8976 43.7346L79.2389 47.8051L76.4481 51.0576L76.9644 55.3118L73.5893 57.9527L73.2617 62.2254L69.436 64.157L68.2839 68.2844L64.156 69.4369L62.2248 73.2622L57.9521 73.5898L55.3112 76.9645L51.057 76.4481L47.8049 79.2384L43.7344 77.8977L39.9998 80L36.2656 77.8977L32.1951 79.2384L28.9425 76.4481L24.6879 76.964L22.047 73.5893L17.7742 73.2618L15.8426 69.436L11.7152 68.2835L10.5631 64.1561L6.73781 62.2245L6.41024 57.9518L3.03555 55.3109L3.55142 51.0572L0.761094 47.8047L2.10236 43.7346L0 40L2.10236 36.2654L0.761094 32.1949L3.55189 28.9424L3.03555 24.6882L6.4107 22.0473L6.73826 17.7741L10.5641 15.843L11.7161 11.7156L15.8435 10.5631L17.7752 6.73776L22.0479 6.4102L24.6888 3.03553L28.943 3.55186L32.1951 0.761543L36.2656 2.10234L39.9998 0L43.7344 2.10234L47.8049 0.761543L51.0575 3.55186L55.3121 3.036L57.953 6.41066L62.2258 6.73869L64.1569 10.564L68.2848 11.7165L69.4369 15.8439L73.2622 17.7755L73.5898 22.0482L76.9644 24.6891L76.4486 28.9428L79.2389 32.1953L77.8976 36.2658L80 40Z" fill="#FFB830"></path><path d="M74.2047 40L72.4067 43.1933L73.5537 46.6744L71.1672 49.4554L71.6086 53.0934L68.7225 55.3516L68.4426 59.0053L65.1711 60.657L64.1856 64.1866L60.6564 65.1716L59.0047 68.4431L55.351 68.723L53.0927 71.6087L49.4553 71.1673L46.6737 73.5532L43.1936 72.4068L39.9998 74.2042L36.8064 72.4068L33.3258 73.5532L30.5443 71.1673L26.9063 71.6087L24.6481 68.7226L20.9944 68.4422L19.3427 65.1712L15.8135 64.1857L14.828 60.656L11.5569 59.0048L11.277 55.3512L8.39091 53.0929L8.83229 49.455L6.44633 46.6739L7.59328 43.1933L5.79535 40L7.59328 36.8067L6.44633 33.3256L8.83275 30.5445L8.39138 26.9066L11.2775 24.6484L11.5574 20.9947L14.8289 19.343L15.8144 15.8133L19.3436 14.8283L20.9953 11.5573L24.649 11.2769L26.9073 8.39131L30.5447 8.83269L33.3258 6.44674L36.8064 7.59322L39.9998 5.79577L43.1936 7.59322L46.6742 6.44674L49.4557 8.83269L53.0932 8.39131L55.352 11.2774L59.0056 11.5578L60.6573 14.8288L64.1865 15.8143L65.172 19.3439L68.4431 20.9952L68.723 24.6488L71.6091 26.9071L71.1677 30.545L73.5537 33.3261L72.4067 36.8067L74.2047 40Z" fill="#0B202E"></path><path d="M18.2771 45.0597C17.4912 45.0597 16.8262 44.8438 16.2821 44.412C15.7467 43.9715 15.3537 43.3842 15.1033 42.6501L16.7096 41.8988L16.8651 42.1579C17.1155 42.5897 17.3531 42.9265 17.5776 43.1683C17.8108 43.4101 18.1001 43.531 18.4456 43.531C18.6701 43.531 18.8687 43.4231 19.0415 43.2072C19.2228 42.9913 19.3135 42.7538 19.3135 42.4947C19.3135 42.2529 19.2531 42.0326 19.1322 41.834C19.0112 41.6354 18.8558 41.4756 18.6658 41.3547L16.9687 40.3442C16.4765 40.0679 16.0835 39.7181 15.7899 39.2949C15.4962 38.8717 15.3494 38.3967 15.3494 37.8699C15.3494 37.3085 15.4789 36.8076 15.738 36.3672C16.0058 35.9267 16.3642 35.5856 16.8133 35.3438C17.271 35.1019 17.7849 34.981 18.3549 34.981C19.0199 34.981 19.5856 35.1451 20.0519 35.4733C20.5183 35.8015 20.8638 36.2894 21.0883 36.9372L19.4819 37.6626C19.4474 37.5935 19.374 37.4381 19.2617 37.1963C19.1494 36.9544 19.0112 36.7817 18.8472 36.6781C18.6917 36.5658 18.4974 36.5097 18.2642 36.5097C17.9792 36.5097 17.759 36.6003 17.6035 36.7817C17.4567 36.9631 17.3833 37.1963 17.3833 37.4813C17.3833 37.6885 17.4394 37.8785 17.5517 38.0513C17.6726 38.2154 17.8151 38.3449 17.9792 38.4399L19.5467 39.3597C20.704 40.016 21.3129 40.8797 21.3733 41.9506C21.3733 42.5638 21.2351 43.1079 20.9588 43.5829C20.691 44.0492 20.3197 44.412 19.8447 44.671C19.3783 44.9301 18.8558 45.0597 18.2771 45.0597Z" fill="#64C1FF"></path><path d="M24.9903 45.0208C24.403 45.0208 23.9064 44.874 23.5005 44.5804C23.0946 44.2781 22.8916 43.747 22.8916 42.987V38.9581H21.8812L21.9589 37.5849H22.9434L23.1248 36.0044L24.7053 35.7842V37.5849H26.208L26.1303 38.9581H24.7182V42.974C24.7182 43.2331 24.783 43.4188 24.9126 43.531C25.0421 43.6433 25.2321 43.6995 25.4826 43.6995C25.6207 43.6995 25.8539 43.6735 26.1821 43.6217V44.8783C26.1476 44.887 26.0094 44.9129 25.7676 44.956C25.5344 44.9992 25.2753 45.0208 24.9903 45.0208Z" fill="#64C1FF"></path><path d="M28.363 45.0467C28.0521 45.0467 27.7714 44.9517 27.521 44.7617C27.2705 44.5631 27.0762 44.2997 26.938 43.9715C26.7998 43.6347 26.7308 43.259 26.7308 42.8445C26.7308 41.9031 27.0503 41.2424 27.6894 40.8624C28.3371 40.4738 29.0885 40.2535 29.9435 40.2017C29.9435 39.7354 29.9133 39.3899 29.8528 39.1654C29.7924 38.9408 29.6456 38.8285 29.4124 38.8285C29.2137 38.8285 29.0626 38.9063 28.959 39.0617C28.8553 39.2172 28.7905 39.4158 28.7646 39.6576L26.9899 39.3467C27.0762 38.6817 27.3483 38.2067 27.806 37.9217C28.2637 37.6367 28.7992 37.4942 29.4124 37.4942C30.1983 37.4942 30.7856 37.7015 31.1742 38.116C31.5715 38.5306 31.7701 39.0704 31.7701 39.7354V43.5051C31.7701 43.911 31.8349 44.3429 31.9644 44.8006L30.1896 44.956L29.9824 44.0622C29.8269 44.3385 29.5981 44.5717 29.2958 44.7617C28.9935 44.9517 28.6826 45.0467 28.363 45.0467ZM29.2051 43.7513C29.3519 43.7513 29.4728 43.7167 29.5678 43.6476C29.6715 43.5785 29.7967 43.4663 29.9435 43.3108V41.2899C29.5117 41.2899 29.1662 41.4065 28.9071 41.6397C28.648 41.8729 28.5185 42.2356 28.5185 42.7279C28.5185 43.056 28.5746 43.3108 28.6869 43.4922C28.8078 43.6649 28.9805 43.7513 29.2051 43.7513Z" fill="#64C1FF"></path><path d="M33.269 37.7404L35.0827 37.5849V38.5176C35.454 38.1894 35.8168 37.939 36.1708 37.7663C36.5336 37.5849 36.8661 37.4942 37.1684 37.4942C37.6261 37.4942 37.9974 37.6626 38.2825 37.9994C38.5761 38.3276 38.7229 38.7724 38.7229 39.3338V44.8006L36.9093 44.956V40.0204C36.9093 39.3726 36.689 39.0488 36.2486 39.0488C36.1018 39.0488 35.9377 39.0919 35.7563 39.1783C35.5836 39.2647 35.359 39.3899 35.0827 39.554V44.8006L33.269 44.956V37.7404Z" fill="#64C1FF"></path><path d="M42.0272 45.0467C40.6281 45.0467 39.9285 43.7772 39.9285 41.2381C39.9285 39.9167 40.1012 38.9624 40.4467 38.3751C40.7921 37.7879 41.3319 37.4942 42.066 37.4942C42.3769 37.4942 42.6749 37.5979 42.9599 37.8051C43.2449 38.0038 43.4522 38.2542 43.5817 38.5565V35.3956L45.4083 35.1624V44.8006L44.0351 44.956L43.5817 43.9715C43.4953 44.291 43.3356 44.5501 43.1024 44.7488C42.8692 44.9474 42.5108 45.0467 42.0272 45.0467ZM42.7008 43.7513C42.9599 43.7513 43.1715 43.6088 43.3356 43.3238C43.4997 43.0301 43.5817 42.5379 43.5817 41.847V39.4115C43.3313 39.0229 43.0376 38.8285 42.7008 38.8285C42.4158 38.8285 42.2042 38.9322 42.066 39.1394C41.9365 39.3381 41.8501 39.6015 41.8069 39.9297C41.7724 40.2579 41.7551 40.694 41.7551 41.2381C41.7551 41.7908 41.7724 42.2399 41.8069 42.5854C41.8501 42.9308 41.9408 43.2115 42.079 43.4274C42.2172 43.6433 42.4244 43.7513 42.7008 43.7513Z" fill="#64C1FF"></path><path d="M48.1492 45.0467C47.8383 45.0467 47.5576 44.9517 47.3072 44.7617C47.0567 44.5631 46.8624 44.2997 46.7242 43.9715C46.586 43.6347 46.5169 43.259 46.5169 42.8445C46.5169 41.9031 46.8365 41.2424 47.4756 40.8624C48.1233 40.4738 48.8747 40.2535 49.7297 40.2017C49.7297 39.7354 49.6995 39.3899 49.639 39.1654C49.5786 38.9408 49.4317 38.8285 49.1986 38.8285C48.9999 38.8285 48.8488 38.9063 48.7451 39.0617C48.6415 39.2172 48.5767 39.4158 48.5508 39.6576L46.776 39.3467C46.8624 38.6817 47.1345 38.2067 47.5922 37.9217C48.0499 37.6367 48.5854 37.4942 49.1986 37.4942C49.9845 37.4942 50.5718 37.7015 50.9604 38.116C51.3577 38.5306 51.5563 39.0704 51.5563 39.7354V43.5051C51.5563 43.911 51.6211 44.3429 51.7506 44.8006L49.9758 44.956L49.7686 44.0622C49.6131 44.3385 49.3842 44.5717 49.082 44.7617C48.7797 44.9517 48.4688 45.0467 48.1492 45.0467ZM48.9913 43.7513C49.1381 43.7513 49.259 43.7167 49.354 43.6476C49.4577 43.5785 49.5829 43.4663 49.7297 43.3108V41.2899C49.2979 41.2899 48.9524 41.4065 48.6933 41.6397C48.4342 41.8729 48.3047 42.2356 48.3047 42.7279C48.3047 43.056 48.3608 43.3108 48.4731 43.4922C48.594 43.6649 48.7667 43.7513 48.9913 43.7513Z" fill="#64C1FF"></path><path d="M53.0552 37.7404L54.8688 37.5849V38.7638C55.1279 38.3924 55.4475 38.0944 55.8275 37.8699C56.2161 37.6367 56.7084 37.5201 57.3043 37.5201V39.2949C56.9934 39.2949 56.5832 39.351 56.0736 39.4633C55.5727 39.5669 55.1711 39.7526 54.8688 40.0204V44.8006L53.0552 44.956V37.7404Z" fill="#64C1FF"></path><path d="M60.0675 45.0467C58.6684 45.0467 57.9689 43.7772 57.9689 41.2381C57.9689 39.9167 58.1416 38.9624 58.487 38.3751C58.8325 37.7879 59.3723 37.4942 60.1064 37.4942C60.4173 37.4942 60.7152 37.5979 61.0002 37.8051C61.2852 38.0038 61.4925 38.2542 61.6221 38.5565V35.3956L63.4487 35.1624V44.8006L62.0755 44.956L61.6221 43.9715C61.5357 44.291 61.3759 44.5501 61.1427 44.7488C60.9096 44.9474 60.5511 45.0467 60.0675 45.0467ZM60.7411 43.7513C61.0002 43.7513 61.2118 43.6088 61.3759 43.3238C61.54 43.0301 61.6221 42.5379 61.6221 41.847V39.4115C61.3716 39.0229 61.078 38.8285 60.7411 38.8285C60.4561 38.8285 60.2446 38.9322 60.1064 39.1394C59.9768 39.3381 59.8905 39.6015 59.8473 39.9297C59.8127 40.2579 59.7955 40.694 59.7955 41.2381C59.7955 41.7908 59.8127 42.2399 59.8473 42.5854C59.8905 42.9308 59.9811 43.2115 60.1193 43.4274C60.2575 43.6433 60.4648 43.7513 60.7411 43.7513Z" fill="#64C1FF"></path></svg>