<svg xmlns="http://www.w3.org/2000/svg" width="500" height="351" viewBox="0 0 500 351" fill="none"><path d="M494.355 198.199C501.847 202.524 501.887 209.533 494.444 213.858L264.314 347.595C256.871 351.921 244.771 351.921 237.279 347.595L5.64475 213.861C-1.8469 209.536 -1.88676 202.527 5.55704 198.202L235.686 64.4649C243.129 60.1396 255.229 60.1396 262.721 64.4649L494.355 198.199Z" fill="#535353"></path><path d="M264.748 136.68L129.998 215.121L108.934 202.958L243.683 124.518L264.748 136.68Z" fill="#0F293B"></path><path d="M312.878 164.468L178.129 242.909L157.681 231.103L292.431 152.663L312.878 164.468Z" fill="#0F293B"></path><path d="M361.009 192.257L226.259 270.697L206.428 259.248L341.178 180.807L361.009 192.257Z" fill="#0F293B"></path><path d="M409.139 220.045L274.39 298.486L255.181 287.395L389.931 208.955L409.139 220.045Z" fill="#0F293B"></path><path d="M424.939 229.166L418.935 232.656L417.354 233.574L412.434 236.433L410.854 237.351L405.928 240.214L404.353 241.129L399.428 243.992L397.853 244.907L392.927 247.769L391.347 248.688L386.427 251.547L384.846 252.466L379.921 255.327L378.346 256.243L373.42 259.105L353.562 270.778L348.637 273.641L347.056 274.56L342.136 277.419L340.556 278.337L335.63 281.2L334.055 282.115L329.13 284.977L327.555 285.892L322.629 288.754L321.049 289.673L316.129 292.532L314.548 293.451L309.623 296.313L308.048 297.229L303.122 300.091L301.548 301.006L296.622 303.868L295.042 304.787L290.189 307.607L93.1409 193.841L97.9933 191.021L99.5739 190.102L104.5 187.24L106.074 186.325L111 183.462L112.574 182.548L117.5 179.685L119.081 178.767L124.001 175.908L125.581 174.989L130.507 172.126L132.081 171.211L137.007 168.349L138.582 167.433L143.508 164.571L145.088 163.653L150.008 160.794L151.588 159.875L156.513 157.013L158.089 156.098L163.015 153.235L164.589 152.32L169.514 149.457L171.095 148.539L176.015 145.68L177.596 144.761L182.521 141.899L202.379 130.226L207.305 127.363L208.88 126.448L213.806 123.586L215.386 122.667L220.306 119.808L221.886 118.889L227.89 115.4L243.684 124.519L108.934 202.958L129.998 215.121L264.748 136.68L292.431 152.663L157.681 231.103L178.129 242.909L312.878 164.468L341.178 180.807L206.428 259.248L226.259 270.697L361.009 192.257L389.931 208.955L255.181 287.395L274.39 298.486L409.139 220.045L424.939 229.166Z" fill="#FFB830"></path><path opacity="0.49" d="M160.61 210.918C199.845 210.918 231.651 193.279 231.651 171.521C231.651 149.763 199.845 132.124 160.61 132.124C121.375 132.124 89.5687 149.763 89.5687 171.521C89.5687 193.279 121.375 210.918 160.61 210.918Z" fill="#8AD1FF"></path><path d="M196.426 165.719C197.199 163.76 197.705 161.707 197.927 159.612C199.511 144.685 197.269 132.179 169.951 118.011C141.153 103.076 152.43 74.524 113.66 80.995C78.7326 86.8246 77.3124 145.17 92.837 171.317C108.362 197.464 162.471 200.902 181.052 186.176C190.193 178.931 194.559 170.447 196.426 165.719Z" fill="#3DB2FF"></path><path d="M111.511 86.1823C111.511 86.1823 99.4693 90.9833 95.199 105.644C90.9287 120.305 93.4519 145.732 101.41 151.749C109.369 157.767 127.975 148.874 127.975 148.874C127.975 148.874 118.096 160.103 119.846 162.526C121.597 164.948 133.825 153.263 133.825 153.263C133.825 153.263 137.582 161.268 152.202 162.526C166.822 163.784 188.368 155.303 188.174 142.463C187.98 129.622 165.112 122.137 151.895 118.116C138.677 114.094 155.386 78.7641 111.511 85.1714" fill="#318CC7"></path><path d="M124.964 56.8731C124.964 56.8731 123.219 52.6843 115.869 53.7767C108.519 54.8682 105.573 65.5687 109.412 72.5563C113.25 79.5438 111.377 82.8192 109.412 82.8192C109.412 82.8192 114.231 87.5502 119.455 83.1107C124.677 78.6694 124.964 56.8731 124.964 56.8731Z" fill="#302665"></path><path d="M114.744 64.0422C114.744 64.0422 113.829 61.1514 115.868 58.5316C117.908 55.9109 120.998 55.9703 122.534 57.1779C124.071 58.3863 114.744 64.0422 114.744 64.0422Z" fill="#D8483D"></path><path d="M117.548 76.7805C117.548 76.7805 112.085 72.4721 114.622 64.4082C117.69 54.6502 131.447 54.8682 134.213 62.1472C134.213 62.1472 136.906 61.8557 137.78 65.5688C138.653 69.2809 133.413 76.7814 133.413 76.7814L117.548 76.7805Z" fill="#302665"></path><path d="M150.097 126.852C146.119 125.422 142.353 125.505 138.678 126.648C132.07 128.69 125.764 134.188 119.122 140.543C112.743 140.175 115.218 136.352 114.27 133.836C110.701 124.402 107.834 115.269 106.763 105.492C106.192 100.304 105.457 95.1933 106.07 89.4922C109.207 85.7348 116.198 82.5055 122.797 79.6226L135.809 84.1313C135.809 84.1313 136.022 91.0745 139.363 95.4361C142.385 99.3981 143.921 100.901 142.377 105.655C142.369 105.703 142.352 105.744 142.336 105.785C142.189 106.234 142.009 106.708 141.806 107.223C141.773 107.304 141.74 107.395 141.716 107.484C140.883 109.894 141.275 114.117 143.129 117.393C144.436 119.704 147.564 119.958 148.774 121.779C150.334 124.14 150.097 126.852 150.097 126.852Z" fill="#41D8D2"></path><path opacity="0.52" d="M142.378 105.655C142.37 105.703 142.353 105.744 142.337 105.785C142.182 106.34 141.977 106.904 141.716 107.484C140.973 109.077 139.788 110.703 137.877 112.01C132.028 116.012 141.573 117.857 147.788 120.805C149.496 121.622 151.078 126.702 149.246 128.845C142.638 130.887 125.764 134.187 119.122 140.542C112.743 140.174 115.218 136.351 114.27 133.835C110.701 124.401 107.834 115.268 106.763 105.491C110.366 101.774 113.952 98.1064 113.952 98.1064C113.952 98.1064 117.538 111.747 125.837 108.53C134.136 105.311 131.081 104.453 136.979 104.07C142.762 103.702 142.819 101.129 142.819 101.031C142.819 101.031 143.366 102.763 142.378 105.655Z" fill="#2C869B"></path><path d="M129.765 81.0845L127.233 87.9542H127.225C121.556 90.045 116.623 84.2208 116.623 84.2208L118.282 77.3103L118.551 76.1745L118.576 76.085L118.992 76.2728L129.765 81.0845Z" fill="#FF9F75"></path><path d="M129.765 81.0845L127.233 87.9542H127.225C121.263 87.9542 118.967 80.3491 118.281 77.3103L118.55 76.1745L118.991 76.2728L129.765 81.0845Z" fill="#D8825D"></path><path d="M132.708 76.9645C136.846 72.8265 136.846 66.1176 132.708 61.9796C128.57 57.8416 121.861 57.8416 117.723 61.9796C113.585 66.1176 113.585 72.8265 117.723 76.9645C121.861 81.1025 128.57 81.1025 132.708 76.9645Z" fill="#302665"></path><path d="M135.811 68.7212C135.811 68.7212 134.539 77.9228 132.865 81.961C131.19 85.9991 125.232 83.2908 122.72 81.2717C120.209 79.2526 118.042 75.0673 118.042 75.0673C118.042 75.0673 115.728 74.9194 115.875 71.8176C116.023 68.715 119.667 69.6506 119.618 72.6549C119.618 72.6549 122.326 73.9351 124.986 70.4878C127.644 67.0406 132.484 69.4911 133.505 66.4496C134.527 63.4081 134.527 63.4081 134.527 63.4081C134.527 63.4081 135.704 65.7736 135.811 68.7212Z" fill="#FF9F75"></path><path d="M184.874 192.656C184.874 192.656 187.019 198.41 190.919 201.678C194.82 204.946 192.893 210.194 189.896 210.126C182.609 209.959 182.27 205.176 180.151 202.992C178.031 200.808 176.503 200.808 176.066 199.28C175.63 197.752 175.775 194.549 175.775 194.549L184.874 192.656Z" fill="#61A3E5"></path><path d="M150.094 126.856C150.094 126.856 167.987 132.242 174.247 139.812C180.507 147.381 186.329 191.346 186.329 191.346C187.533 195.548 175.305 199.051 174.101 194.849C174.101 194.849 163.753 164.997 160.999 152.332C160.999 152.332 131.856 148.602 121.182 138.59C121.182 138.59 135.591 120.942 150.094 126.856Z" fill="#221D4F"></path><path d="M197.927 171.111C197.927 171.111 201.615 176.4 202.73 177.031C203.846 177.662 205.982 176.351 211.708 176.643C217.434 176.934 220.405 174.049 220.836 172.119C221.267 170.19 215.721 170.151 211.902 169.219C208.082 168.286 204.574 166.81 204.574 166.81L197.927 171.111Z" fill="#6DB6F2"></path><path d="M135.575 127.512C135.575 127.512 164.056 126.733 174.538 125.703C185.02 124.673 205.255 164.706 205.255 164.706C207.57 168.256 198.84 173.95 196.525 170.4L176.14 144.181C176.14 144.181 141.002 155.244 119.12 140.541C119.12 140.541 130.452 128.676 135.575 127.512Z" fill="#312B6B"></path><path d="M162.518 143.101L142.529 135.041L165.164 117.899L183.803 126.923L162.518 143.101Z" fill="#DC006E"></path><path d="M161.259 141.088L143.132 133.837L142.529 135.041L161.01 142.462L161.259 141.088Z" fill="#5889D6"></path><path d="M143.132 133.837L164.592 117.395L173.965 121.423L161.259 141.088L143.132 133.837Z" fill="white"></path><path d="M162.59 138.878L151.932 135.015L168.835 121.779L170.662 126.632L162.59 138.878Z" fill="#6DB6F2"></path><path d="M160.61 122.196C158.715 123.095 156.419 123.267 155.758 121.78C155.659 121.567 147.099 110.989 147.099 110.989C147.099 110.989 141.503 107.991 141.806 107.224C142.492 105.509 142.859 104.169 142.957 103.033C143.031 102.232 142.965 101.53 142.785 100.869C142.328 99.1536 141.086 97.6997 139.363 95.437C137.754 93.3461 136.88 90.6581 136.39 88.4282C136.39 88.4122 136.39 88.4034 136.39 88.4034C135.867 85.9936 135.809 84.1313 135.809 84.1313C135.809 84.1313 139.665 85.9448 143.128 90.9682C146.061 95.2155 151.297 99.4716 153.796 102.641C156.295 105.81 163.165 118.488 163.165 118.488C163.779 119.868 162.374 121.355 160.61 122.196Z" fill="#41D8D2"></path><path opacity="0.52" d="M151.486 107.689C150.535 106.034 148.037 104.136 145.481 102.5C145.176 100.969 144.424 98.4519 142.622 96.8651C139.886 94.4633 136.39 88.4025 136.39 88.4025C136.39 88.4025 136.39 88.4104 136.39 88.4273C136.88 90.6572 137.754 93.3443 139.363 95.4361C141.086 97.6988 142.328 99.1527 142.785 100.868C142.837 101.057 142.877 101.251 142.909 101.449C142.916 101.491 142.919 101.534 142.925 101.576C142.947 101.733 142.963 101.893 142.972 102.058C142.975 102.114 142.977 102.171 142.979 102.229C142.983 102.377 142.981 102.53 142.975 102.684C142.972 102.762 142.969 102.84 142.964 102.92C142.88 104.084 142.516 105.451 141.806 107.223C141.503 107.991 147.099 110.988 147.099 110.988C147.099 110.988 155.659 121.566 155.758 121.779C156.419 123.266 158.715 123.094 160.61 122.196C158.167 119.419 153.512 111.202 151.486 107.689Z" fill="#2C869B"></path><path d="M157.124 121.44L157.852 123.187C157.852 123.187 157.609 124.497 158.483 126.147C159.356 127.797 159.694 129.05 160.593 129.588C161.492 130.126 160.784 127.682 160.725 126.332C160.667 124.982 161.655 125.107 163.902 127.349C166.15 129.592 165.568 131.096 166.489 131.679C167.412 132.261 168.576 128.427 168.188 125.855C167.8 123.283 166.571 121.429 164.84 120.93C163.108 120.431 162.001 118.438 162.001 118.438C161.15 117.131 156.274 120.132 157.124 121.44Z" fill="#FF9F75"></path><path d="M121.182 117.395C121.182 117.395 117.436 109.823 115.191 101.379C112.946 92.936 109.077 89.098 106.747 89.2211C104.418 89.3443 102.38 97.6909 104.03 105.843C105.68 113.996 111.791 126.822 115.869 129.241C119.946 131.659 145.409 132.093 145.409 132.093C147.971 132.581 149.492 124.606 146.93 124.117L121.182 117.395Z" fill="#41D8D2"></path><path d="M145.823 124.926L147.955 125.066C147.955 125.066 151.282 125.108 152.737 124.926C154.193 124.744 155.868 125.044 156.45 125.513C157.032 125.981 153.797 126.507 153.797 126.507C153.797 126.507 156.484 127.002 158.269 128.056C160.055 129.11 162.527 131.587 161.981 132.823C161.436 134.061 159.616 134.352 158.16 133.988C156.705 133.624 155.576 132.497 153.466 132.388C151.354 132.279 148.625 131.987 148.006 130.823L145.204 130.859C143.817 130.714 144.436 124.782 145.823 124.926Z" fill="#FF9F75"></path><path d="M161.01 142.462L162.519 143.101L182.933 127.882C183.637 127.35 184.12 126.561 184.276 125.698L187.344 108.53L186.86 108.157C186.465 107.851 185.915 107.847 185.515 108.147L164.992 123.527C164.576 123.832 164.304 124.277 164.219 124.775L161.01 142.462Z" fill="#5889D6"></path><path d="M162.518 143.101L182.932 127.882C183.636 127.35 184.119 126.562 184.275 125.698L187.343 108.53L166.465 124.092C166.06 124.396 165.788 124.842 165.692 125.34L162.518 143.101Z" fill="#6DB6F2"></path><path opacity="0.49" d="M251.355 181.587L332.525 205.599L332.864 227.135L336.862 229.404L377.806 224.234L448.654 182.502L343.747 123.042L253.354 173.088L251.355 181.587Z" fill="#8AD1FF"></path><path d="M302.377 169.766L302.075 169.709C300.794 169.47 299.949 168.238 300.188 166.956L309.787 115.502L314.73 116.424L305.131 167.878C304.892 169.16 303.658 170.005 302.377 169.766Z" fill="#B8DCF4"></path><path d="M341.935 189.472H341.628C340.325 189.472 339.268 188.415 339.268 187.112V134.771H344.295V187.112C344.295 188.415 343.238 189.472 341.935 189.472Z" fill="#B8DCF4"></path><path d="M383.025 176.806L382.72 176.844C381.427 177.007 380.247 176.091 380.084 174.797L373.537 122.867L378.525 122.238L385.072 174.168C385.235 175.462 384.318 176.643 383.025 176.806Z" fill="#B8DCF4"></path><path d="M350.168 47.9143L350.739 47.5918C354.515 45.4567 359.145 45.501 362.879 47.7088L383.487 59.8933C389.87 63.6666 393.059 71.1503 391.362 78.3673L380.59 124.155C380.019 126.583 378.453 128.659 376.275 129.874L342.759 148.572C341.673 149.178 340.347 149.161 339.276 148.526L303.603 127.364C302.267 126.571 301.449 125.133 301.449 123.58V118.617L332.539 100.708L342.989 57.4277C343.96 53.3993 346.561 49.9538 350.168 47.9143Z" fill="#2F88C2"></path><path d="M301.447 118.413L332.487 100.135L342.858 57.8459C344.583 50.8114 352.597 47.4217 358.845 51.0843L378.016 62.3173C384.138 65.9045 387.223 73.0507 385.633 79.9664L375.913 122.265L341.492 141.408L301.447 118.413Z" fill="#3DB2FF"></path><path d="M312.249 171.402C312.249 171.402 314.115 177.693 313.826 179.564C313.826 179.564 312.133 182.254 308.859 182.838C305.584 183.423 304.636 187.749 298.855 189.62C293.073 191.492 287.46 189.654 290.852 185.545C294.242 181.436 299.856 176.222 300.441 171.403C301.024 166.585 312.249 171.402 312.249 171.402Z" fill="#66D7F2"></path><path d="M334.875 181.765C334.875 181.765 336.741 188.056 336.451 189.927C336.451 189.927 334.758 192.617 331.484 193.201C328.21 193.786 327.262 198.112 321.48 199.983C315.698 201.855 310.086 200.017 313.477 195.908C316.868 191.799 322.48 186.585 323.065 181.766C323.65 176.948 334.875 181.765 334.875 181.765Z" fill="#66D7F2"></path><path d="M332.781 104.813C332.781 104.813 306.322 113.631 302.639 121.699C298.955 129.768 299.012 172.238 299.012 172.238C298.933 176.7 312.667 176.947 312.747 172.484L317.051 131.764C317.051 131.764 346.812 123.508 345.623 112.617C344.433 101.727 332.781 104.813 332.781 104.813Z" fill="#302665"></path><path d="M342.441 111.655C342.441 111.655 329.321 123.276 325.637 131.344C321.953 139.412 322.011 181.882 322.011 181.882C321.931 186.344 335.665 186.59 335.746 182.128L340.05 141.407C340.05 141.407 363.447 126.637 362.257 115.748C361.068 104.859 342.441 111.655 342.441 111.655Z" fill="#443D89"></path><path d="M362.258 115.748C362.258 115.748 360.497 116.625 357.79 117.5C356.127 118.051 354.109 118.602 351.915 118.947C348.303 119.538 344.238 119.606 340.548 118.248C330.992 114.734 329.623 111.407 329.623 111.407L329.712 100.532L329.771 92.8358C329.771 92.8358 325.244 74.4123 328.265 70.4751C331.286 66.5486 342.447 65.3969 342.447 65.3969C342.447 65.3969 350.901 66.204 357.909 74.5993C359.188 76.1249 360.094 79.4711 360.743 83.6343C362.671 96.0651 362.258 115.748 362.258 115.748Z" fill="#66D7F2"></path><path d="M347.896 70.5274C347.256 72.7051 341.524 79.5429 336.951 79.0663C336.311 79.0016 335.77 78.8058 335.325 78.5356C335.314 78.5356 335.314 78.5356 335.314 78.5356C332.616 76.878 333.278 72.1204 333.278 72.1204L336.366 70.3866C336.366 70.3866 342.868 60.3629 344.06 61.0566C344.147 61.1106 344.211 61.2302 344.233 61.4251C344.244 61.4792 344.244 61.5438 344.244 61.62C344.244 62.1941 344.352 62.8444 344.526 63.5054C345.382 66.7347 347.896 70.5274 347.896 70.5274Z" fill="#FF9F75"></path><path d="M344.526 63.5054V63.57C344.45 74.8181 335.596 78.4266 335.325 78.5356C335.314 78.5356 335.314 78.5356 335.314 78.5356C332.616 76.878 333.278 72.1204 333.278 72.1204L336.366 70.3866C336.366 70.3866 342.868 60.3629 344.06 61.0566C344.124 61.1647 344.178 61.2843 344.233 61.4251C344.418 61.9239 344.526 62.6061 344.526 63.5054Z" fill="#FF9F75"></path><g filter="url(#filter0_d_89_3774)"><path d="M324.466 57.9814C323.516 53.5835 325.249 51.6087 325.4 51.4794C331.635 46.1344 340.56 51.1605 341.095 51.5565C341.547 51.8905 343.212 55.4706 343.912 57.262C344.401 56.2281 345.057 55.9047 345.685 55.9836C346.645 56.1032 347.238 56.6941 347.304 58.2995C347.371 59.9048 346.907 62.9578 345.324 63.7623C344.991 63.9315 344.705 63.7499 344.526 63.5745C344.729 67.1502 339.62 73.8897 333.265 73.1906C328.831 72.7025 325.416 62.3793 324.466 57.9814Z" fill="#FF9F75"></path></g><path d="M346.234 67.4097C346.234 67.4097 345.992 76.046 335.315 78.5364L338.978 83.8752C338.978 83.8752 347.699 77.9367 349.567 69.8346L346.234 67.4097Z" fill="#E3F6FD"></path><path d="M335.076 78.3752L330.578 81.0738C330.578 81.0738 328.898 76.0097 331.15 72.1204C331.15 72.1204 332.261 73.0329 333.279 73.0843C333.279 73.0843 333.04 76.7291 335.076 78.3752Z" fill="#E3F6FD"></path><path d="M343.496 58.497L341.335 61.3162L339.055 58.497C339.055 58.497 336.138 59.1677 335.075 54.9585C335.075 54.9585 331.907 56.8004 328.618 56.1865L333.791 57.239C333.791 57.239 329.112 59.4512 324.596 55.6363L325.356 61.3241C325.356 61.3241 322.721 58.5989 322.6 56.1865C322.48 53.7749 323.138 53.4675 323.138 53.4675C323.138 53.4675 321.001 51.8453 321.696 48.5566C322.393 45.2679 323.927 44.6921 323.927 44.6921C323.927 44.6921 323.884 46.2762 324.935 46.4516C324.935 46.4516 324.717 44.04 326.953 42.3292C329.189 40.6193 330.724 40.7505 330.724 40.7505C330.724 40.7505 329.453 42.2849 330.812 43.1186C330.812 43.1186 338.335 37.5938 343.496 41.1013C348.659 44.6088 346.905 47.8106 346.905 47.8106C346.905 47.8106 347.606 47.5581 348.659 49.5923C349.711 51.6256 347.31 58.839 347.31 58.839C347.31 58.839 346.534 54.2312 343.496 58.497Z" fill="#56282F"></path><path d="M329.977 86.6173L314.412 93.1078L304.537 87.4855C304.892 86.6093 305.354 85.7827 305.905 84.9951C308.749 80.9596 329.021 69.6991 329.021 69.6991L329.977 86.6173Z" fill="#66D7F2"></path><path d="M314.412 93.1069C314.412 93.1069 315.231 88.7808 311.956 86.5588C311.956 86.5588 317.303 86.2478 318.43 91.4316L314.412 93.1069Z" fill="#4CB0D8"></path><path d="M328.571 87.2029C328.571 87.2029 325.463 75.6261 328.268 71.8838C328.268 71.8838 324.378 77.5504 326.616 88.018L328.571 87.2029Z" fill="#4CB0D8"></path><path d="M362.258 115.748C362.258 115.748 360.497 116.625 357.79 117.5C360.832 113.986 360.674 107.845 360.674 107.845L351.915 118.946C348.303 119.537 344.238 119.605 340.548 118.247C330.992 114.733 329.623 111.406 329.623 111.406L329.712 100.531C332.921 97.9531 339.298 103.317 343.087 102.047C345.604 101.213 346.879 91.5512 348.926 84.6611C350.09 80.746 352.86 77.7249 352.86 77.7249L359.572 81.0747C359.572 81.0747 360.015 82.059 360.743 83.6334C362.671 96.0651 362.258 115.748 362.258 115.748Z" fill="#4CB0D8"></path><path d="M336.862 229.404L332.864 227.135V165.886L336.862 168.155V229.404Z" fill="#5889D6"></path><path d="M336.862 229.404L340.861 227.135V165.886L336.862 168.155V229.404Z" fill="#3F65AE"></path><path d="M251.355 181.587L247.356 179.318V118.069L251.355 120.337V181.587Z" fill="#5889D6"></path><path d="M251.355 181.587L255.353 179.318V118.069L251.355 120.337V181.587Z" fill="#3F65AE"></path><path d="M381.804 203.755L377.806 201.486V140.237L381.804 142.506V203.755Z" fill="#5889D6"></path><path d="M381.804 203.755L385.802 201.486V140.237L381.804 142.506V203.755Z" fill="#3F65AE"></path><path d="M387.182 142.86V138.938L384.224 138.261L300.896 90.3507C298.073 88.7206 293.803 88.5443 291.358 89.9556L247.294 115.68L245.502 115.269V119.692L245.518 119.695C245.573 120.742 246.355 121.833 247.843 122.692L331.818 170.975C334.641 172.605 338.912 172.782 341.357 171.371L385.556 145.567C386.793 144.853 387.323 143.869 387.182 142.86Z" fill="#5889D6"></path><path d="M341.357 166.982L385.556 141.178C388.001 139.767 387.694 137.301 384.871 135.672L300.896 87.3881C298.073 85.7579 293.803 85.5816 291.358 86.993L247.158 112.796C244.713 114.208 245.02 116.673 247.843 118.303L331.819 166.586C334.641 168.217 338.912 168.394 341.357 166.982Z" fill="#F3FBFF"></path><path d="M337.214 163.851C335.983 163.851 334.73 163.551 333.861 163.05L252.034 116C251.526 115.709 251.524 114.977 252.029 114.682L293.418 90.52C293.741 90.333 294.471 90.124 295.501 90.124C296.732 90.124 297.986 90.4234 298.855 90.9249L381.822 138.629L339.298 163.455C338.974 163.641 338.244 163.851 337.214 163.851Z" fill="#D4EFF9"></path><path d="M307.651 136.778L285.912 124.043L317.473 108.13L339.213 120.865L307.651 136.778Z" fill="white"></path><path d="M309.38 130.096L308.336 130.617L295.197 122.892L296.241 122.36L309.38 130.096Z" fill="#3C4047"></path><path d="M312.948 128.273L311.905 128.804L298.766 121.069L299.809 120.547L312.948 128.273Z" fill="#3C4047"></path><path d="M316.375 126.476L315.333 126.997L302.193 119.272L303.237 118.74L316.375 126.476Z" fill="#3C4047"></path><path d="M319.918 124.419L318.866 124.951L305.727 117.215L306.78 116.694L319.918 124.419Z" fill="#3C4047"></path><path d="M323.432 122.647H323.442L323.56 122.431L314.574 117.303L314.082 118.16L322.644 123.042L323.432 122.647Z" fill="#3C4047"></path><path d="M305.252 106.917C305.252 106.917 301.279 95.9659 303.969 88.3768C304.493 86.9017 305.247 85.6817 306.199 84.6628C309.946 85.3991 312.881 87.4341 314.455 91.6424C314.479 98.2242 313.111 106.658 313.111 106.658C313.189 109.106 305.33 109.365 305.252 106.917Z" fill="#66D7F2"></path><path d="M315.31 117.653C315.329 117.932 315.125 118.168 314.855 118.188C314.825 118.195 314.796 118.192 314.766 118.188C314.531 118.163 314.343 117.974 314.33 117.735L313.918 112.789C313.918 112.789 314.387 112.929 314.898 112.609L315.31 117.653Z" fill="#5889D6"></path><path d="M315.592 111.934C315.12 110.867 312.637 108.748 312.637 108.748C312.297 108.375 312.046 108.121 312.046 108.121L312.187 106.434C312.131 104.354 305.969 104.861 306.025 106.94L306.726 109.555C306.726 109.555 306.011 114.44 307.246 115.888C308.138 116.935 310.808 117.002 312.537 116.6C313.203 116.446 313.729 116.222 313.96 115.957C314.193 115.693 314.357 115.265 314.471 114.771C314.972 114.133 315.947 112.74 315.592 111.934Z" fill="#FF9F75"></path><path d="M315.124 115.427C314.614 115.748 314.144 115.608 314.144 115.608L313.37 106.267C313.35 105.998 313.554 105.762 313.824 105.742C314.093 105.722 314.33 105.916 314.36 106.187L315.098 115.138L315.124 115.427Z" fill="#5889D6"></path><path d="M312.737 116.551C312.81 116.532 314.831 116.1 315.132 115.885C315.434 115.67 315.155 115.331 314.424 114.369C313.694 113.407 313.713 112.892 313.713 112.892L313.27 115.277L312.737 116.551Z" fill="#FD958D"></path><path d="M354.285 76.1878C358.495 74.1935 361.959 79.8521 360.206 91.1942C358.029 105.287 356.917 109.247 354.578 111.612C352.239 113.977 336.082 124.677 336.082 124.677C333.615 127.048 327.209 120.383 329.675 118.012L346.333 103.514C346.335 103.514 350.076 78.183 354.285 76.1878Z" fill="#66D7F2"></path><path d="M330.081 119.183L327.225 121.347C327.225 121.347 318.563 123.159 319.089 123.627C319.615 124.095 323.649 124.387 323.649 124.387C323.649 124.387 316.633 128.144 316.809 129.598C316.984 131.052 322.187 132.28 325.637 131.345C329.086 130.409 331.173 126.271 331.173 126.271L334.668 123.803C336.283 122.198 331.695 117.58 330.081 119.183Z" fill="#FF9F75"></path><path d="M173.85 31.2335C174.372 30.9323 174.846 30.9101 175.187 31.098C175.532 31.3008 175.747 31.7164 175.749 32.3162L175.774 41.096C175.772 40.4971 175.557 40.0745 175.211 39.884C174.871 39.6838 174.396 39.7121 173.875 40.0133C172.832 40.6158 171.979 42.0865 171.982 43.2852L172.03 60.059C172.034 61.2577 172.891 61.7405 173.935 61.1381C172.892 61.7405 172.034 61.2568 172.03 60.059L171.957 34.5062C171.954 33.3066 172.807 31.836 173.85 31.2335Z" fill="#9FD8FF"></path><path d="M173.875 40.0133C174.396 39.7121 174.871 39.6837 175.212 39.884C175.557 40.0744 175.772 40.497 175.774 41.096L175.822 57.8698C175.825 59.0685 174.979 60.5356 173.935 61.1381C172.892 61.7405 172.034 61.2568 172.03 60.059L171.982 43.2852C171.979 42.0856 172.832 40.6149 173.875 40.0133Z" fill="#F4D956"></path><path d="M181.989 31.4683C182.511 31.167 182.986 31.1334 183.326 31.3327C183.672 31.5294 183.887 31.9458 183.889 32.5509L183.947 53.1777C183.951 54.3764 183.103 55.8436 182.06 56.446C181.017 57.0485 180.159 56.5656 180.155 55.3669L180.097 34.7401C180.093 33.5352 180.946 32.0707 181.989 31.4683Z" fill="#41D8D2"></path><path d="M181.975 26.5423C182.497 26.2411 182.972 26.219 183.312 26.4068C183.657 26.6097 183.873 27.0252 183.874 27.625L183.889 32.5509C183.887 31.9458 183.671 31.5294 183.326 31.3327C182.986 31.1334 182.511 31.167 181.989 31.4683C180.946 32.0707 180.093 33.5352 180.097 34.7401L180.155 55.3669L180.082 29.8142C180.08 28.6155 180.932 27.1448 181.975 26.5423Z" fill="#9FD8FF"></path><path d="M205.503 8.12596C207.272 7.10534 208.71 7.91953 208.716 9.95103L208.815 44.9011C208.821 46.9326 207.391 49.4089 205.623 50.4295L154.195 80.1214C152.426 81.1421 150.988 80.3225 150.982 78.291L150.883 43.341C150.877 41.3095 152.307 38.8394 154.075 37.8188L205.503 8.12596ZM175.774 41.0951L175.749 32.3152C175.747 31.7163 175.532 31.2999 175.187 31.097C174.846 30.9092 174.372 30.9314 173.85 31.2326C172.807 31.835 171.954 33.3057 171.957 34.5035L172.03 60.0563C172.034 61.255 172.891 61.7378 173.935 61.1354C174.978 60.5329 175.825 59.0658 175.822 57.8671L175.774 41.0951ZM183.889 32.5509L183.874 27.625C183.873 27.0261 183.657 26.6097 183.312 26.4068C182.972 26.219 182.497 26.2411 181.975 26.5423C180.932 27.1448 180.079 28.6155 180.082 29.8133L180.155 55.366C180.159 56.5647 181.016 57.0476 182.06 56.4451C183.103 55.8427 183.951 54.3755 183.947 53.1768L183.889 32.5509ZM167.94 50.9301L167.9 36.8469C167.898 36.248 167.688 35.8289 167.337 35.6287C166.997 35.4409 166.522 35.463 166 35.7643C164.952 36.3694 164.11 37.8338 164.113 39.0325L164.186 64.5853C164.189 65.784 165.037 66.273 166.085 65.6679C167.128 65.0655 167.976 63.5983 167.972 62.3996L167.94 50.9301ZM159.791 47.0761L159.775 41.5389C159.773 40.94 159.563 40.521 159.212 40.3207C158.877 40.1302 158.402 40.1524 157.88 40.4536C156.827 41.0623 155.984 42.5268 155.988 43.7255L156.061 69.2782C156.064 70.4769 156.912 70.966 157.965 70.3573C159.008 69.7549 159.851 68.2904 159.847 67.0917L159.791 47.0761ZM202.387 47.6033C203.31 47.0699 204.059 45.7738 204.056 44.7071C204.053 43.6404 203.299 43.2107 202.376 43.7441L192.347 49.5347C191.418 50.0707 190.67 51.3668 190.673 52.4335C190.676 53.5002 191.43 53.9299 192.358 53.3939L202.387 47.6033ZM204.79 18.2985L204.786 16.7525L193.275 23.3981L193.281 24.9432L204.79 18.2985ZM204.81 24.9981L204.805 23.4583L193.295 30.1039L193.299 31.6437L204.81 24.9981ZM204.848 38.4097L204.843 36.8699L193.333 43.5155L193.337 45.0553L204.848 38.4097ZM204.828 31.7039L204.824 30.1641L193.313 36.8097L193.318 38.3495L204.828 31.7039ZM189.899 31.7456L189.905 33.9808L191.851 32.8574L191.844 30.6222L189.899 31.7456ZM189.937 45.1572L189.943 47.3924L191.889 46.269L191.883 44.0338L189.937 45.1572ZM189.879 25.0398L189.886 27.275L191.831 26.1516L191.825 23.9164L189.879 25.0398ZM189.917 38.4514L189.924 40.6866L191.869 39.5632L191.863 37.328L189.917 38.4514Z" fill="#F3FBFF"></path><path d="M202.376 43.7441C203.299 43.2107 204.052 43.6404 204.056 44.7071C204.058 45.7738 203.31 47.07 202.387 47.6033L192.358 53.3939C191.43 53.9299 190.677 53.5002 190.673 52.4335C190.671 51.3668 191.419 50.0707 192.347 49.5347L202.376 43.7441Z" fill="#9FD8FF"></path><path d="M191.883 44.0347L191.889 46.2699L189.943 47.3933L189.937 45.1572L191.883 44.0347Z" fill="#679CE8"></path><path d="M191.825 23.9164L191.831 26.1525L189.886 27.275L189.879 25.0398L191.825 23.9164Z" fill="#679CE8"></path><path d="M166.041 49.8421C166.563 49.5409 167.038 49.5125 167.378 49.7128C167.729 49.9068 167.939 50.3312 167.94 50.9309L167.973 62.4014C167.977 63.6001 167.129 65.0673 166.086 65.6697C165.038 66.2748 164.19 65.7858 164.187 64.5871L164.154 53.1166C164.15 51.9179 164.992 50.4472 166.041 49.8421Z" fill="#E87446"></path><path d="M166.001 35.7652C166.523 35.464 166.998 35.4418 167.338 35.6296C167.689 35.829 167.899 36.248 167.901 36.8478L167.94 50.931C167.939 50.3321 167.729 49.9068 167.378 49.7128C167.038 49.5126 166.563 49.5409 166.041 49.8421C164.993 50.4473 164.15 51.9179 164.154 53.1166L164.187 64.5871L164.114 39.0344C164.11 37.8348 164.952 36.3703 166.001 35.7652Z" fill="#9FD8FF"></path><path d="M157.896 45.9909C158.418 45.6896 158.893 45.6613 159.228 45.858C159.579 46.052 159.789 46.4764 159.791 47.0762L159.847 67.0917C159.851 68.2904 159.008 69.7549 157.965 70.3573C156.912 70.966 156.064 70.4769 156.061 69.2782L156.004 49.2627C156 48.0631 156.843 46.5986 157.896 45.9909Z" fill="#CF3044"></path><path d="M157.88 40.4537C158.402 40.1525 158.877 40.1303 159.212 40.3208C159.563 40.5201 159.773 40.9392 159.775 41.539L159.791 47.0762C159.789 46.4773 159.579 46.0521 159.228 45.858C158.893 45.6613 158.418 45.6897 157.896 45.9909C156.843 46.5996 156 48.0641 156.004 49.2628L156.061 69.2783L155.988 43.7255C155.985 42.5259 156.827 41.0615 157.88 40.4537Z" fill="#9FD8FF"></path><path d="M204.805 23.4583L204.81 24.9981L193.299 31.6437L193.295 30.103L204.805 23.4583Z" fill="#679CE8"></path><path d="M204.786 16.7516L204.79 18.2985L193.281 24.9432L193.276 23.3972L204.786 16.7516Z" fill="#679CE8"></path><path d="M191.844 30.6231L191.851 32.8584L189.905 33.9809L189.899 31.7456L191.844 30.6231Z" fill="#679CE8"></path><path d="M191.863 37.3289L191.869 39.5641L189.925 40.6866L189.917 38.4514L191.863 37.3289Z" fill="#679CE8"></path><path d="M204.843 36.8699L204.848 38.4097L193.337 45.0553L193.333 43.5155L204.843 36.8699Z" fill="#679CE8"></path><path d="M204.824 30.1642L204.828 31.704L193.319 38.3495L193.314 36.8089L204.824 30.1642Z" fill="#679CE8"></path><path d="M71.3127 43.931C77.8635 40.1488 83.1846 43.1877 83.2058 50.7148C83.2164 54.3286 82.0054 58.311 80.0146 61.9097L71.3517 57.5597L71.3127 43.931Z" fill="#41D8D2"></path><path d="M79.8179 73.6079C81.0645 72.8885 82.0851 73.4635 82.0886 74.9023C82.093 76.3349 81.0786 78.09 79.833 78.8103L63.0184 88.5168C61.7719 89.2362 60.7512 88.655 60.7477 87.2224C60.7433 85.7845 61.7577 84.0347 63.0033 83.3145L79.8179 73.6079Z" fill="#E87446"></path><path d="M71.3127 43.931L71.3517 57.5588L80.0146 61.9089C77.8582 65.7955 74.791 69.2171 71.3898 71.1804C64.8399 74.9625 59.518 71.9237 59.4967 64.4028C59.4763 56.8757 64.7628 47.7132 71.3127 43.931Z" fill="#9FD8FF"></path><path d="M85.0273 28.0236C88.2292 26.1747 90.8348 27.6657 90.8454 31.3451L90.9694 75.0741C90.9801 78.7535 88.3913 83.2435 85.1886 85.0925L57.7142 100.955C54.5123 102.804 51.9067 101.313 51.8961 97.6333L51.7721 53.9042C51.7614 50.2248 54.3502 45.7348 57.5529 43.8858L85.0273 28.0236ZM80.0146 61.9088C82.0053 58.3101 83.2164 54.3277 83.2058 50.7139C83.1845 43.1868 77.8635 40.1489 71.3127 43.9301C64.762 47.7114 59.4755 56.8748 59.4967 64.4019C59.518 71.9228 64.839 74.9616 71.3898 71.1795C74.791 69.2171 77.8582 65.7955 80.0146 61.9088ZM79.833 78.8093C81.0795 78.0899 82.093 76.334 82.0886 74.9014C82.0842 73.4635 81.0644 72.8876 79.8179 73.607L63.0042 83.3144C61.7577 84.0338 60.7442 85.7836 60.7486 87.2224C60.753 88.655 61.7727 89.2361 63.0193 88.5168L79.833 78.8093Z" fill="#F3FBFF"></path><path d="M431.354 50.8548L431.347 53.3895L387.971 28.3471L387.978 25.8124L431.354 50.8548Z" fill="#679CE8"></path><path d="M435.816 32.2781C438.215 33.6628 440.149 37.0126 440.141 39.7635L440.059 68.6546C440.051 71.4054 438.105 72.5147 435.706 71.129L385.911 42.3797C383.511 40.995 381.577 37.6452 381.585 34.8943L381.668 6.00326C381.676 3.25236 383.622 2.14314 386.021 3.52878L435.816 32.2781ZM431.347 53.3895L431.354 50.8548L387.978 25.8124L387.971 28.3471L431.347 53.3895ZM431.328 60.036L431.335 57.5012L387.96 32.4579L387.953 34.9926L431.328 60.036ZM431.365 46.744L431.373 44.2092L387.997 19.1659L387.99 21.7006L431.365 46.744ZM388.016 12.5266L388.009 15.0551L407.217 26.1446L407.224 23.6161L388.016 12.5266Z" fill="#F3FBFF"></path><path d="M407.224 23.616L407.217 26.1445L388.009 15.055L388.016 12.5265L407.224 23.616Z" fill="#679CE8"></path><path d="M431.335 57.5012L431.328 60.0359L387.953 34.9926L387.96 32.4579L431.335 57.5012Z" fill="#679CE8"></path><path d="M431.372 44.2092L431.365 46.7439L387.99 21.7015L387.997 19.1659L431.372 44.2092Z" fill="#679CE8"></path><path d="M297.473 46.992L301.953 44.3891L301.322 49.4107L296.843 52.0145L297.473 46.992Z" fill="#5889D6"></path><path d="M274.63 12.0871L279.108 9.48419L283.94 11.5414L279.46 14.1443L274.63 12.0871Z" fill="#5889D6"></path><path d="M304.417 35.2434L299.937 37.8463C298.442 38.7154 296.372 38.5941 294.091 37.2766L298.57 34.6737C300.852 35.9911 302.921 36.1125 304.417 35.2434Z" fill="#5889D6"></path><path d="M288.306 17.8236L292.785 15.2207C291.008 16.2537 290.045 18.6875 290.5 22.171C291.057 26.4077 293.787 31.136 297.187 33.7452C297.655 34.104 298.117 34.4123 298.571 34.6745L294.092 37.2775C293.638 37.0152 293.176 36.706 292.709 36.3481C289.309 33.739 286.579 29.0106 286.022 24.774C285.564 21.2904 286.528 18.8567 288.306 17.8236Z" fill="#5889D6"></path><path d="M307.01 44.8081L311.489 42.2052L314.277 48.025L309.798 50.6289L307.01 44.8081Z" fill="#5889D6"></path><path d="M278.347 5.39902L282.826 2.79519L287.732 0L283.252 2.60294L278.347 5.39902Z" fill="#5889D6"></path><path d="M283.252 2.60294L287.732 0L291.489 5.49293L287.009 8.09587L283.252 2.60294Z" fill="#5889D6"></path><path d="M308.644 41.8597L313.124 39.2567C312.715 40.4058 312.163 41.3874 311.49 42.2052L307.011 44.8081C307.683 43.9895 308.234 43.0087 308.644 41.8597Z" fill="#5889D6"></path><path d="M287.009 8.09587L291.489 5.49293C292.647 5.46104 293.893 5.65152 295.199 6.0626L290.72 8.66554C289.414 8.25446 288.168 8.06486 287.009 8.09587Z" fill="#5889D6"></path><path d="M307.844 27.8075L312.324 25.2045C312.902 26.8613 313.344 28.5331 313.617 30.1774L309.138 32.7803C308.864 31.136 308.422 29.4642 307.844 27.8075Z" fill="#5889D6"></path><path d="M298.814 13.6969L303.293 11.0939C304.583 12.3139 305.786 13.6765 306.899 15.1374L302.42 17.7404C301.306 16.2803 300.105 14.9168 298.814 13.6969Z" fill="#5889D6"></path><path d="M313.545 35.9947L318.024 33.3917L318.002 41.3334L313.523 43.9364L313.545 35.9947Z" fill="#5889D6"></path><path d="M309.137 32.7804L313.616 30.1774L318.024 33.3917L313.545 35.9946L309.137 32.7804Z" fill="#5889D6"></path><path d="M291.309 4.01694L295.788 1.414L302.7 5.40435L298.22 8.00729L291.309 4.01694Z" fill="#5889D6"></path><path d="M298.22 8.00724L302.7 5.4043L303.293 11.0939L298.814 13.6968L298.22 8.00724Z" fill="#5889D6"></path><path d="M310.758 25.131L315.237 22.5281L312.324 25.2045L307.844 27.8075L310.758 25.131Z" fill="#5889D6"></path><path d="M302.42 17.7404L306.899 15.1375L310.363 14.0867L305.885 16.6897L302.42 17.7404Z" fill="#5889D6"></path><path d="M313.523 43.9364L308.644 41.8597C308.235 43.0088 307.683 43.9904 307.011 44.8082L309.799 50.6289L304.9 53.4285L300.893 47.5653C299.816 47.5582 298.672 47.3721 297.474 46.992L296.844 52.0145L289.932 48.0242L289.279 41.8251C288.131 40.7266 287.044 39.4995 286.031 38.1989L282.269 39.3427L277.395 30.9013L280.472 28.0778C279.914 26.5185 279.492 24.9432 279.198 23.3804L274.608 20.0377L274.63 12.088L279.461 14.1452C279.851 12.9456 280.402 11.933 281.068 11.0727L278.347 5.39993L283.253 2.60474L287.01 8.09767C288.168 8.06577 289.415 8.25625 290.721 8.66734L291.31 4.01784L298.221 8.00819L298.815 13.6978C300.105 14.9178 301.307 16.2804 302.421 17.7413L305.885 16.6906L310.758 25.1319L307.844 27.8084C308.422 29.4652 308.864 31.137 309.138 32.7813L313.546 35.9955L313.523 43.9364ZM294.091 37.2775C299.081 40.1587 303.059 37.3174 302.227 30.9084C301.676 26.6682 298.933 21.9239 295.526 19.3183C295.061 18.963 294.601 18.6556 294.15 18.3951C289.148 15.5078 285.182 18.3641 286.021 24.774C286.578 29.0107 289.308 33.739 292.708 36.3482C293.176 36.7061 293.637 37.0153 294.091 37.2775Z" fill="#D4EFF9"></path><path d="M305.885 16.6897L310.363 14.0867L315.237 22.5281L310.757 25.1311L305.885 16.6897Z" fill="#5889D6"></path><defs><filter id="filter0_d_89_3774" x="320.183" y="49.0345" width="31.1273" height="32.2066" filterUnits="userSpaceOnUse" color-interpolation-filters="sRGB"><feGaussianBlur stdDeviation="2"></feGaussianBlur></filter></defs></svg>