<svg xmlns="http://www.w3.org/2000/svg" width="535" height="343" viewBox="0 0 535 343" fill="none"><path opacity="0.3" d="M452.417 342.968C494.261 342.968 528.181 335.963 528.181 327.322C528.181 318.681 494.261 311.676 452.417 311.676C410.574 311.676 376.654 318.681 376.654 327.322C376.654 335.963 410.574 342.968 452.417 342.968Z" fill="#535353"></path><path opacity="0.3" d="M88.2352 342.968C133.952 342.968 171.012 335.963 171.012 327.322C171.012 318.681 133.952 311.676 88.2352 311.676C42.5187 311.676 5.45807 318.681 5.45807 327.322C5.45807 335.963 42.5187 342.968 88.2352 342.968Z" fill="#535353"></path><path d="M223.337 98.5724H207.292V278.53H223.337V98.5724Z" fill="#637271"></path><path d="M246.621 272.497H184.008V278.624H246.621V272.497Z" fill="#637271"></path><path d="M317 0H114V153H317V0Z" fill="white"></path><path d="M322.746 152.759H107.884V157.004H322.746V152.759Z" fill="#97ABAF"></path><path d="M163.175 73.177H146.318V101.65H163.175V73.177Z" fill="#FFA52E"></path><path d="M181.969 64.5862H165.111V101.65H181.969V64.5862Z" fill="#BFB945"></path><path d="M212.972 36.2156H196.115V101.65H212.972V36.2156Z" fill="#FFA52E"></path><path d="M231.766 49.1476H214.908V101.651H231.766V49.1476Z" fill="#BFB945"></path><path d="M262.769 20.3024H245.912V101.65H262.769V20.3024Z" fill="#FFA52E"></path><path d="M281.563 57.9218H264.705V101.65H281.563V57.9218Z" fill="#BFB945"></path><path d="M293.907 102.012H135.733V12.7178H136.456V101.288H293.907V102.012Z" fill="#726963"></path><path d="M133.727 14.6355L134.151 15.0311L136.093 12.9405L138.037 15.0311L138.461 14.6355L136.093 12.0906L133.727 14.6355Z" fill="#726963"></path><path d="M291.989 104.017L291.594 103.594L293.685 101.651L291.594 99.7068L291.989 99.2833L294.535 101.651L291.989 104.017Z" fill="#726963"></path><path d="M163.175 116.835H136.094V123.075H163.175V116.835Z" fill="#FFA52E"></path><path d="M204.543 118.735H170.265V119.459H204.543V118.735Z" fill="#726963"></path><path d="M219.335 122.714H170.265V123.437H219.335V122.714Z" fill="#726963"></path><path d="M163.175 128.12H136.094V134.361H163.175V128.12Z" fill="#BFB945"></path><path d="M204.543 130.019H170.265V130.743H204.543V130.019Z" fill="#726963"></path><path d="M219.336 133.998H170.265V134.721H219.336V133.998Z" fill="#726963"></path><path d="M294.535 114.959H240.063V121.619H294.535V114.959Z" fill="#637271"></path><path d="M294.535 121.619H240.063V134.36H294.535V121.619Z" fill="#E8D2C1"></path><path d="M294.536 121.377H240.063V121.86H294.536V121.377Z" fill="#FFF8ED"></path><path d="M281.158 114.959H280.675V134.36H281.158V114.959Z" fill="#FFF8ED"></path><path d="M267.54 114.959H267.057V134.36H267.54V114.959Z" fill="#FFF8ED"></path><path d="M253.923 114.959H253.44V134.36H253.923V114.959Z" fill="#FFF8ED"></path><path d="M294.988 130.003H237V130.485H294.988V130.003Z" fill="#FFF8ED"></path><path opacity="0.3" d="M377.475 299.825C415.338 299.825 446.032 292.82 446.032 284.179C446.032 275.538 415.338 268.533 377.475 268.533C339.612 268.533 308.918 275.538 308.918 284.179C308.918 292.82 339.612 299.825 377.475 299.825Z" fill="#535353"></path><path d="M354.069 266.524C354.069 266.524 358.557 241.103 358.903 228.862C359.201 218.323 357.576 211.658 350.748 204.893C348.226 202.394 342.823 202.509 339.868 203.932C340.239 226.248 343.362 243.435 347.198 265.227C349.06 265.325 352.207 266.426 354.069 266.524Z" fill="#FF9F75"></path><path d="M366.655 145.664C365.486 166.483 359.885 186.638 351.654 205.837C347.4 208.002 339.567 212.728 339.447 207.523C339.039 189.769 341.548 159.451 348.783 137.799C355.686 137.692 359.753 145.772 366.655 145.664Z" fill="#FF9F75"></path><path d="M377.431 205.206C375.189 180.07 373.841 160.614 374.123 137.369C380.883 135.007 392.761 139.344 399.83 140.606C401.218 164.824 397.788 183.465 393.655 206.821C388.752 208.918 382.677 205.603 377.431 205.206Z" fill="#FC957A"></path><path d="M354.191 115.402C354.191 115.402 332.273 146.261 338.261 200.093L355.271 204.701C366.656 181.842 374.119 169.402 378.738 144.17C379.39 140.604 377.64 122.794 377.273 119.187C376.906 115.581 375.444 111.943 372.613 109.679L354.191 115.402Z" fill="#0578A5"></path><path d="M368.756 109.343C362.302 137.253 370.897 169.392 376.654 208.777C390.506 209.913 385.741 210.805 399.555 209.209C399.092 205.537 396.054 198.452 396.054 198.452C397.878 186.001 401.419 167.531 402.68 160.783C404.454 151.304 404.3 141.103 400.584 132.337C396.2 121.998 384.281 111.996 384.281 111.996C374.862 111.648 378.174 109.692 368.756 109.343Z" fill="#0089CA"></path><path d="M371.058 42.4978C368.146 45.3881 365.493 48.5389 363.142 51.9009C362.556 52.7402 361.977 53.6153 361.732 54.6089C361.487 55.6026 361.633 56.7516 362.349 57.4828C363.029 58.1774 364.098 58.3713 365.058 58.217C366.018 58.0626 366.901 57.6102 367.764 57.1635C366.786 59.3496 366.25 61.8675 367 64.1423C367.751 66.4162 370.093 68.2665 372.45 67.8401C374.785 67.4176 376.236 65.1341 377.397 63.0647C377.835 65.5421 380.139 67.5603 382.652 67.6674C385.166 67.7745 387.633 65.9618 388.281 63.5307C389.887 65.6106 392.744 66.8445 395.242 66.0274C397.739 65.2103 399.33 62.0151 398.039 59.7258C399.69 61.1353 402.502 60.8507 403.836 59.1383C405.171 57.4259 404.76 54.6301 402.99 53.3731C403.563 54.3629 405.252 54.1314 405.805 53.1309C406.358 52.1305 405.956 50.8195 405.167 49.9917C404.377 49.165 403.284 48.7115 402.226 48.2803C402.892 48.5225 403.6 48.7675 404.294 48.6247C404.987 48.482 405.617 47.7845 405.416 47.1053C405.279 46.6432 404.83 46.3576 404.414 46.1136C403.435 45.5376 402.456 44.9626 401.477 44.3867C402.434 45.0099 403.972 45.3562 404.507 44.3471C405.009 43.3988 404.029 42.3569 403.124 41.781C396.643 37.6568 388.676 36.8146 381.028 36.0795L371.058 42.4978Z" fill="#2D1411"></path><path d="M360.118 269.923C359.28 275.355 357.9 280.449 357.063 285.881C356.771 285.91 355.702 285.963 355.411 285.992C355.293 282.428 355.777 272.883 355.935 271.692C357.318 270.856 358.293 269.189 360.118 269.923Z" fill="#FFF8ED"></path><path d="M356.507 272.575C354.117 275.871 352.423 279.747 351.344 283.854C351.028 285.059 350.459 287.972 348.696 288.553C347.628 288.905 345.879 289.311 344.806 289.472C340.861 290.064 332.565 290.493 330.72 288.527C330.488 287.588 331.239 286.608 331.874 285.952C334.39 283.357 338.886 281.11 341.753 279.069C345.879 276.135 351.802 273.8 356.507 272.575Z" fill="#FFF8ED"></path><path d="M354.241 252.049C352.379 251.97 349.457 250.629 347.594 250.549C346.619 255.289 347.198 265.227 347.198 265.227C344.926 269.521 340.198 280.032 339.169 282.678C341.254 283.393 342.908 282.878 344.816 281.595C346.507 280.458 349.454 276.764 350.493 274.201C350.839 274.494 351.212 274.685 351.611 274.736C353.677 272.275 355.925 270.242 357.992 267.782C356.31 262.242 354.859 257.906 354.241 252.049Z" fill="#FF9F75"></path><path d="M360.039 269.835C360.039 269.835 352.138 277.694 347.954 280.074C347.954 280.074 348.889 281.597 346.791 280.016C347.742 278.611 348.496 277.11 351.988 271.703C353.634 269.154 355.719 266.888 357.267 264.259C357.267 264.259 359.287 267.068 360.039 269.835Z" fill="#FFF8ED"></path><path d="M378.899 211.929C387.226 229.192 396.813 247.384 405.14 264.647C407.271 264.511 410.862 262.926 410.492 260.683C409.05 251.944 409.158 243.951 407.662 234.749C406.77 229.256 405.508 223.767 403.273 218.673C401.221 213.996 397.807 209.092 393.551 205.909C390.875 203.908 384.081 202.87 380.81 204.763C379.535 205.501 378.593 206.739 378.298 208.068C378.003 209.397 378.324 210.737 378.899 211.929Z" fill="#FF9F75"></path><path d="M408.457 280.803C409.173 283.603 414.31 284.927 415.295 283.749C417.046 281.657 418.721 276.572 418.244 272.631C415.748 267.35 412.384 262.287 409.907 256.546C407.873 257.903 404.553 257.468 402.519 258.825C404.3 266.881 406.677 272.746 408.457 280.803Z" fill="#FF9F75"></path><path d="M415.227 290.743C415.221 290.815 415.224 290.78 415.227 290.743V290.743Z" fill="#00223D"></path><path d="M407.875 283.478C407.689 281.49 407.738 279.386 407.642 277.393C407.642 277.393 407.986 279.312 408.38 280.194C409.285 282.382 412.18 283.054 414.343 283.451C417.905 280.013 417.508 274.93 417.68 271.465C417.824 271.779 420.765 276.594 421.746 278.795C422.66 280.843 421.669 286.87 420.341 289.788C418.925 292.9 417.519 292.344 415.764 292.077C415.092 292.104 409.762 289.489 408.761 287.464C408.165 286.258 408.003 284.847 407.875 283.478Z" fill="#FFF8ED"></path><path d="M319.422 88.6673C325.534 81.8757 332.727 76.5485 336.956 72.3519C339.993 75.6243 347.9 76.8128 350.937 80.0851C347.68 86.3587 327.438 98.5548 322.274 99.151C318.136 98.0869 321.359 92.477 319.422 88.6673Z" fill="#FF9F75"></path><path d="M362.357 73.1323C353.804 80.0803 346.669 87.0909 346.669 87.0909C340.091 85.0274 334.657 73.2867 334.657 73.2867C341.112 67.2263 342.556 64.7817 351.843 57.0591C354.637 54.735 357.589 54.5903 359.115 54.655L362.357 73.1323Z" fill="#FFB830"></path><path d="M349.741 80.6214C350.385 76.8127 352.782 73.8838 355.507 67.4616C357.893 61.8344 359.116 54.6559 359.116 54.6559C361.715 54.296 381.958 55.529 388.207 56.3605L397.794 57.1555C395.948 60.0535 392.492 63.2516 392.476 66.439C392.445 72.4589 390.149 85.719 386.848 89.2161C383.96 92.2762 378.985 94.362 374.799 93.9385C372.711 93.7272 370.655 92.9409 368.758 91.8257C365.291 89.7882 361.23 89.112 357.224 89.4593C355.766 89.5856 354.385 89.4303 353.274 88.7801C350.483 87.1458 349.202 83.8089 349.741 80.6214Z" fill="#FFB830"></path><path d="M405.704 87.7074C404.321 88.9944 402.918 90.6122 402.159 92.4346C407.209 102.939 412.185 106.242 412.185 106.242L423.365 100.46C422.066 96.8463 417.256 86.6829 414.497 82.934C411.958 83.9981 407.711 85.8407 405.704 87.7074Z" fill="#FF9F75"></path><path d="M408.749 68.8616C407.396 66.0764 404.396 58.1098 397.793 57.1556C390.424 62.8321 388.844 70.9599 391.156 77.4853C393.219 83.3122 396.564 87.5512 400.322 92.4867C403.546 92.6961 406.595 91.2673 409.442 89.7411C412.716 87.9863 414.298 87.1856 416.568 84.8857C414.204 80.0225 411.111 73.7267 408.749 68.8616Z" fill="#FFB830"></path><path d="M434.786 74.3431C428.842 81.0856 417.663 91.6078 412.175 98.3445C410.887 99.9247 410.61 98.1265 410.06 100.089C409.509 102.051 410.821 104.728 412.186 106.243C415.208 109.119 418.04 110.438 421.602 107.136C427.609 101.568 435.399 89.0484 440.201 78.6709L434.786 74.3431Z" fill="#FF9F75"></path><path d="M434.005 74.9383C435.596 77.053 436.946 78.9159 438.555 81.0547C441.556 77.7466 444.77 75.2731 447.12 71.9217C446.675 68.5548 445.091 65.8275 441.883 63.3385C440.687 64.9525 439.409 66.798 437.724 68.1216L434.005 74.9383Z" fill="#FF9F75"></path><path d="M435.149 73.3118C435.182 70.1533 435.442 67.0796 435.917 64.1218C436.279 61.8663 437.629 60.0738 438.715 58.1617C439.919 59.959 440.316 61.7245 438.324 64.1614C438.396 64.0967 437.99 63.1137 438.062 63.05C439.297 65.1309 439.854 68.5142 439.515 70.9038C438.085 71.308 436.337 72.3904 435.149 73.3118Z" fill="#FF9F75"></path><path d="M444.195 67.1087C444.165 67.2592 445.821 62.4607 445.485 59.8849C445.238 57.9931 444.866 55.9816 444.834 54.1525C444.832 54.1496 444.83 54.1457 444.827 54.1428C444.486 53.6393 443.675 53.647 443.405 54.1293C442.668 55.4452 442.403 57.1759 442.829 58.652C442.194 60.4107 441.727 62.2697 441.442 64.1991C441.233 65.6192 443.006 66.118 444.195 67.1087Z" fill="#FF9F75"></path><path d="M446.013 69.4828C445.983 69.6362 447.598 64.7595 447.244 62.1529C446.984 60.2379 446.597 58.2033 446.551 56.351C446.549 56.3481 446.547 56.3442 446.545 56.3414C446.2 55.8339 445.393 55.8484 445.127 56.3394C444.403 57.6785 444.151 59.4333 444.587 60.9257C443.966 62.7124 443.514 64.6004 443.246 66.5578C443.048 67.9981 444.82 68.4892 446.013 69.4828Z" fill="#FF9F75"></path><path d="M445.704 73.277C445.647 73.4275 448.162 68.7601 448.27 66.0888C448.349 64.1333 448.322 62.0447 448.606 60.1934C448.604 60.1895 448.603 60.1866 448.601 60.1828C448.345 59.628 447.53 59.5258 447.176 59.9744C446.208 61.2005 445.64 62.911 445.81 64.4642C444.862 66.1583 444.066 67.9806 443.44 69.9033C442.978 71.3224 444.677 72.0894 445.704 73.277Z" fill="#FF9F75"></path><path d="M447.04 72.0336C446.992 72.131 448.109 70.08 448.319 68.3339C448.472 67.0469 448.553 65.6703 448.858 64.4296C448.755 64.2039 448.478 64.1209 448.327 64.1972C447.185 65.0529 446.481 66.1073 446.551 67.3749C445.767 68.5239 445.094 69.7424 444.546 71.0129C444.145 71.9449 446.337 71.3178 447.04 72.0336Z" fill="#FF9F75"></path><path d="M351.842 85.4385C353.835 96.1488 353.979 104.206 356.12 110.963L384.28 111.996C395.237 91.5374 399.554 76.6045 398.193 63.1051L351.842 85.4385Z" fill="#FFB830"></path><path d="M286.738 76.7637C291.051 79.2112 294.569 82.8183 298.032 86.3685C301.495 89.9177 305.033 93.5104 309.369 95.9154C313.706 98.3205 318.652 99.7203 322.274 99.1511C324.097 95.8711 322.883 88.9907 320.301 86.8075C312.633 80.3236 301.452 76.0894 291.561 73.2087C289.183 74.652 289.486 76.3267 286.738 76.7637Z" fill="#FF9F75"></path><path d="M381.843 39.4935C382.87 45.1111 383.945 52.5752 383.835 58.0143L371.107 58.5613C371.107 54.6899 371.107 50.8184 371.107 46.947L381.843 39.4935Z" fill="#89312B"></path><path d="M364.238 37.6799C361.744 34.0988 361.795 27.1364 363.32 23.0479C366.093 15.6118 375.506 14.2776 380.952 15.3214C383.114 15.7353 379.165 14.9404 382.323 18.5301C385.455 22.089 379.503 26.5412 377.09 30.621C374.676 34.7008 370.214 37.4966 365.49 37.8902L364.238 37.6799Z" fill="#2D1411"></path><path d="M383.369 31.5489C383.645 37.3488 379.168 42.2747 373.369 42.5525C367.569 42.8294 362.643 38.3521 362.366 32.5532C362.09 26.7533 366.567 21.8274 372.366 21.5495C378.165 21.2727 383.092 25.749 383.369 31.5489Z" fill="#FF9F75"></path><path d="M380.068 44.6017C380.378 44.2486 380.951 41.7943 380.889 40.0067L381.34 32.2252L371.513 32.695C371.301 32.6902 371.086 32.6921 370.87 32.7018C370.655 32.7114 370.441 32.7307 370.23 32.7558L362.747 34.7769C362.747 34.7769 362.442 40.7775 363.954 45.4381C364.23 46.288 365.458 48.9931 366.102 49.6134C366.883 50.3668 368.464 50.4739 369.546 50.3967C372.544 50.1807 378.085 46.862 380.068 44.6017Z" fill="#FF9F75"></path><path d="M362.283 32.6931C362.349 32.6583 362.427 32.6342 362.489 32.5927C362.555 32.5483 362.61 32.4856 362.672 32.4364C362.792 32.3419 362.927 32.2695 363.068 32.2107C363.34 32.0969 363.624 32.0843 363.908 32.1605C364.223 32.2435 364.511 32.3815 364.786 32.5532C364.938 32.6477 365.08 32.7606 365.214 32.8802C365.369 33.0201 365.497 33.1995 365.659 33.3288C365.736 33.3896 365.839 33.4185 365.932 33.3761C365.95 33.3684 365.967 33.3606 365.984 33.3529C366.136 33.2864 366.168 33.0915 366.174 32.9477C366.2 32.3921 365.636 31.9512 365.208 31.6724C364.853 31.4418 364.46 31.2836 364.031 31.273C363.675 31.2643 363.284 31.3656 362.971 31.5325C362.802 31.6222 362.647 31.7399 362.512 31.8759C362.441 31.9483 362.368 32.0264 362.31 32.1094C362.234 32.2174 362.2 32.3477 362.164 32.4741C362.148 32.5348 362.168 32.7538 362.283 32.6931Z" fill="#2D1411"></path><path d="M376.569 32.7539C376.187 32.3256 375.782 31.9445 375.267 31.6831C374.779 31.4352 374.23 31.2711 373.68 31.2692C373.153 31.2663 372.618 31.3821 372.133 31.5885C371.649 31.795 370.976 32.1452 370.795 32.6729C370.731 32.862 370.76 33.3463 371.062 33.3289C371.298 33.3154 371.489 33.1041 371.672 32.97C371.855 32.835 372.056 32.7231 372.263 32.6276C372.704 32.423 373.175 32.3102 373.663 32.3024C374.617 32.287 375.618 32.587 376.361 33.1958C376.582 33.3771 376.694 32.8938 376.569 32.7539Z" fill="#2D1411"></path><path d="M365.62 39.5185L365.308 39.3902C365.388 39.1953 365.486 38.9666 365.595 38.7168C365.844 38.1437 366.126 37.4935 366.339 36.8742C366.685 35.8689 366.684 35.2023 365.765 33.9067L366.04 33.7118C367.039 35.1184 367.035 35.8872 366.658 36.9841C366.44 37.616 366.143 38.301 365.905 38.8518C365.798 39.0988 365.7 39.3255 365.62 39.5185Z" fill="#2D1411"></path><path d="M366.565 36.1497C366.265 35.4715 365.696 34.9611 365.08 34.8203C364.463 34.6804 363.804 34.8897 363.321 35.3895L363.078 35.1541C363.646 34.5704 364.424 34.3234 365.156 34.4913C365.884 34.6582 366.526 35.2274 366.874 36.0127L366.565 36.1497Z" fill="#2D1411"></path><path d="M375.262 36.5916C374.896 35.8169 374.178 35.2651 373.386 35.1532C372.598 35.0403 371.772 35.3712 371.237 36.0157L370.977 35.7996C371.586 35.0664 372.522 34.6911 373.432 34.8184C374.336 34.9468 375.153 35.5709 375.567 36.4469L375.262 36.5916Z" fill="#2D1411"></path><path d="M365.944 35.6327C365.944 36.198 365.486 36.6563 364.92 36.6563C364.355 36.6563 363.897 36.198 363.897 35.6327C363.897 35.0674 364.355 34.6091 364.92 34.6091C365.486 34.6091 365.944 35.0674 365.944 35.6327Z" fill="#2D1411"></path><path d="M364.643 35.291C364.643 35.5004 364.474 35.6701 364.264 35.6701C364.055 35.6701 363.885 35.5004 363.885 35.291C363.885 35.0817 364.055 34.9119 364.264 34.9119C364.474 34.9119 364.643 35.0817 364.643 35.291Z" fill="#FFF8ED"></path><path d="M374.052 35.9866C374.052 36.5519 373.594 37.0102 373.029 37.0102C372.463 37.0102 372.005 36.5519 372.005 35.9866C372.005 35.4213 372.463 34.963 373.029 34.963C373.594 34.963 374.052 35.4213 374.052 35.9866Z" fill="#2D1411"></path><path d="M372.752 35.6461C372.752 35.8555 372.582 36.0253 372.373 36.0253C372.163 36.0253 371.993 35.8555 371.993 35.6461C371.993 35.4368 372.163 35.267 372.373 35.267C372.582 35.267 372.752 35.4368 372.752 35.6461Z" fill="#FFF8ED"></path><path d="M371.524 43.8618C369.33 43.1643 366.319 43.0668 365.526 43.6302C365.943 44.9384 366.815 45.7584 368.111 45.9205C369.409 46.0835 371.051 45.5655 371.524 43.8618Z" fill="#89312B"></path><path d="M368.837 44.3768C367.434 44.3768 366.092 44.1 364.889 43.5491L365.031 43.2423C367.206 44.2389 369.858 44.3035 372.498 43.4218L372.605 43.742C371.336 44.1656 370.063 44.3768 368.837 44.3768Z" fill="#2D1411"></path><path d="M368.037 40.2063C367.183 40.5083 366.205 40.4388 365.403 40.0182C365.417 40.7485 365.969 41.4778 366.677 41.6592C367.289 41.3707 367.969 40.8797 368.037 40.2063Z" fill="#89312B"></path><path d="M382.451 42.9868C383.337 43.5773 386.673 40.4361 387.199 39.8399C394.388 31.7092 390.546 11.6796 376.891 15.8993C375.211 16.4184 373.612 17.2007 372.161 18.1944C371.483 18.6594 368.472 22.116 368.036 22.0958C375.059 22.418 379.928 27.7298 380.811 34.123C380.958 35.1851 382.051 36.4759 381.881 37.5352C381.711 38.5945 380.663 39.4743 380.67 40.5471C380.678 41.6189 381.56 42.3916 382.451 42.9868Z" fill="#2D1411"></path><path d="M376.066 47.8094L375.866 47.5374C377.394 46.4154 378.894 44.6934 380.587 42.1195C381.793 40.2865 382.834 38.7024 382.38 36.581C382.262 36.0321 381.848 35.2275 381.235 35.3027C380.893 35.3375 380.616 35.6201 380.339 35.9317C379.635 36.7257 378.91 37.4425 378.209 38.1371C377.512 38.8278 376.79 39.5417 376.093 40.329L375.84 40.1051C376.545 39.3092 377.27 38.5915 377.972 37.8969C378.669 37.2071 379.39 36.4942 380.087 35.7079C380.396 35.3587 380.738 35.0133 381.201 34.9661C381.995 34.8956 382.539 35.7108 382.71 36.5096C383.194 38.769 382.116 40.4071 380.87 42.3047C379.154 44.9133 377.626 46.6624 376.066 47.8094Z" fill="#2D1411"></path><path d="M376.426 47.6723C377.475 44.6074 377.475 40.0182 377.245 38.5161C375.638 39.2841 374.286 39.724 372.593 39.2204C370.899 38.7158 369.274 37.9373 367.547 37.591C365.866 37.2533 364.112 37.3411 362.474 37.8727C361.781 39.422 360.917 41.1913 361.215 42.8834C361.329 43.5385 361.593 44.1511 361.878 44.7415C362.9 46.8456 364.258 48.7557 365.873 50.3581C366.694 51.1723 367.8 51.4106 368.908 51.3402C371.685 51.1637 376.426 47.6723 376.426 47.6723Z" fill="#FFF8ED"></path><path d="M367.108 49.8573C364.85 46.6727 364.076 42.2929 365.089 38.4253L365.322 38.487C364.327 42.2861 365.086 46.5898 367.304 49.7184L367.108 49.8573Z" fill="#E8D2C1"></path><path d="M380.002 42.212C381.861 41.3158 383.273 39.5416 383.729 37.5292C383.902 36.7671 383.911 35.8776 383.376 35.3084C382.923 34.8251 382.163 34.7103 381.535 34.9216C380.907 35.1329 380.403 35.6239 380.051 36.1854C379.698 36.7469 379.479 37.3787 379.262 38.0048C378.796 39.3526 379.765 40.8054 380.002 42.212Z" fill="#FF9F75"></path><path d="M380.67 40.547C381.587 40.0202 382.247 39.069 382.418 38.0261C382.492 37.5795 382.46 37.0701 382.141 36.7489C381.789 36.3938 381.157 36.4073 380.777 36.7324C380.397 37.0576 380.275 37.6268 380.422 38.1043C380.513 38.3976 380.693 38.6648 380.727 38.9706C380.761 39.2764 380.55 39.6459 380.245 39.6112C380.176 39.9884 380.292 40.4823 380.67 40.547Z" fill="#89312B"></path><path d="M293.35 74.0752C292.986 76.6963 291.833 77.4343 291.464 80.0854C287.235 78.6499 284.1 79.5924 280.42 77.8029C279.175 74.6434 279.236 71.4897 280.833 67.7572C282.662 68.5878 284.675 69.5815 286.791 69.9211L293.35 74.0752Z" fill="#FF9F75"></path><path d="M291.562 73.2088C290 70.4632 288.281 67.9018 286.43 65.547C285.019 63.7506 282.97 62.839 281.092 61.6938C280.911 63.85 281.42 65.5865 284.345 66.749C284.251 66.7268 284.128 65.6714 284.034 65.6502C283.964 68.0697 285.118 71.2967 286.575 73.2223C288.022 72.8808 290.075 72.9792 291.562 73.2088Z" fill="#FF9F75"></path><path d="M280.641 72.1746C280.741 72.2913 276.964 68.8994 276.007 66.4847C275.305 64.7105 274.655 62.7705 273.795 61.1565C273.795 61.1526 273.796 61.1488 273.796 61.1449C273.85 60.5391 274.563 60.1522 275.033 60.4426C276.315 61.2356 277.388 62.62 277.731 64.1172C279.141 65.3463 280.451 66.7451 281.636 68.2945C282.509 69.4348 281.201 70.7314 280.641 72.1746Z" fill="#FF9F75"></path><path d="M280.204 75.1335C280.304 75.2531 276.525 71.7733 275.57 69.321C274.869 67.5208 274.22 65.5537 273.36 63.9118C273.36 63.9079 273.361 63.9041 273.361 63.9002C273.416 63.2895 274.129 62.9104 274.6 63.2104C275.883 64.0295 276.955 65.4418 277.298 66.9584C278.709 68.2193 280.019 69.6509 281.204 71.2321C282.076 72.3965 280.765 73.6854 280.204 75.1335Z" fill="#FF9F75"></path><path d="M282.315 78.3006C282.438 78.4038 277.974 75.5434 276.583 73.2609C275.565 71.589 274.575 69.7502 273.428 68.2694C273.428 68.2655 273.427 68.2617 273.427 68.2578C273.381 67.6481 274.044 67.1629 274.573 67.3838C276.014 67.9858 277.342 69.2061 277.946 70.6465C279.597 71.6681 281.177 72.875 282.658 74.2526C283.751 75.2685 282.638 76.7638 282.315 78.3006Z" fill="#FF9F75"></path><path d="M280.544 77.8618C280.633 77.9226 278.66 76.6733 277.631 75.2474C276.873 74.1968 276.134 73.0324 275.266 72.0957C275.246 71.8487 275.448 71.6413 275.617 71.6345C277.031 71.8284 278.158 72.4082 278.712 73.5514C279.955 74.1746 281.134 74.9146 282.229 75.7597C283.032 76.379 280.811 76.8952 280.544 77.8618Z" fill="#FF9F75"></path><path d="M393.83 56.8275C388.064 62.7046 379.139 64.1971 371.114 62.3583C365.402 61.0501 363.32 56.4716 364.079 54.6608C374.741 54.6608 383.211 54.6608 393.83 56.8275Z" fill="#89312B"></path><path d="M386.525 116.937L390.757 106.679C377.951 106.13 363.744 105.736 350.937 105.187C352.022 108.593 353.107 111.997 354.191 115.403C364.654 116.471 376.019 117.413 386.525 116.937Z" fill="#0089CA"></path><path d="M392.127 190.536C399.282 207.197 407.935 224.946 415.09 241.607C408.309 248.399 398.787 252.259 390.929 252.509C386.265 237.975 381.319 223.312 376.654 208.777C380.534 204.87 388.247 194.444 392.127 190.536Z" fill="#0089CA"></path><path d="M337.641 193.284C336.463 211.579 337.161 235.947 339.68 254.106C348.892 256.694 360.261 254.496 367.26 247.97C363.797 230.191 359.5 212.33 356.037 194.551L337.641 193.284Z" fill="#0578A5"></path><path d="M69.3244 322.968H78.605L78.605 247.472H69.3244L69.3244 322.968Z" fill="#637271"></path><path d="M73.7625 323.956L108.313 325.421V321.458C108.313 319.544 106.98 317.89 105.11 317.482L73.7625 310.649V323.956Z" fill="#637271"></path><path d="M100.018 326.93C100.018 329.412 102.03 331.423 104.511 331.423C106.992 331.423 109.004 329.412 109.004 326.93C109.004 324.449 106.992 322.438 104.511 322.438C102.03 322.438 100.018 324.449 100.018 326.93Z" fill="#637271"></path><path d="M102.122 326.93C102.122 328.25 103.192 329.32 104.512 329.32C105.832 329.32 106.902 328.25 106.902 326.93C106.902 325.61 105.832 324.541 104.512 324.541C103.192 324.541 102.122 325.61 102.122 326.93Z" fill="#748889"></path><path d="M73.7626 323.956L39.212 325.421V321.458C39.212 319.544 40.5452 317.89 42.4149 317.482L73.7626 310.649V323.956Z" fill="#637271"></path><path d="M43.013 331.423C45.4942 331.423 47.5057 329.412 47.5057 326.93C47.5057 324.449 45.4942 322.438 43.013 322.438C40.5317 322.438 38.5202 324.449 38.5202 326.93C38.5202 329.412 40.5317 331.423 43.013 331.423Z" fill="#637271"></path><path d="M43.013 329.32C44.3328 329.32 45.4026 328.25 45.4026 326.93C45.4026 325.61 44.3328 324.541 43.013 324.541C41.6933 324.541 40.6234 325.61 40.6234 326.93C40.6234 328.25 41.6933 329.32 43.013 329.32Z" fill="#748889"></path><path d="M66.6999 326.93C66.6999 329.412 64.6884 331.423 62.2071 331.423C59.7259 331.423 57.7144 329.412 57.7144 326.93C57.7144 324.449 59.7259 322.438 62.2071 322.438C64.6884 322.438 66.6999 324.449 66.6999 326.93Z" fill="#748889"></path><path d="M64.5958 326.93C64.5958 328.25 63.5259 329.32 62.2062 329.32C60.8864 329.32 59.8165 328.25 59.8165 326.93C59.8165 325.61 60.8864 324.541 62.2062 324.541C63.5269 324.541 64.5958 325.61 64.5958 326.93Z" fill="#748889"></path><path d="M73.6314 323.956L57.179 325.421V321.458C57.179 319.544 57.8138 317.89 58.7042 317.482L73.6314 310.65V323.956Z" fill="#748889"></path><path d="M69.9258 255.271L41.1115 274.868H29.5319V271.601L39.6615 271.304L65.4225 255.271H69.9258Z" fill="#637271"></path><path d="M134.5 241.858C133.96 236.568 128.953 230.824 123.869 230.741C109.183 231.878 97.156 227.417 82.664 224.684C80.5667 193.936 70.629 162.868 60.0229 133.545C56.7023 124.364 48.9816 117.615 39.7125 116.105C34.4336 115.246 29.0736 114.925 23.7357 115.158C18.1423 115.403 12.3588 116.336 7.68756 119.549C2.44429 123.156 -0.846387 131.618 0.190691 138.093C6.45271 177.184 12.2652 218.31 18.5224 257.42C49.38 257.234 100.405 257.049 131.264 256.863V257.287C133.133 252.34 135.038 247.149 134.5 241.858Z" fill="#3DB2FF"></path><path d="M36.7605 271.403L31.6292 268.18C28.05 268.18 24.5886 267.993 21.0095 267.973C19.8721 267.966 19.0347 268.969 18.7916 270.08C18.5485 271.191 18.9681 272.387 19.7399 273.223C20.5117 274.058 21.598 274.559 22.7141 274.78C23.3113 274.898 23.9808 274.863 24.5886 274.863H35.7273C36.5772 274.029 36.747 272.592 36.7605 271.403Z" fill="#637271"></path><path d="M37.9269 157.844C39.593 151.863 38.609 145.468 37.0548 139.458C35.5007 133.448 33.3783 127.538 32.7531 121.361C32.0084 113.991 33.4815 106.412 36.9333 99.8583C38.4672 96.9458 40.5876 94.0728 43.695 92.9875C48.0623 91.4633 52.748 93.9165 56.5847 96.5001C55.2794 97.8507 54.4864 99.1888 53.1812 100.538C50.3439 99.7975 46.9867 101.232 45.6592 103.846C44.6617 105.811 44.7253 108.132 44.9434 110.325C45.5203 116.124 47.006 121.79 47.9668 127.539C48.9277 133.287 49.3512 139.26 47.8211 144.884C46.2911 150.507 42.5354 155.766 37.1156 157.908C37.1455 157.544 37.8295 158.195 37.9269 157.844Z" fill="#8F352B"></path><path d="M82.6032 179.236C84.6706 184.206 87.0834 189.865 90.4261 194.616C90.4261 194.616 91.1632 193.809 91.387 193.625C95.3347 190.399 99.0305 187.35 103.66 185.215C100.718 181.022 98.5646 176.277 97.3471 171.301C96.2444 170.63 95.0433 171.422 94.0313 172.223C90.6307 174.915 86.0029 176.544 82.6032 179.236Z" fill="#F2816B"></path><path d="M84.2655 182.746C90.4252 181.651 95.9685 179.923 99.9258 175.077C97.8671 167.105 93.522 154.153 89.4277 147.01C87.97 144.467 85.4154 140.965 83.4831 140.965C80.3458 153.036 79.2769 167.216 82.6023 179.237C82.4586 178.83 84.4102 183.153 84.2655 182.746Z" fill="#0578A5"></path><path d="M90.0557 192.087C89.6119 193.953 90.8998 195.895 92.5997 196.782C94.2995 197.671 96.3023 197.729 98.2182 197.65C111.125 197.124 123.952 190.724 132.358 180.914C132.474 178.167 132.82 175.83 132.936 173.082C123.141 175.224 113.439 177.79 103.865 180.769C97.6133 182.716 91.5722 185.718 90.0557 192.087Z" fill="#F2816B"></path><path d="M54.3513 209.561C51.3934 216.801 48.5031 225.374 52.4758 232.096C55.6951 237.544 62.1916 240.694 68.4459 241.041C94.996 242.51 111.057 238.126 132.496 232.84C139.959 230.126 141.598 224.693 137.991 216.987C113.149 209.117 80.3486 210.792 54.3513 209.561Z" fill="#1A1A1A"></path><path d="M40.4651 140.31C54.6484 137.597 69.3913 137.804 83.4831 140.964C84.8346 149.275 87.67 157.196 91.9688 164.417C93.876 167.622 93.5413 172.631 91.0629 175.418C89.6535 177.003 87.7693 178.14 85.7289 178.715C84.662 186.234 82.2656 198.202 80.1741 205.503H42.4225C40.7699 194.901 36.6293 184.876 33.52 174.605C31.4314 167.706 29.8946 160.317 29.8878 153.05C29.882 146.817 34.3429 141.481 40.4651 140.31Z" fill="#0089CA"></path><path d="M50.2906 198.554C45.7391 195.566 40.4225 191.81 38.7072 186.642C42.0895 182.751 50.3012 176.748 55.3458 177.815C57.4672 180.356 60.5244 183.754 62.6458 186.295C60.8505 189.444 58.2303 194.034 55.3304 196.209C54.6792 196.696 51.1049 198.523 50.2906 198.554Z" fill="#FF9F75"></path><path d="M76.81 138.659L79.5913 147.413L73.4113 144.832L76.81 138.659Z" fill="#97ABAF"></path><path d="M76.81 138.66C74.6847 137.512 70.9677 136.56 67.2621 132.92C67.6866 134.476 68.5346 136.211 68.9601 137.766C68.9601 137.766 73.1894 150 74.6143 151.832C76.1762 148.658 75.9678 140.06 76.81 138.66Z" fill="#FFF8ED"></path><path d="M54.5201 141.001C54.25 132.86 55.0681 123.092 55.782 119.675L66.8946 126.368C67.2091 130.464 67.3828 135.307 69.5225 138.814C69.5225 138.814 71.3217 142.434 72.492 145.619C73.6593 148.795 74.6134 151.832 74.6134 151.832L54.5201 141.001Z" fill="#F2816B"></path><path d="M56.3946 120.696C53.0055 118.214 50.5638 114.471 49.6579 110.369C48.752 106.267 48.9102 101.54 51.3597 98.1275C54.1661 94.2185 59.1431 91.9813 63.9291 92.4791C68.715 92.9759 73.1258 96.1884 75.0687 100.59C70.2007 101.478 65.4205 104.359 62.0671 107.997C58.7138 111.634 56.8827 115.772 56.3946 120.696Z" fill="#8F352B"></path><path d="M74.4628 119.075C78.2426 116.319 80.2415 111.318 79.4022 106.717C78.5629 102.116 74.9269 98.143 70.4178 96.9004C70.2074 104.421 71.3892 112.207 74.4628 119.075Z" fill="#8F352B"></path><path d="M77.3156 110.94C77.9108 116.796 73.721 122.017 67.9587 122.603C62.1964 123.188 57.0429 118.915 56.4477 113.059C55.8524 107.204 60.0422 101.983 65.8045 101.397C71.5678 100.811 76.7213 105.084 77.3156 110.94Z" fill="#FF9F75"></path><path d="M57.4664 115.521L57.585 122.51C58.4996 128.202 63.467 130.843 67.5555 132.428C69.7454 133.277 71.9913 132.898 72.956 132.264C74.9356 130.077 76.5863 127.292 76.9538 123.721C77.2963 120.393 76.6441 118.095 76.9866 114.767L57.4664 115.521Z" fill="#FF9F75"></path><path d="M72.849 117.056L72.5741 116.861C73.0526 116.19 73.8253 115.723 74.6434 115.612C75.4586 115.499 76.3298 115.744 76.9703 116.262L76.7581 116.524C76.187 116.062 75.4114 115.847 74.6888 115.946C73.9623 116.045 73.2745 116.46 72.849 117.056Z" fill="#2D1411"></path><path d="M63.3155 117.567L63.0589 117.346C63.7679 116.522 64.7452 115.954 65.8112 115.745C66.4142 115.629 66.9573 115.646 67.4262 115.8C67.9963 115.987 68.4565 116.393 68.6562 116.886L68.3436 117.013C68.1806 116.611 67.7976 116.276 67.32 116.121C66.9062 115.984 66.4209 115.969 65.8749 116.077C64.8841 116.27 63.9753 116.8 63.3155 117.567Z" fill="#2D1411"></path><path d="M73.2628 121.329C72.2885 119.544 72.1727 117.359 72.9541 115.483L73.2657 115.613C72.5345 117.369 72.6464 119.497 73.559 121.167L73.2628 121.329Z" fill="#2D1411"></path><path d="M73.9285 125.188C71.89 124.826 69.757 125.015 67.8131 125.726C68.2945 126.993 69.648 127.991 71.0044 127.95C72.3598 127.91 73.5233 126.483 73.9285 125.188Z" fill="#FA3A4F"></path><path d="M67.9858 116.806C68.0813 117.399 67.6771 117.958 67.0838 118.053C66.4905 118.149 65.9319 117.744 65.8364 117.151C65.7409 116.558 66.1451 115.999 66.7384 115.904C67.3317 115.808 67.8903 116.212 67.9858 116.806Z" fill="#2D1411"></path><path d="M67.9009 117.551C67.9327 117.751 67.7967 117.939 67.5979 117.971C67.3982 118.003 67.2101 117.867 67.1783 117.667C67.1464 117.467 67.2825 117.279 67.4812 117.247C67.6809 117.216 67.869 117.352 67.9009 117.551Z" fill="#FFF8ED"></path><path d="M76.7618 116.692C76.8573 117.285 76.4531 117.844 75.8598 117.939C75.2665 118.035 74.7079 117.63 74.6124 117.037C74.5169 116.444 74.9211 115.885 75.5145 115.79C76.1078 115.694 76.6663 116.098 76.7618 116.692Z" fill="#2D1411"></path><path d="M76.6769 117.436C76.7087 117.636 76.5737 117.824 76.374 117.856C76.1743 117.888 75.9861 117.752 75.9543 117.552C75.9225 117.353 76.0585 117.164 76.2582 117.133C76.4569 117.102 76.6451 117.237 76.6769 117.436Z" fill="#FFF8ED"></path><path d="M70.0503 126.195C68.8145 126.195 67.5797 125.985 66.4307 125.56L66.5474 125.244C69.1049 126.189 72.0926 126.038 74.5401 124.84L74.6877 125.143C73.26 125.841 71.6537 126.195 70.0503 126.195Z" fill="#2D1411"></path><path d="M57.0478 114.912L56.9301 114.595C61.498 112.896 64.8244 108.307 65.0202 103.438L65.3579 103.451C65.1572 108.453 61.7402 113.167 57.0478 114.912Z" fill="#8F352B"></path><path d="M62.6478 114.054C62.9556 113.968 63.2836 113.946 63.5827 113.835C63.8682 113.729 64.1538 113.628 64.448 113.545C64.7326 113.464 64.9912 113.401 65.2854 113.426C65.4475 113.44 65.6086 113.503 65.8141 113.559C66.091 113.635 66.3726 113.673 66.6534 113.735C66.9775 113.806 67.2891 113.916 67.6094 114.001C67.9866 114.101 68.3185 114.237 68.7131 114.215C69.1974 114.189 69.181 113.403 68.9832 113.115C68.4912 112.395 67.6702 112.159 66.8483 112.023C66.5376 111.971 66.2308 111.926 65.9163 111.961C65.6578 111.989 65.4359 112.049 65.2323 112.073C64.8648 112.116 64.5464 112.262 64.2165 112.427C63.9068 112.582 63.5981 112.749 63.3106 112.943C63 113.152 62.754 113.476 62.5321 113.774C62.4684 113.859 62.507 114.094 62.6478 114.054Z" fill="#8F352B"></path><path d="M77.6813 113.155C77.5849 112.943 77.3466 112.789 77.1488 112.685C76.9867 112.599 76.7774 112.591 76.597 112.568C76.3905 112.542 76.1822 112.525 75.9747 112.516C75.8667 112.512 75.7567 112.516 75.6487 112.51C75.5889 112.506 75.5715 112.49 75.4798 112.477C75.4229 112.469 75.366 112.464 75.3091 112.459C75.0168 112.43 74.7544 112.498 74.4688 112.568C74.2334 112.625 74.0086 112.683 73.8003 112.809C73.672 112.886 73.5321 112.965 73.4163 113.06C73.2455 113.198 73.1684 113.394 73.0854 113.592C72.9658 113.876 73.04 114.393 73.3603 114.527C73.5176 114.593 73.6459 114.636 73.8205 114.586C73.9295 114.554 74.0385 114.52 74.1476 114.489C74.1659 114.485 74.1852 114.48 74.2035 114.475C74.108 114.496 74.1456 114.487 74.3164 114.449C74.3636 114.433 74.409 114.412 74.4543 114.394C74.5556 114.352 74.6579 114.313 74.7611 114.277C74.9878 114.197 75.2174 114.143 75.4316 114.033C75.5358 113.98 75.6699 113.892 75.7519 113.856C75.8098 113.83 75.9516 113.801 76.0375 113.777C76.214 113.73 76.3712 113.693 76.5545 113.66C76.7205 113.63 76.898 113.625 77.062 113.584C77.227 113.543 77.4324 113.387 77.5916 113.414C77.7055 113.432 77.7084 113.214 77.6813 113.155Z" fill="#8F352B"></path><path d="M62.7299 130.128C61.2491 128.637 59.9544 127.008 58.8122 125.569C58.1629 124.752 57.5494 123.98 56.9532 123.293C56.4158 122.675 55.8592 122.034 55.482 121.277C55.0517 120.414 54.9408 119.523 55.1684 118.77C55.4444 117.865 56.2586 117.201 57.1056 117.191C57.1133 117.191 57.121 117.191 57.1288 117.191C57.9719 117.191 58.6714 117.762 59.3168 118.348C60.4995 119.422 61.9524 120.497 62.5679 120.828L62.4077 121.126C61.6977 120.744 60.1783 119.586 59.09 118.598C58.4639 118.029 57.8455 117.534 57.1095 117.528C56.4052 117.537 55.7241 118.1 55.4907 118.868C55.2871 119.539 55.3903 120.34 55.783 121.127C56.1418 121.846 56.6831 122.47 57.2079 123.072C57.8099 123.765 58.4244 124.54 59.0765 125.36C60.213 126.791 61.5019 128.413 62.9692 129.891L62.7299 130.128Z" fill="#2D1411"></path><path d="M62.564 130.272C65.1977 132.121 68.5743 133.775 71.7877 133.61C73.1615 133.54 74.6327 131.768 75.2559 130.541C76.8815 127.345 77.1468 124.226 77.2568 120.642C75.7557 120.502 74.5903 119.215 73.1326 118.827C71.9547 118.513 70.7304 118.977 69.5583 119.313C67.0905 120.019 65.0887 119.944 61.9013 120.223C61.6263 123.895 61.8646 126.656 62.564 130.272Z" fill="#FFF8ED"></path><path d="M72.7244 132.979L72.5209 132.85C77.74 124.599 72.6993 119.466 72.6472 119.416L72.817 119.244C72.8701 119.296 78.0516 124.558 72.7244 132.979Z" fill="#E8D2C1"></path><path d="M66.5175 104.608C60.6703 106.494 58.0443 113.618 57.1935 116.024C54.991 113.747 52.3467 110.706 52.6274 107.55C52.9197 104.266 55.537 101.646 58.3608 99.9432C60.5873 98.6004 63.0763 97.6241 65.6695 97.4224C68.2627 97.2208 70.9649 97.8392 73.0352 99.4136C75.1055 100.987 76.458 103.567 76.2776 106.162C75.8695 105.714 71.7859 102.908 66.5175 104.608Z" fill="#8F352B"></path><path d="M55.2138 126.023C51.681 123.62 49.1004 120.375 47.2915 116.506C45.4498 112.566 44.7253 107.959 46.0731 103.824C47.4208 99.6895 51.0964 96.2021 55.427 95.8065C54.6726 99.1213 53.9259 102.572 54.3678 105.944C54.6803 108.328 55.5823 110.595 56.0531 112.953C56.6657 116.022 56.7024 117.022 56.5712 120.149C56.5143 121.471 56.2364 125.184 55.2138 126.023Z" fill="#8F352B"></path><path d="M58.8122 118.844C58.5556 117.669 57.8957 116.584 56.8721 115.953C56.7486 115.876 56.6223 115.807 56.4901 115.745C55.699 115.373 54.6909 115.331 54.005 115.873C53.2901 116.437 53.1155 117.462 53.2226 118.367C53.513 120.828 55.6691 122.94 58.1359 123.18C58.7466 123.239 59.1846 123.336 59.7981 123.353C59.4585 121.695 59.1412 120.354 58.8122 118.844Z" fill="#FF9F75"></path><path d="M57.8726 120.115C57.7616 120.25 57.5281 120.22 57.4114 120.089C57.2956 119.957 57.2773 119.765 57.3043 119.592C57.3313 119.419 57.3979 119.255 57.4307 119.083C57.5542 118.441 57.1326 117.739 56.5075 117.546C55.8823 117.353 55.1385 117.694 54.8771 118.294C54.6986 118.704 54.7362 119.181 54.8732 119.606C55.2832 120.884 56.6281 121.796 57.9671 121.703C58.4996 121.252 58.4263 120.539 57.8726 120.115Z" fill="#F2816B"></path><path d="M66.4403 142.996C67.8121 144.833 74.6134 151.833 74.6134 151.833C70.551 150.598 65.2933 147.195 61.8222 145.578C63.4342 144.223 64.4742 143.746 66.4403 142.996Z" fill="#97ABAF"></path><path d="M66.3689 142.915C64.9884 144.72 63.7776 146.996 62.2813 150.418C58.3578 147.957 52.28 142.435 49.1505 139.021C50.2667 136.036 53.1936 129.56 53.1936 129.56C56.5962 133.227 61.8221 138.659 66.3689 142.915Z" fill="#FFF8ED"></path><path d="M52.851 190.393C52.0309 192.714 50.2906 198.553 50.2906 198.553C56.2014 199.498 80.9659 198.935 94.2598 185.716C95.9346 184.05 92.8889 177.765 92.7413 177.814C79.7648 182.12 69.6159 180.63 58.8602 182.746C56.7156 183.169 53.5784 188.331 52.851 190.393Z" fill="#FF9F75"></path><path d="M97.3643 170.211C99.0535 167.996 99.6131 167.504 101.588 165.54C102.288 164.843 103.037 164.037 103.744 163.348C104.184 164.148 104.65 165.119 104.58 166.031C104.477 167.371 103.289 168.38 102.93 169.675C100.858 170.405 99.4355 169.481 97.3643 170.211Z" fill="#F2816B"></path><path d="M106.378 187.952C101.604 187.459 98.2538 187.825 96.1584 186.039C98.9522 171.491 102.087 157.306 106.771 142.555C108.11 142.651 111.677 142.22 113.016 142.316C109.61 157.822 106.525 172.077 106.378 187.952Z" fill="#FFF8ED"></path><path d="M131.299 189.354C134.937 173.553 139.185 156.593 142.825 140.791C130.651 140.896 119.849 140.409 107.675 140.513C104.101 155.924 100.202 173.942 96.6283 189.353L131.299 189.354Z" fill="#C15C34"></path><path d="M131.438 137.767C128.576 137.817 125.741 137.892 122.879 137.943C121.693 137.964 120.677 138.805 120.445 139.97L119.794 143.231C123.862 143.124 127.601 143.199 131.67 143.092C132.069 141.92 132.406 140.711 132.764 139.515C133.027 138.634 132.357 137.751 131.438 137.767Z" fill="#252120"></path><path d="M94.2599 185.716C99.2996 184.89 103.154 181.756 106.023 177.53C104.168 173.984 101.041 171.792 97.3644 170.211C94.6583 175.901 93.5441 177.688 91.2722 178.741C91.6339 181.347 92.589 183.683 94.2599 185.716Z" fill="#FF9F75"></path><path d="M97.3643 170.211C99.4935 168.576 101.623 166.939 103.753 165.304C106.206 164.82 108.549 164.212 111.003 163.728C111.218 164.209 110.72 164.744 110.471 165.208C110.221 165.672 109.818 166.036 109.383 166.334C108.292 167.082 106.952 167.459 105.631 167.393C103.737 169.78 101.397 171.826 98.6821 173.208L97.3643 170.211Z" fill="#FF9F75"></path><path d="M99.6556 171.622C101.785 169.987 103.915 168.351 106.044 166.716C108.497 166.231 110.841 165.625 113.294 165.139C113.509 165.621 113.011 166.154 112.762 166.619C112.513 167.083 112.109 167.448 111.674 167.746C110.583 168.494 109.243 168.871 107.922 168.804C106.029 171.191 103.688 173.237 100.973 174.62L99.6556 171.622Z" fill="#FF9F75"></path><path d="M99.9258 175.077C102.055 173.442 104.185 171.806 106.314 170.17C108.767 169.686 111.111 169.079 113.564 168.594C113.779 169.075 113.281 169.609 113.033 170.074C112.783 170.538 112.379 170.903 111.944 171.2C110.853 171.947 109.513 172.325 108.193 172.258C106.299 174.645 103.958 176.691 101.244 178.073L99.9258 175.077Z" fill="#FF9F75"></path><path d="M98.195 179.75C100.324 178.115 102.454 176.479 104.583 174.843C107.037 174.359 109.38 173.752 111.833 173.267C112.048 173.748 111.551 174.282 111.302 174.747C111.052 175.211 110.649 175.576 110.214 175.874C109.122 176.621 107.782 176.999 106.462 176.932C104.568 179.319 102.228 181.365 99.5129 182.747L98.195 179.75Z" fill="#FF9F75"></path><path d="M130.976 176.124C131.941 176.94 132.72 177.387 133.669 178.034C132.721 176.644 131.848 176.025 131.348 174.787C130.94 173.779 130.758 172.709 131.493 171.893C132.579 172.911 133.709 174.034 134.795 175.052C134.184 174.163 133.573 173.275 132.963 172.387C132.539 171.771 132.105 171.131 131.96 170.397C131.816 169.663 132.034 168.807 132.674 168.42C133.512 169.503 134.459 170.659 135.566 171.464C134.503 170.135 133.406 168.732 133.097 167.058C133.021 166.644 132.995 166.21 133.114 165.807C133.234 165.403 133.393 165.298 133.787 165.15C135.063 166.521 136.339 167.892 137.616 169.262C138.063 169.742 138.398 170.285 138.424 170.942C138.45 171.598 138.107 172.319 137.478 172.508C137.988 173.045 138.285 173.772 138.116 174.493C137.948 175.215 137.399 175.836 136.704 176.092C137.191 176.409 137.323 177.11 137.274 177.689C137.225 178.269 136.596 179.234 136.061 179.464C136.376 179.966 136.001 180.99 135.653 181.468C135.155 182.154 134.113 183.223 132.721 183.243C132.929 182.373 133.15 181.279 133.363 180.409C132.523 179.863 131.631 179.393 131.222 178.688C130.723 177.827 130.606 177.348 130.976 176.124Z" fill="#FF9F75"></path><path d="M41.8407 201.177C38.4574 208.419 33.9762 224.178 38.5201 230.901C42.2024 236.348 46.5321 240.694 53.6856 241.041C84.0531 242.51 102.423 238.126 126.945 232.84C135.481 230.126 142.117 224.693 137.991 216.987C128.811 209.561 100.018 202.568 81.3181 201.177C81.3181 201.177 69.0912 201.177 41.8407 201.177Z" fill="#1A1A1A"></path><path d="M129.861 291.578C129.861 291.578 120.532 267.509 117.82 255.567C115.485 245.286 115.788 238.432 121.175 230.471C123.164 227.532 129.174 219.582 132.349 220.405C136.31 242.37 135.89 266.853 136.35 288.975C134.543 289.431 131.668 291.122 129.861 291.578Z" fill="#F2816B"></path><path d="M124.972 295.989C126.839 301.157 129.165 305.892 131.031 311.06C131.319 311.033 132.364 310.881 132.651 310.854C132.071 307.336 129.748 298.066 129.363 296.927C127.861 296.372 126.596 294.922 124.972 295.989Z" fill="#00223D"></path><path d="M128.981 297.903C131.934 300.681 134.327 304.16 136.169 307.984C136.71 309.106 137.827 311.855 139.645 312.088C140.747 312.23 142.518 312.296 143.588 312.249C147.519 312.078 155.63 310.92 157.033 308.64C157.074 307.675 156.158 306.856 155.415 306.335C152.476 304.268 147.689 302.919 144.518 301.465C139.955 299.371 133.771 298.208 128.981 297.903Z" fill="#00223D"></path><path d="M126.887 277.411C128.699 276.972 131.305 275.09 133.117 274.651C134.992 279.112 136.35 288.974 136.35 288.974C139.411 292.747 146.086 302.142 147.609 304.538C145.702 305.644 143.979 305.458 141.859 304.57C139.98 303.783 136.374 300.728 134.858 298.417C134.575 298.772 134.247 299.03 133.866 299.158C131.361 297.144 128.762 295.585 126.258 293.572C126.833 287.812 127.416 283.276 126.887 277.411Z" fill="#F2816B"></path><path d="M125.032 295.888C125.032 295.888 134.204 302.092 138.715 303.629C138.715 303.629 138.106 305.302 139.829 303.351C138.635 302.154 137.615 300.825 133.184 296.186C131.095 294 128.639 292.173 126.629 289.89C126.629 289.89 125.22 293.03 125.032 295.888Z" fill="#00223D"></path><path d="M140.39 220.277C146.657 238.39 152.686 258.049 158.953 276.162C157.346 277.568 153.682 278.976 152.363 277.124C147.223 269.911 141.512 264.319 136.083 256.739C132.842 252.215 129.867 247.432 127.86 242.244C126.018 237.48 124.982 231.595 125.755 226.338C126.243 223.032 130.328 217.506 133.982 216.542C135.406 216.165 136.946 216.38 138.093 217.114C139.241 217.85 139.957 219.026 140.39 220.277Z" fill="#FF9F75"></path><path d="M167.992 289.958C169.459 292.448 166.749 297.009 165.22 296.869C162.504 296.62 157.73 294.195 155.289 291.065C153.337 285.56 152.151 279.598 149.86 273.78C152.259 273.309 154.307 270.66 156.707 270.187C161.125 277.154 163.574 282.99 167.992 289.958Z" fill="#FF9F75"></path><path d="M170.202 301.78C170.23 301.804 170.258 301.828 170.202 301.78V301.78Z" fill="#00223D"></path><path d="M170.292 291.444C169.022 289.903 167.504 288.445 166.167 286.964C166.167 286.964 167.276 288.567 167.619 289.47C168.521 291.66 166.94 294.178 165.687 295.984C160.737 296.057 157.434 292.173 154.871 289.838C154.989 290.162 156.299 295.65 157.155 297.903C157.952 299.999 162.903 303.574 165.902 304.707C169.1 305.915 169.706 304.528 170.763 303.102C171.259 302.647 173.195 297.035 172.476 294.893C172.047 293.62 171.166 292.505 170.292 291.444Z" fill="#00223D"></path><path d="M465.673 247.473H456.392V322.968H465.673V247.473Z" fill="#637271"></path><path d="M461.235 323.956L426.684 325.421V321.458C426.684 319.544 428.018 317.89 429.887 317.482L461.235 310.649V323.956Z" fill="#637271"></path><path d="M434.978 326.93C434.978 329.412 432.967 331.423 430.486 331.423C428.004 331.423 425.993 329.412 425.993 326.93C425.993 324.449 428.004 322.438 430.486 322.438C432.967 322.438 434.978 324.449 434.978 326.93Z" fill="#637271"></path><path d="M432.875 326.93C432.875 328.25 431.805 329.32 430.486 329.32C429.166 329.32 428.096 328.25 428.096 326.93C428.096 325.61 429.166 324.541 430.486 324.541C431.805 324.541 432.875 325.61 432.875 326.93Z" fill="#748889"></path><path d="M461.235 323.956L495.786 325.421V321.458C495.786 319.544 494.452 317.89 492.583 317.482L461.235 310.649V323.956Z" fill="#637271"></path><path d="M487.492 326.93C487.492 329.412 489.503 331.423 491.985 331.423C494.466 331.423 496.477 329.412 496.477 326.93C496.477 324.449 494.466 322.438 491.985 322.438C489.503 322.438 487.492 324.449 487.492 326.93Z" fill="#637271"></path><path d="M489.595 326.93C489.595 328.25 490.665 329.32 491.985 329.32C493.304 329.32 494.374 328.25 494.374 326.93C494.374 325.61 493.304 324.541 491.985 324.541C490.665 324.541 489.595 325.61 489.595 326.93Z" fill="#748889"></path><path d="M468.298 326.93C468.298 329.412 470.309 331.423 472.79 331.423C475.272 331.423 477.283 329.412 477.283 326.93C477.283 324.449 475.272 322.438 472.79 322.438C470.309 322.438 468.298 324.449 468.298 326.93Z" fill="#748889"></path><path d="M470.401 326.93C470.401 328.25 471.471 329.32 472.79 329.32C474.11 329.32 475.18 328.25 475.18 326.93C475.18 325.61 474.11 324.541 472.79 324.541C471.471 324.541 470.401 325.61 470.401 326.93Z" fill="#748889"></path><path d="M461.366 323.956L477.819 325.421V321.458C477.819 319.544 477.184 317.89 476.293 317.482L461.366 310.65V323.956Z" fill="#748889"></path><path d="M465.071 255.271L493.885 274.868H505.466V271.601L495.336 271.304L469.574 255.271H465.071Z" fill="#637271"></path><path d="M526.955 119.549C522.068 116.335 516.016 115.403 510.163 115.158C504.577 114.925 498.969 115.246 493.445 116.105C483.746 117.615 475.667 124.364 472.192 133.545C461.093 162.868 450.695 193.936 448.501 224.684C433.336 227.417 420.75 231.878 405.383 230.741C400.064 230.825 394.823 236.568 394.26 241.858C393.696 247.149 395.69 252.34 397.647 257.287V256.863C429.937 257.049 483.329 257.234 515.618 257.42C522.166 218.31 528.249 177.184 534.801 138.093C535.884 131.618 532.44 123.156 526.955 119.549Z" fill="#3DB2FF"></path><path d="M498.236 271.403L503.368 268.18C506.948 268.18 510.408 267.993 513.987 267.973C515.125 267.966 515.962 268.969 516.205 270.08C516.448 271.191 516.029 272.387 515.256 273.223C514.484 274.058 513.398 274.559 512.282 274.78C511.685 274.898 511.015 274.863 510.407 274.863H499.268C498.42 274.029 498.251 272.592 498.236 271.403Z" fill="#637271"></path><path d="M386.031 313.66L383.92 314.691C383.92 314.691 383.964 316.511 384.612 317.105C386.054 318.425 387.963 318.915 387.963 318.915C392.234 320.105 396.758 320.395 401.177 319.766L411.685 318.269L413.931 314.935L415.437 316.776L420.678 314.572L420.488 310.906L414.451 309.211L386.031 313.66Z" fill="#141414"></path><path d="M416.273 293.298C411.979 293.804 408.179 293.815 403.885 294.321C403.75 297.331 402.299 303.11 401.443 305.927L418.37 302.98C417.53 299.789 417.112 296.488 416.273 293.298Z" fill="#141414"></path><path d="M417.919 301.092C414.326 299.298 410.511 300.338 406.459 301.01L403.466 301.459C400.295 306.127 398.045 308.243 392.343 310.264C390.673 309.814 388.199 310.205 386.833 311.116C385.418 312.06 384.586 313.657 384.693 315.226C387.843 315.981 390.973 317.024 394.098 317.855C397.455 318.747 405.541 317.119 411.264 315.657C411.264 315.657 417.866 312.16 420.489 310.907C420.034 308.062 419.132 303.897 417.919 301.092Z" fill="#141414"></path><path d="M442.795 301.156C438.501 301.662 434.701 301.673 430.407 302.178C430.272 305.189 428.821 310.968 427.964 313.785L444.891 310.838C444.052 307.647 443.633 304.346 442.795 301.156Z" fill="#1A1A1A"></path><path d="M446.233 318.001C445.778 315.156 444.439 308.95 444.439 308.95C440.846 307.155 437.031 308.195 432.98 308.868L429.987 309.316C429.987 309.316 428.196 313.164 424.899 318.357C423.229 317.907 417.923 319.003 416.435 322.949C415.873 324.44 417.004 326.247 417.088 326.815C422.579 328.105 426.39 328.619 433.831 327.955C436.413 327.724 440.433 324.187 440.901 323.991L446.233 318.001Z" fill="#1A1A1A"></path><path d="M442.81 322.614L443.295 324.168L446.978 321.567L446.234 318.002L440.901 318.1L417.71 324.984L416.28 326.968L416.995 329.282C416.995 329.282 426.143 332.919 433.088 330.715C439.414 328.707 441.721 325.611 442.083 325.073L442.81 322.614Z" fill="#1A1A1A"></path><path d="M441.273 195.606C435.113 194.51 431.851 190.062 427.892 185.215C429.951 177.244 437.003 151.524 441.097 144.381C442.555 141.838 445.287 136.918 447.221 136.918C450.32 148.845 454.575 162.349 451.388 174.31C451.334 174.515 451.288 174.718 451.263 174.928C451.078 176.46 444.73 191.648 441.273 195.606Z" fill="#9E5497"></path><path d="M441.496 192.087C441.941 193.953 441.979 195.544 440.28 196.433C438.58 197.321 435.25 197.729 433.334 197.65C420.427 197.124 407.6 190.724 399.194 180.914C399.078 178.167 398.732 175.83 398.616 173.082C408.411 175.224 418.113 177.79 427.687 180.769C433.938 182.716 439.98 185.718 441.496 192.087Z" fill="#9E5497"></path><path d="M491.087 140.31C476.903 137.597 462.16 137.804 448.069 140.964C446.717 149.275 448.473 193.68 450.564 200.981L489.129 205.503C490.782 194.901 494.922 184.876 498.032 174.605C500.12 167.706 501.657 160.317 501.664 153.05C501.671 146.817 497.21 141.481 491.087 140.31Z" fill="#FFA52E"></path><path d="M447.22 136.918C464.116 132.634 480.117 129.208 502.597 137.516C505.736 140.633 508.658 147.821 506.95 158.509C505.549 167.271 497 195.535 493.842 204.85C478.061 208.697 467.556 211.483 451.325 210.867C445.043 187.23 445.554 161.319 447.22 136.918Z" fill="#914C88"></path><path d="M478.701 190.393C479.521 192.714 482.037 195.651 482.037 195.651C476.126 196.596 450.587 198.935 437.293 185.716C435.618 184.05 438.664 177.765 438.811 177.814C451.788 182.12 461.937 180.63 472.692 182.746C474.836 183.169 477.973 188.331 478.701 190.393Z" fill="#FF9F75"></path><path d="M434.188 170.211C432.499 167.996 431.94 167.504 429.965 165.54C429.264 164.843 428.516 164.037 427.809 163.348C427.369 164.148 426.902 165.119 426.972 166.031C427.075 167.371 428.264 168.38 428.623 169.675C430.694 170.405 432.116 169.481 434.188 170.211Z" fill="#F2816B"></path><path d="M400.253 189.354C396.614 173.553 392.366 156.593 388.726 140.791C400.9 140.896 411.702 140.409 423.876 140.513C427.45 155.924 431.35 173.942 434.923 189.353L400.253 189.354Z" fill="#FFF8ED"></path><path d="M437.292 185.716C432.252 184.89 428.398 181.756 425.529 177.53C427.383 173.984 430.511 171.792 434.187 170.211C436.893 175.901 438.007 177.688 440.279 178.741C439.919 181.347 438.963 183.683 437.292 185.716Z" fill="#FF9F75"></path><path d="M434.188 170.211C432.059 168.576 429.93 166.939 427.8 165.304C425.346 164.82 423.003 164.212 420.55 163.728C420.335 164.209 420.833 164.744 421.081 165.208C421.331 165.672 421.735 166.036 422.17 166.334C423.261 167.082 424.6 167.459 425.921 167.393C427.815 169.78 430.156 171.826 432.87 173.208L434.188 170.211Z" fill="#FF9F75"></path><path d="M431.896 171.622C429.767 169.987 427.638 168.351 425.508 166.716C423.054 166.231 420.711 165.625 418.258 165.139C418.042 165.621 418.54 166.154 418.789 166.619C419.039 167.083 419.442 167.448 419.877 167.746C420.969 168.494 422.308 168.871 423.629 168.804C425.523 171.191 427.863 173.237 430.578 174.62L431.896 171.622Z" fill="#FF9F75"></path><path d="M431.626 175.077C429.497 173.442 427.368 171.806 425.238 170.17C422.784 169.686 420.441 169.079 417.988 168.594C417.772 169.075 418.27 169.609 418.519 170.074C418.769 170.538 419.172 170.903 419.607 171.2C420.698 171.947 422.038 172.325 423.359 172.258C425.253 174.645 427.593 176.691 430.308 178.073L431.626 175.077Z" fill="#FF9F75"></path><path d="M433.357 179.75C431.227 178.115 429.098 176.479 426.968 174.843C424.515 174.359 422.171 173.752 419.718 173.267C419.503 173.748 420.001 174.282 420.25 174.747C420.5 175.211 420.903 175.576 421.338 175.874C422.429 176.621 423.768 176.999 425.09 176.932C426.984 179.319 429.324 181.365 432.039 182.747L433.357 179.75Z" fill="#FF9F75"></path><path d="M400.575 176.124C399.611 176.94 398.832 177.387 397.883 178.034C398.831 176.644 399.703 176.025 400.204 174.787C400.612 173.779 400.793 172.709 400.058 171.893C398.973 172.911 397.842 174.034 396.757 175.052C397.368 174.163 397.978 173.275 398.589 172.387C399.012 171.771 399.447 171.131 399.591 170.397C399.736 169.663 399.518 168.807 398.878 168.42C398.041 169.503 397.094 170.659 395.987 171.464C397.049 170.135 398.146 168.732 398.456 167.058C398.532 166.644 398.557 166.21 398.438 165.807C398.319 165.403 398.16 165.298 397.766 165.15C396.49 166.521 395.213 167.892 393.937 169.262C393.489 169.742 393.155 170.285 393.129 170.942C393.103 171.598 393.446 172.319 394.075 172.508C393.565 173.045 393.268 173.772 393.436 174.493C393.604 175.215 394.153 175.836 394.849 176.092C394.361 176.409 394.229 177.11 394.279 177.689C394.328 178.269 394.957 179.234 395.491 179.464C395.177 179.966 395.552 180.99 395.899 181.468C396.397 182.154 397.44 183.223 398.831 183.243C398.624 182.373 398.403 181.279 398.19 180.409C399.03 179.863 399.921 179.393 400.33 178.688C400.83 177.827 400.947 177.348 400.575 176.124Z" fill="#FF9F75"></path><path d="M490.501 192.95C492.197 190.3 490.729 180.013 490.729 180.013C486.873 175.387 486.84 178.898 478.233 178.074C468.503 177.143 450.446 179.561 440.81 177.92C438.484 182.158 437.646 184.721 436.888 189.354C447.461 194.206 460.399 196.991 472.324 198.213C477.477 198.741 488.019 196.831 490.501 192.95Z" fill="#9E5497"></path><path d="M490.501 192.95C495.199 186.251 506.965 168.8 507.745 152.123C507.93 148.188 507.639 144.081 505.735 140.633C503.831 137.185 501.118 136.52 497.223 137.109C491 140.482 489.097 147.603 485.743 155.453C482.01 164.193 478.244 176.856 472.324 184.291C476.378 186.713 487.107 189.668 490.501 192.95Z" fill="#9E5497"></path><path d="M419.5 298.014C419.5 298.014 409.332 302.567 400.294 299.712C395.537 278.268 387.812 240.911 389.956 225.676C397.095 223.296 405.12 233.437 409.422 239.033C418.525 250.875 417.227 274.375 419.5 298.014Z" fill="#00223D"></path><path d="M461.447 204.85C434.89 204.85 392.861 213.098 390.393 222.798C389.785 225.186 389.956 225.676 389.956 225.676C394.761 231.054 407.652 244.293 411.674 244.293C431.902 244.293 439.948 241.714 465.944 241.714C470.3 241.714 481.389 224.929 475.253 216.503C473.571 214.193 461.447 204.85 461.447 204.85Z" fill="#00223D"></path><path d="M493.842 204.85C496.819 212.744 497.999 214.877 498.664 223.323C498.975 227.278 496.775 237.036 488.605 239.596C473.613 244.293 453.868 245.883 440.092 245.378C433.291 245.129 417.456 243.669 416.531 236.972C415.879 232.251 414.865 222.157 420.677 216.477C428.423 208.907 461.447 204.851 461.447 204.851C464.643 204.828 492.959 204.966 493.842 204.85Z" fill="#002746"></path><path d="M426.27 307.785C426.27 307.785 420.254 261.797 416.531 236.971C424.948 232.753 436.529 233.068 441.496 241.415C451.797 258.723 449.57 279.396 446.232 306.529C446.232 306.529 434.632 310.688 426.27 307.785Z" fill="#002746"></path><path d="M455.343 137.85L453.45 144.426L461.163 141.138L455.343 137.85Z" fill="#97ABAF"></path><path d="M463.568 129.553C460.392 131.838 457.6 134.655 455.343 137.851C458.512 140.499 459.865 143.144 461.615 145.268C464.587 140.947 462.986 134.764 463.568 129.553Z" fill="#FFF8ED"></path><path d="M461.476 124.985L474.857 117.665C477.936 124.003 480.467 130.264 481.284 135.053C481.284 135.053 475.967 139.424 469.661 142.252C466.643 143.606 464.611 145.267 461.615 145.267C461.615 145.267 462.01 140.169 462.251 136.005C462.51 131.551 461.476 124.985 461.476 124.985Z" fill="#F2816B"></path><path d="M446.315 108.03C448.024 108.69 449.839 108.624 451.513 107.879L451.71 106.599C458.448 106.274 465.336 109.138 470.02 113.993C473.304 112.453 476.645 110.847 479.929 109.307C480.69 101.548 479.266 99.7995 478.289 98.9235C477.311 98.0475 475.847 97.6375 474.537 97.7243C474.66 94.151 471.818 91.7971 468.56 91.1304C462.213 89.8329 455.414 91.2703 449.96 94.7665C448.022 96.0081 446.153 97.6645 445.594 99.8979C444.983 102.344 445.25 105.744 446.315 108.03Z" fill="#C15C34"></path><path d="M447.88 107.976C447.278 114.36 451.882 120.016 458.164 120.609C464.447 121.203 472.612 117.154 473.215 110.769C473.818 104.386 466.63 98.0841 460.348 97.4908C455.506 97.0335 451.015 98.0021 448.965 102.179C448.354 103.422 448.018 106.513 447.88 107.976Z" fill="#FF9F75"></path><path d="M470.845 114.232C470.809 117.033 470.759 120.28 470.494 123.069C470.247 125.671 461.039 130.775 458.751 131.741C456.394 132.735 453.85 131.857 452.794 131.174C451.822 129.962 449.456 125.529 449.029 121.641C448.801 119.57 448.596 117.536 448.56 116.276C448.544 115.749 448.966 114.223 448.966 114.223L470.845 114.232Z" fill="#FF9F75"></path><path d="M452.15 114.434C451.753 113.885 451.114 113.506 450.443 113.419C449.763 113.334 449.056 113.538 448.534 113.967L448.319 113.706C448.913 113.218 449.725 112.983 450.485 113.085C451.247 113.182 451.972 113.613 452.423 114.236L452.15 114.434Z" fill="#2D1411"></path><path d="M463.687 115.036C463.023 114.276 462.112 113.755 461.122 113.569C460.579 113.466 460.094 113.484 459.682 113.623C459.208 113.782 458.829 114.117 458.668 114.52L458.355 114.395C458.551 113.901 459.008 113.492 459.575 113.303C460.042 113.145 460.585 113.125 461.185 113.238C462.25 113.438 463.228 113.998 463.941 114.814L463.687 115.036Z" fill="#2D1411"></path><path d="M456.857 124.835C455.14 124.835 453.422 124.463 451.887 123.726L452.034 123.422C454.713 124.709 457.974 124.85 460.756 123.801L460.874 124.116C459.601 124.597 458.23 124.835 456.857 124.835Z" fill="#2D1411"></path><path d="M459.256 114.31C459.157 114.957 459.602 115.563 460.249 115.662C460.897 115.762 461.502 115.317 461.602 114.67C461.701 114.022 461.256 113.416 460.609 113.317C459.962 113.218 459.356 113.662 459.256 114.31Z" fill="#2D1411"></path><path d="M459.288 114.928C459.255 115.146 459.404 115.35 459.622 115.383C459.84 115.416 460.044 115.267 460.077 115.049C460.11 114.831 459.961 114.627 459.743 114.594C459.525 114.561 459.321 114.71 459.288 114.928Z" fill="#FFF8ED"></path><path d="M448.967 114.222C448.867 114.869 449.312 115.475 449.96 115.575C450.607 115.674 451.213 115.229 451.312 114.582C451.411 113.935 450.967 113.329 450.319 113.229C449.671 113.13 449.066 113.575 448.967 114.222Z" fill="#2D1411"></path><path d="M448.998 114.84C448.964 115.059 449.113 115.262 449.332 115.295C449.55 115.329 449.753 115.179 449.786 114.961C449.82 114.743 449.67 114.54 449.452 114.507C449.235 114.473 449.031 114.622 448.998 114.84Z" fill="#FFF8ED"></path><path d="M452.065 119.399L451.74 119.3C452.363 117.244 452.561 116.586 453.202 114.49C453.309 114.14 453.306 113.722 453.193 113.312C453.058 112.822 452.653 112.422 452.162 112.292L452.249 111.965C452.855 112.126 453.352 112.619 453.519 113.222C453.649 113.693 453.651 114.179 453.524 114.59C452.884 116.684 452.685 117.342 452.065 119.399Z" fill="#2D1411"></path><path d="M479.93 109.307C479.93 109.307 479.688 113.397 476.275 120.666C475.685 122.235 473.069 120.015 471.146 118.979C470.984 115.069 470.12 113.633 469.958 109.724C470.573 109.492 470.918 109.506 471.569 109.423C473.767 109.139 477.733 109.59 479.93 109.307Z" fill="#C15C34"></path><path d="M466.029 125.653L465.77 125.436L469.801 120.633C470.216 120.138 470.373 119.581 470.54 118.991C470.61 118.741 470.683 118.484 470.776 118.221C471.172 117.108 471.245 116.25 471.006 115.518C470.821 114.95 470.245 114.228 469.681 114.056C469.453 113.988 469.256 114.018 469.091 114.149C468.224 114.831 467.324 115.559 466.405 116.303C465.645 116.919 464.872 117.545 464.093 118.165L463.881 117.901C464.661 117.282 465.433 116.656 466.193 116.041C467.112 115.296 468.013 114.565 468.882 113.882C469.136 113.684 469.445 113.634 469.78 113.733C470.474 113.944 471.112 114.753 471.327 115.412C471.591 116.219 471.517 117.147 471.096 118.333C471.004 118.588 470.934 118.838 470.866 119.081C470.689 119.706 470.522 120.297 470.061 120.848L466.029 125.653Z" fill="#2D1411"></path><path d="M456.604 118.016C455.392 117.798 453.96 117.301 452.733 117.397C451.353 117.505 449.668 117.802 448.37 118.283C448.457 119.299 448.186 120.934 448.317 122.11C448.744 125.998 452.251 130.756 453.222 131.967C454.279 132.651 456.21 133.287 458.567 132.293C459.943 131.713 463.518 129.745 466.11 127.983C466.297 124.269 465.371 120.758 464.877 117.072C462.204 118.601 459.691 118.573 456.604 118.016Z" fill="#FFF8ED"></path><path d="M469.441 114.42C470.093 113.726 470.766 113.016 471.624 112.604C472.483 112.192 473.582 112.139 474.333 112.724C475.117 113.334 475.315 114.449 475.205 115.436C474.908 118.119 472.576 120.437 469.89 120.717C469.225 120.786 468.749 120.893 468.081 120.918C468.545 118.557 468.975 116.782 469.441 114.42Z" fill="#FF9F75"></path><path d="M470.152 117.377C470.275 117.523 470.528 117.488 470.654 117.345C470.779 117.201 470.798 116.992 470.767 116.804C470.736 116.615 470.662 116.437 470.625 116.25C470.485 115.55 470.939 114.782 471.619 114.567C472.299 114.352 473.111 114.718 473.4 115.37C473.597 115.816 473.56 116.335 473.415 116.8C472.978 118.196 471.52 119.199 470.06 119.107C469.478 118.62 469.552 117.843 470.152 117.377Z" fill="#F2816B"></path><path d="M479.93 109.307C479.93 109.307 477.712 100.833 475.736 98.942C474.099 97.3744 471.848 96.5698 469.597 96.3006C464.269 95.6639 458.165 98.9932 454.889 103.244C455.989 102.484 460.358 100.242 461.695 100.251C463.836 100.265 469.301 109.38 470.193 112.292C472.621 112.001 476.97 110.957 479.93 109.307Z" fill="#C15C34"></path><path d="M466.879 104.778C465.639 103.128 463.076 99.5719 460.694 99.2564C457.916 99.0905 456.691 102.212 454.889 103.244C452.9 102.45 450.202 102.043 448.068 102.228C451.755 98.6255 454.09 95.2017 459.244 95.0705C461.714 95.0078 466.91 96.1461 469.068 97.3482C471.899 98.9245 473.915 101.885 474.345 105.097C474.775 108.307 468.073 107.449 466.879 104.778Z" fill="#C15C34"></path><path d="M451.319 110.92C451.241 110.872 451.158 110.828 451.081 110.777C451.007 110.728 450.958 110.661 450.889 110.61C450.75 110.507 450.567 110.442 450.409 110.372C450.082 110.227 449.743 110.12 449.393 110.041C449.03 109.959 448.683 109.912 448.311 109.919C447.961 109.926 447.613 109.961 447.268 110.018C446.324 110.174 446.545 112.194 447.481 111.896C448.072 111.709 448.687 111.619 449.334 111.526C449.644 111.48 449.958 111.454 450.27 111.431C450.432 111.42 450.606 111.435 450.766 111.413C450.839 111.403 450.903 111.364 450.975 111.351C451.059 111.337 451.166 111.356 451.251 111.361C451.435 111.369 451.441 110.994 451.319 110.92Z" fill="#C15C34"></path><path d="M458.133 110.962C458.365 111.448 458.978 111.282 459.411 111.229C459.915 111.166 460.433 111.145 460.94 111.129C461.455 111.114 461.971 111.143 462.482 111.216C462.7 111.248 462.915 111.291 463.129 111.342C463.405 111.409 463.703 111.545 463.989 111.519C464.692 111.454 464.721 110.177 464.246 109.831C463.774 109.486 463.055 109.444 462.488 109.386C461.925 109.329 461.357 109.326 460.794 109.377C460.227 109.428 459.678 109.578 459.144 109.771C458.86 109.873 458.576 110.013 458.351 110.219C458.171 110.382 458.017 110.72 458.133 110.962Z" fill="#C15C34"></path><path d="M453.377 131.348C451.456 127.246 451.099 122.405 452.395 118.066L452.627 118.135C451.346 122.417 451.698 127.197 453.595 131.245L453.377 131.348Z" fill="#E8D2C1"></path><path d="M467.65 137.41L461.615 145.267L473.25 142.117L467.65 137.41Z" fill="#97ABAF"></path><path d="M473.952 145.553C472.648 142.713 470.337 139.002 467.65 137.41C472.821 134.329 477.473 130.212 479.689 124.616C481.459 126.889 483.27 129.892 484.343 132.564C481.07 137.695 478.072 141.073 473.952 145.553Z" fill="#FFF8ED"></path><path d="M382.666 199.029L363.512 201.382L373.564 341.249H375.247H381.327H388.337L382.666 199.029Z" fill="#1A1A1A"></path><path d="M164.35 199.029L158.678 341.249H173.453L183.655 199.268L164.35 199.029Z" fill="#1A1A1A"></path><path d="M122.339 209.092L410.21 209.092V198.878L122.339 198.878V209.092Z" fill="#1A1A1A"></path><path d="M119.209 204.245H413.95L415.215 193.511H117.334L119.209 204.245Z" fill="#E8D2C1"></path><path d="M172.305 228.818H375.575L376.447 208.715H171.012L172.305 228.818Z" fill="#1A1A1A"></path><path d="M186.854 180.615H243.775V162.504H186.854V180.615Z" fill="#FFF8ED"></path><path d="M183.912 193.645H245.521V179.603H183.912V193.645Z" fill="#00314C"></path><path d="M188.979 190.475H239.307L241.089 193.611L239.901 193.645H187.562L188.979 190.475Z" fill="#00223D"></path><path d="M241.37 166.169H189.259V166.41H241.37V166.169Z" fill="#E8D2C1"></path><path d="M241.37 169.35H189.259V169.591H241.37V169.35Z" fill="#E8D2C1"></path><path d="M241.37 172.909H189.259V173.15H241.37V172.909Z" fill="#E8D2C1"></path><path d="M241.37 173.983H189.259V174.224H241.37V173.983Z" fill="#E8D2C1"></path><path d="M241.37 177.249H189.259V177.49H241.37V177.249Z" fill="#E8D2C1"></path><path d="M174.427 154.615H172.119V160.582H174.427V154.615Z" fill="#00314C"></path><path d="M169.439 153.46C167.485 153.46 165.348 155.714 165.348 155.714L166.526 156.515C166.526 156.515 167.913 155.714 169.439 155.714H177.439V153.46H169.439Z" fill="#00314C"></path><path d="M176.882 158.217H169.665V164.184H176.882V158.217Z" fill="#00314C"></path><path d="M181.125 193.106L165.185 193.208L165.098 167.365C165.09 164.957 167.039 163.001 169.447 163.001H176.776C179.178 163.001 181.125 164.948 181.125 167.35V193.106Z" fill="#FFA52E"></path><path d="M361.098 193.645H270.364V190.911H361.224L361.098 193.645Z" fill="#637271"></path><path d="M334.128 191.156H267.194L256.762 150.419H323.695L334.128 191.156Z" fill="#637271"></path><path d="M301.555 171.156C302.406 174.479 300.402 177.172 297.08 177.172C293.757 177.172 290.374 174.479 289.523 171.156C288.672 167.834 290.676 165.14 293.998 165.14C297.321 165.14 300.704 167.834 301.555 171.156Z" fill="#97ABAF"></path></svg>